<?xml version="1.0" encoding="UTF-8" standalone="no"?>
<!-- Created with Inkscape (http://www.inkscape.org/) -->

<svg
   width="128"
   height="128"
   viewBox="0 0 33.866666 33.866666"
   version="1.1"
   id="svg1"
   inkscape:version="1.3 (0e150ed, 2023-07-21)"
   sodipodi:docname="icon1.svg"
   xmlns:inkscape="http://www.inkscape.org/namespaces/inkscape"
   xmlns:sodipodi="http://sodipodi.sourceforge.net/DTD/sodipodi-0.dtd"
   xmlns="http://www.w3.org/2000/svg"
   xmlns:svg="http://www.w3.org/2000/svg">
  <sodipodi:namedview
     id="namedview1"
     pagecolor="#ffffff"
     bordercolor="#999999"
     borderopacity="1"
     inkscape:showpageshadow="0"
     inkscape:pageopacity="0"
     inkscape:pagecheckerboard="0"
     inkscape:deskcolor="#d1d1d1"
     inkscape:document-units="px"
     inkscape:zoom="2.2485129"
     inkscape:cx="44.918577"
     inkscape:cy="30.464579"
     inkscape:current-layer="layer1" />
  <defs
     id="defs1" />
  <g
     inkscape:label="Layer 1"
     inkscape:groupmode="layer"
     id="layer1">
    <ellipse
       style="font-variation-settings:normal;opacity:1;vector-effect:none;fill:#ff0000;fill-opacity:1;fill-rule:evenodd;stroke:#ff0000;stroke-width:0.272785;stroke-linecap:butt;stroke-linejoin:miter;stroke-miterlimit:4;stroke-dasharray:none;stroke-dashoffset:0;stroke-opacity:1;-inkscape-stroke:none;stop-color:#000000;stop-opacity:1"
       id="path2"
       cx="16.933332"
       cy="16.933332"
       rx="16.208771"
       ry="16.765657" />
    <path
       id="text2"
       style="font-size:20.5063px;line-height:1.25;font-family:'Beautiful People Personal Use';-inkscape-font-specification:'Beautiful People Personal Use';letter-spacing:0px;word-spacing:0px;stroke-width:0.631066;fill:#f9f9f9"
       d="m 23.216331,2.9198678 c -0.0976,-0.00337 -0.190351,-0.00164 -0.277859,0.00509 -0.175016,0.013462 -0.289146,0.047419 -0.342998,0.1012699 -0.215403,0.1750159 -0.558813,0.5922149 -1.030011,1.2518905 -0.471196,0.6462127 -1.030098,1.4604399 -1.676311,2.4432218 -0.632749,0.982782 -1.332846,2.0936933 -2.100224,3.332268 -0.489966,0.790823 -0.987076,1.607874 -1.488019,2.437115 -0.07943,-0.201891 -0.16507,-0.428527 -0.243255,-0.625436 C 15.707623,10.949819 15.39817,10.155253 15.128914,9.4821146 14.873123,8.7955136 14.664524,8.2503977 14.50297,7.8465147 14.341419,7.4426315 14.253843,7.2340322 14.240379,7.2205695 13.917272,6.8436121 13.553692,6.5808851 13.149809,6.4327946 12.874746,6.3319383 12.616562,6.2651037 12.372721,6.2266906 12.081365,5.9222947 11.760945,5.700189 11.407849,5.5707204 11.003966,5.4226297 10.633493,5.3414384 10.296923,5.3279758 9.9738172,5.30105 9.7047062,5.3079434 9.4893012,5.3483318 l -0.202032,0.040202 c 0.01346,0 0.154657,0.3030683 0.423913,0.9088928 0.269255,0.6058246 0.6264498,1.4136675 1.0707218,2.4233749 0.44427,1.0097072 0.949045,2.1742375 1.514482,3.4935895 0.565436,1.305888 1.150894,2.66574 1.756718,4.079331 -0.63275,1.077021 -1.252165,2.14708 -1.857989,3.21064 -0.592362,1.050095 -1.150755,2.059646 -1.675803,3.028965 -0.5250478,0.955856 -1.0096508,1.851274 -1.4539218,2.685966 -0.4308097,0.834691 -0.8012834,1.568746 -1.1109265,2.201495 -0.2961811,0.646213 -0.5180577,1.164265 -0.6661477,1.554686 -0.1346282,0.403882 -0.1685843,0.646439 -0.1012707,0.727216 0.1211642,0.161552 0.2692523,0.262405 0.4442682,0.302794 0.1750158,0.05386 0.3432742,0.08091 0.5048272,0.08091 0.1615529,0 0.3032567,-0.02017 0.4244209,-0.06057 l 0.1816769,-0.04071 c 0.161554,-0.511576 0.4375577,-1.171331 0.8279787,-1.979097 0.403882,-0.794304 0.8815928,-1.689214 1.4335668,-2.685458 0.565435,-1.009707 1.191742,-2.087171 1.878344,-3.231505 0.376729,-0.627883 0.781597,-1.283614 1.174538,-1.927709 -0.03891,0.06818 -0.08028,0.137478 -0.119082,0.205595 -0.592362,1.050097 -1.151265,2.059646 -1.676312,3.028965 -0.525048,0.955856 -1.009652,1.851275 -1.453923,2.685966 -0.430808,0.83469 -0.801282,1.568235 -1.1109258,2.200986 -0.296181,0.646213 -0.518058,1.164774 -0.666148,1.555195 -0.1346278,0.403882 -0.1685839,0.64593 -0.1012704,0.726707 0.1211654,0.161552 0.2692524,0.262914 0.4442684,0.303303 0.175016,0.05385 0.343783,0.08041 0.505336,0.08041 0.1615528,0 0.3027478,-0.02017 0.4239128,-0.06056 l 0.181677,-0.0402 c 0.161553,-0.511586 0.437557,-1.171341 0.827977,-1.979107 0.403883,-0.794302 0.881594,-1.689721 1.433567,-2.685966 0.565437,-1.009708 1.191743,-2.086662 1.878345,-3.230998 0.423645,-0.706074 0.876445,-1.44133 1.320592,-2.167908 0.20314,0.486896 0.413864,0.988843 0.612713,1.467156 0.498123,1.184723 0.942386,2.274955 1.332807,3.271199 0.403882,0.996245 0.740398,1.858216 1.009654,2.585206 0.282718,0.740452 0.464252,1.278675 0.54503,1.615243 0.02692,0.107704 0.114501,0.14166 0.262591,0.101271 0.161554,-0.04039 0.323427,-0.121071 0.484981,-0.242235 0.161554,-0.107703 0.295855,-0.23562 0.403556,-0.38371 0.03837,-0.04263 0.06468,-0.08186 0.0855,-0.119083 0.255835,0.676746 0.429148,1.188891 0.505336,1.50634 0.02692,0.107702 0.114501,0.141661 0.262591,0.10127 0.161553,-0.04039 0.323427,-0.12158 0.484981,-0.242743 0.161553,-0.107703 0.295854,-0.23562 0.403556,-0.38371 0.121164,-0.134628 0.155122,-0.242375 0.101271,-0.323151 -0.05385,-0.363494 -0.215725,-0.976015 -0.484981,-1.837633 -0.269255,-0.848154 -0.605772,-1.837533 -1.009655,-2.968405 -0.39042,-1.144335 -0.834682,-2.37627 -1.332805,-3.695621 -0.48466,-1.332814 -0.975647,-2.65871 -1.47377,-3.97806 0.673138,-1.063559 1.339278,-2.113959 1.998954,-3.150591 0.673138,-1.036634 1.312722,-2.019119 1.918545,-2.94805 0.619289,-0.942394 1.191468,-1.8038557 1.716516,-2.5846962 0.525048,-0.7943023 0.982588,-1.4811213 1.373009,-2.0600204 0.403882,-0.5923617 0.727122,-1.056795 0.969452,-1.3933642 0.242329,-0.3365688 0.383524,-0.5181045 0.423912,-0.5450303 0.148088,-0.094239 0.202215,-0.181815 0.161826,-0.2625917 C 26.659862,4.2184839 26.565393,4.1372924 26.417303,4.0699786 26.282675,4.0026649 26.107524,3.9490462 25.89212,3.9086578 25.690178,3.8548065 25.481579,3.8213584 25.266173,3.8078959 c -0.19564,-0.024455 -0.372018,-0.030236 -0.534342,-0.021373 0.02085,-0.023686 0.05508,-0.067423 0.06463,-0.073791 C 24.944551,3.6184919 24.99817,3.5309166 24.957782,3.45014 24.917392,3.355901 24.823433,3.2752183 24.675343,3.2079044 24.540715,3.1405904 24.365564,3.0864631 24.150159,3.0460747 23.948219,2.9922237 23.739619,2.9587757 23.524214,2.9453128 23.416512,2.9318498 23.313935,2.9232338 23.216331,2.9198678 Z" />
  </g>
</svg>
