<?xml version="1.0" encoding="UTF-8" standalone="no"?>
<!-- Created with Inkscape (http://www.inkscape.org/) -->

<svg
   version="1.1"
   id="svg1"
   width="327"
   height="327"
   viewBox="0 0 326.99996 327"
   sodipodi:docname="shoes4.svg"
   inkscape:version="1.3 (0e150ed, 2023-07-21)"
   xml:space="preserve"
   xmlns:inkscape="http://www.inkscape.org/namespaces/inkscape"
   xmlns:sodipodi="http://sodipodi.sourceforge.net/DTD/sodipodi-0.dtd"
   xmlns="http://www.w3.org/2000/svg"
   xmlns:svg="http://www.w3.org/2000/svg"><defs
     id="defs1" /><sodipodi:namedview
     id="namedview1"
     pagecolor="#ffffff"
     bordercolor="#999999"
     borderopacity="1"
     inkscape:showpageshadow="0"
     inkscape:pageopacity="0"
     inkscape:pagecheckerboard="0"
     inkscape:deskcolor="#d1d1d1"
     inkscape:zoom="1.5837974"
     inkscape:cx="145.22059"
     inkscape:cy="180.26295"
     inkscape:current-layer="g5" /><g
     inkscape:groupmode="layer"
     inkscape:label="Image"
     id="g1"
     transform="translate(0.49999949,1.4063655)"><g
       id="g31"
       transform="translate(-1.0859345,-2.436782)"><path
         id="path12"
         style="vector-effect:none;fill:#000000;fill-opacity:1;stroke:none;stroke-width:1.01886px;stroke-linecap:butt;stroke-linejoin:miter;stroke-miterlimit:4;stroke-dasharray:none;stroke-dashoffset:0;stroke-opacity:1"
         d="m 111.9316,101.70258 c -9.0779,5.52295 -10.61112,16.2075 -10.83728,27.7857 -5.236518,0.25743 -11.608743,-0.12882 -20.373118,-1.12632 -20.553833,0.25644 -12.568536,-18.31642 -21.939221,-22.33322 -1.532379,-0.65671 -3.225645,-0.91964 -5.036568,-0.78205 -9.382535,0.71439 -20.511469,11.95924 -27.132988,27.41556 -8.079664,18.8592 -15.929993,39.32666 -6.242474,43.47645 0.385341,0.0867 0.68356,0.11582 1.048707,0.18905 -7.415951,3.83798 -10.038891,11.77848 -7.591662,16.59022 -1.877547,10.49614 29.840697,34.89384 64.144092,27.91504 6.749691,6.54531 15.523419,7.25436 23.045632,3.14611 10.50625,7.36384 27.91236,1.44354 28.68514,-0.29252 6.28788,7.4269 16.46466,5.48907 20.04478,1.65763 5.40031,7.57503 24.96563,3.91509 24.59182,0.2965 -0.0615,0.2191 10.37917,7.52149 24.07642,0.50943 3.87067,3.27058 12.50572,4.16337 20.17811,-0.87757 11.69957,5.69662 21.68446,4.11379 31.40342,-1.01487 18.21193,2.39079 39.12637,-3.01914 51.70491,-13.18741 12.03746,-9.73087 18.73396,-20.96873 8.5369,-36.07384 -0.11742,-1.92145 -0.88272,-3.44346 -2.20487,-4.32218 -5.53881,-6.49431 -10.76697,-5.21996 -23.99881,-5.98974 -12.91349,-0.75128 -27.19336,-4.92838 -41.82083,-10.52884 0.24974,-0.3938 0.44312,-0.79255 0.56317,-1.188 3.95816,1.25502 1.12299,-2.00639 0.17113,-2.30834 -2.2103,-0.70117 -5.07052,-0.34481 -7.33696,0.92731 -2.35859,-0.9619 -4.72489,-1.98174 -7.09019,-2.99686 0.18215,-0.28771 0.32894,-0.57599 0.42983,-0.86364 4.58608,1.25847 1.30186,-2.01153 0.199,-2.31432 -2.1142,-0.58044 -4.74188,-0.43818 -7.07229,0.34626 -2.43544,-1.08156 -4.84745,-2.19134 -7.27327,-3.29735 0.009,-0.0219 0.0215,-0.0437 0.0299,-0.0656 4.87834,1.2304 1.38408,-1.96655 0.21093,-2.26258 -1.69018,-0.4265 -3.69003,-0.45321 -5.63157,-0.11541 -3.12683,-1.44242 -6.18292,-2.80546 -9.26521,-4.23462 0.0932,-0.21844 0.17884,-0.43672 0.24277,-0.6547 5.27147,1.72971 1.49455,-2.76576 0.22686,-3.18192 -2.37414,-0.77941 -5.31196,-0.61143 -7.94388,0.40197 -2.27778,-1.04493 -4.6393,-2.15822 -6.8733,-3.16004 0.0121,-0.0397 0.0285,-0.0797 0.0398,-0.1194 5.36142,1.82761 1.52016,-2.92131 0.23084,-3.36103 -2.28363,-0.77885 -5.08023,-0.65984 -7.64141,0.26068 -1.90825,-0.82014 -3.77408,-1.5862 -5.63554,-2.34814 2.7018,0.25233 -0.34659,-3.91754 -1.47258,-4.35799 -2.49827,-0.97728 -5.60496,-0.73664 -8.35779,0.58703 -2.37935,-0.8498 -4.70302,-1.61862 -6.96682,-2.30436 0.0143,-0.0531 0.0327,-0.10617 0.0457,-0.1592 5.85737,2.28397 1.66131,-3.65326 0.25273,-4.20278 -3.2824,-1.28054 -7.53553,-0.62375 -10.89499,1.71136 -3.21725,-0.56917 -6.27549,-0.89345 -9.108,-0.86761 -0.15136,0.093 -0.25839,0.16055 -0.40795,0.25271 -6.98054,-5.34345 -14.03092,-10.60664 -23.95304,-12.57649 z m 43.21975,97.81805 c 4.12398,0.64004 8.32648,1.32742 12.70783,2.09741 -4.24153,-0.63929 -8.46943,-1.38239 -12.70783,-2.09741 z" /><g
         id="g9"
         style="stroke:none"><path
           style="opacity:1;vector-effect:none;fill:#0044aa;fill-opacity:1;stroke:none;stroke-width:1px;stroke-linecap:butt;stroke-linejoin:miter;stroke-miterlimit:4;stroke-dasharray:none;stroke-dashoffset:0;stroke-opacity:1"
           d="m 101.275,130.1915 c 0.0195,-12.72466 0.81988,-24.91513 10.67543,-30.911196 13.91846,2.763226 22.08416,12.124156 32.51223,18.890416 z"
           id="path4"
           sodipodi:nodetypes="cccc" /><path
           id="path1"
           style="font-variation-settings:normal;opacity:1;vector-effect:none;fill:#b3b3b3;fill-opacity:1;fill-rule:evenodd;stroke:none;stroke-width:0.999999;stroke-linecap:butt;stroke-linejoin:miter;stroke-miterlimit:4;stroke-dasharray:none;stroke-dashoffset:0;stroke-opacity:1;-inkscape-stroke:none;stop-color:#000000;stop-opacity:1"
           d="m 67.773559,161.50431 c -18.828983,-0.32235 -23.959265,15.16631 -19.099402,21.59145 6.95e-4,10.46543 34.862707,28.55343 66.798273,15.88016 7.65282,5.15677 16.25332,4.32611 22.81061,-0.94358 11.42372,5.29812 27.21578,-3.43228 27.66226,-5.24318 7.35906,6.08837 16.85755,2.4567 19.65407,-1.86401 6.52714,6.38493 24.79638,-0.53331 23.80961,-3.96476 -0.0216,0.22232 11.32811,5.47214 23.34936,-3.67067 4.30507,2.49065 12.80187,1.86009 19.34301,-4.33668 12.28839,3.48103 21.66143,0.22585 30.16468,-6.40951 18.00875,-0.83881 37.28163,-9.68053 47.67635,-21.67929 10.1501,-11.71639 14.70281,-23.98635 1.27302,-37.11239 -14.71454,69.26367 -197.68043,48.87825 -263.441841,47.75246 z"
           transform="rotate(10.145596)"
           sodipodi:nodetypes="scccccccccscs" /><path
           id="path2"
           style="font-variation-settings:normal;opacity:1;vector-effect:none;fill:#161650;fill-opacity:1;fill-rule:evenodd;stroke:none;stroke-width:0.943978;stroke-linecap:butt;stroke-linejoin:miter;stroke-miterlimit:4;stroke-dasharray:none;stroke-dashoffset:0;stroke-opacity:1;-inkscape-stroke:none;stop-color:#000000;stop-opacity:1"
           d="m 90.875394,72.857664 c -8.188624,4.271067 -13.882557,18.717513 -13.882149,35.221296 1.81e-4,20.1374 0.829196,41.63727 11.173085,41.6367 11.068809,-2.05393 12.06856,-6.01421 14.1845,-7.59454 16.84215,21.70975 48.46923,-12.98393 163.70413,-33.70522 89.30257,-31.518279 90.46446,-72.80602 79.52373,-74.817312 -7.50721,-3.718184 -11.73068,-0.548113 -23.96576,3.871805 -43.82138,15.83046 -121.66881,-2.304308 -152.87066,11.40168 -15.31065,21.689985 -15.7331,25.754703 -44.59506,34.413008 -18.44418,8.175871 -18.41899,-11.666708 -28.42564,-11.66861 -1.636307,-1.77e-4 -3.265571,0.417107 -4.846176,1.241193 z"
           transform="rotate(23.191779)"
           sodipodi:nodetypes="ccccccscccc" /><path
           id="path3"
           style="font-variation-settings:normal;opacity:1;vector-effect:none;fill:#999999;fill-opacity:1;fill-rule:evenodd;stroke:none;stroke-width:0.642879;stroke-linecap:butt;stroke-linejoin:miter;stroke-miterlimit:4;stroke-dasharray:none;stroke-dashoffset:0;stroke-opacity:1;-inkscape-stroke:none;stop-color:#000000;stop-opacity:1"
           d="m 24.653638,180.83752 c -3.200729,-0.0968 -5.159937,0.85646 -5.507814,2.67969 9.650535,18.19036 22.928973,32.53009 57.953123,23.78905 0.784949,-4.12233 -14.734599,-2.79679 -24.759669,-7.77974 -3.162995,-5.98482 -6.881057,-11.49878 -13.619234,-14.45072 -5.195808,-2.58232 -10.316758,-4.12529 -14.066406,-4.23828 z"
           sodipodi:nodetypes="cccccc" /><g
           id="g6"
           transform="matrix(1,0.32692535,0,1,-7.2323336,-61.543306)"
           style="fill:#0044aa;fill-opacity:1;stroke:none"><ellipse
             style="font-variation-settings:normal;opacity:1;vector-effect:none;fill:#0044aa;fill-opacity:1;fill-rule:evenodd;stroke:none;stroke-width:0.911247;stroke-linecap:butt;stroke-linejoin:miter;stroke-miterlimit:4;stroke-dasharray:none;stroke-dashoffset:0;stroke-opacity:1;-inkscape-stroke:none;stop-color:#000000;stop-opacity:1"
             id="path6"
             cx="147.93059"
             cy="137.85779"
             rx="2.7367594"
             ry="3.259187" /><ellipse
             style="font-variation-settings:normal;vector-effect:none;fill:#0044aa;fill-opacity:1;fill-rule:evenodd;stroke:none;stroke-width:0.911247;stroke-linecap:butt;stroke-linejoin:miter;stroke-miterlimit:4;stroke-dasharray:none;stroke-dashoffset:0;stroke-opacity:1;-inkscape-stroke:none;stop-color:#000000"
             id="path6-6"
             cx="162.84604"
             cy="137.85779"
             rx="2.7367594"
             ry="3.259187" /><ellipse
             style="font-variation-settings:normal;vector-effect:none;fill:#0044aa;fill-opacity:1;fill-rule:evenodd;stroke:none;stroke-width:0.911247;stroke-linecap:butt;stroke-linejoin:miter;stroke-miterlimit:4;stroke-dasharray:none;stroke-dashoffset:0;stroke-opacity:1;-inkscape-stroke:none;stop-color:#000000"
             id="path6-2"
             cx="177.76151"
             cy="137.85779"
             rx="2.7367594"
             ry="3.259187" /><ellipse
             style="font-variation-settings:normal;vector-effect:none;fill:#0044aa;fill-opacity:1;fill-rule:evenodd;stroke:none;stroke-width:0.911247;stroke-linecap:butt;stroke-linejoin:miter;stroke-miterlimit:4;stroke-dasharray:none;stroke-dashoffset:0;stroke-opacity:1;-inkscape-stroke:none;stop-color:#000000"
             id="path6-5"
             cx="192.67697"
             cy="137.85779"
             rx="2.7367594"
             ry="3.259187" /><ellipse
             style="font-variation-settings:normal;vector-effect:none;fill:#0044aa;fill-opacity:1;fill-rule:evenodd;stroke:none;stroke-width:0.911247;stroke-linecap:butt;stroke-linejoin:miter;stroke-miterlimit:4;stroke-dasharray:none;stroke-dashoffset:0;stroke-opacity:1;-inkscape-stroke:none;stop-color:#000000"
             id="path6-9"
             cx="207.59244"
             cy="137.85779"
             rx="2.7367594"
             ry="3.259187" /><ellipse
             style="font-variation-settings:normal;vector-effect:none;fill:#0044aa;fill-opacity:1;fill-rule:evenodd;stroke:none;stroke-width:0.911247;stroke-linecap:butt;stroke-linejoin:miter;stroke-miterlimit:4;stroke-dasharray:none;stroke-dashoffset:0;stroke-opacity:1;-inkscape-stroke:none;stop-color:#000000"
             id="path6-29"
             cx="222.5079"
             cy="137.85779"
             rx="2.7367594"
             ry="3.259187" /><ellipse
             style="font-variation-settings:normal;vector-effect:none;fill:#0044aa;fill-opacity:1;fill-rule:evenodd;stroke:none;stroke-width:0.911247;stroke-linecap:butt;stroke-linejoin:miter;stroke-miterlimit:4;stroke-dasharray:none;stroke-dashoffset:0;stroke-opacity:1;-inkscape-stroke:none;stop-color:#000000"
             id="path6-7"
             cx="237.42336"
             cy="137.85779"
             rx="2.7367594"
             ry="3.259187" /></g><g
           id="g8"
           style="fill:#ff0000;stroke:none"><path
             id="path8"
             style="font-variation-settings:normal;opacity:1;vector-effect:none;fill:#ff0000;fill-opacity:1;fill-rule:evenodd;stroke:none;stroke-width:0.98575;stroke-linecap:butt;stroke-linejoin:miter;stroke-miterlimit:4;stroke-dasharray:none;stroke-dashoffset:0;stroke-opacity:1;-inkscape-stroke:none;stop-color:#000000;stop-opacity:1"
             d="m 155.49208,110.54845 c -6.98226,-2.72395 -18.44443,3.46624 -15.73803,16.05807 4.7515,0.5756 13.98454,-5.8361 15.48973,-11.9344 5.74898,2.2417 1.63082,-3.58432 0.2483,-4.12367 z"
             sodipodi:nodetypes="sccs" /><path
             id="path8-3"
             style="font-variation-settings:normal;vector-effect:none;fill:#ff0000;fill-opacity:1;fill-rule:evenodd;stroke:none;stroke-width:0.912005;stroke-linecap:butt;stroke-linejoin:miter;stroke-miterlimit:4;stroke-dasharray:none;stroke-dashoffset:0;stroke-opacity:1;-inkscape-stroke:none;stop-color:#000000"
             d="m 170.24095,116.51355 c -6.4512,-2.52357 -17.04157,3.21126 -14.54101,14.8768 4.3901,0.53326 12.92089,-5.40678 14.3116,-11.05648 5.31172,2.0768 1.50678,-3.32065 0.22941,-3.82032 z"
             sodipodi:nodetypes="sccs" /><path
             id="path8-6"
             style="font-variation-settings:normal;vector-effect:none;fill:#ff0000;fill-opacity:1;fill-rule:evenodd;stroke:none;stroke-width:0.843631;stroke-linecap:butt;stroke-linejoin:miter;stroke-miterlimit:4;stroke-dasharray:none;stroke-dashoffset:0;stroke-opacity:1;-inkscape-stroke:none;stop-color:#000000"
             d="m 184.71755,122.83997 c -6.39106,-2.17969 -16.88271,2.77366 -14.40546,12.84955 4.34918,0.46059 12.80045,-4.67001 14.17819,-9.54982 5.2622,1.79379 1.49273,-2.86815 0.22727,-3.29973 z"
             sodipodi:nodetypes="sccs" /><path
             id="path8-2"
             style="font-variation-settings:normal;vector-effect:none;fill:#ff0000;fill-opacity:1;fill-rule:evenodd;stroke:none;stroke-width:0.813809;stroke-linecap:butt;stroke-linejoin:miter;stroke-miterlimit:4;stroke-dasharray:none;stroke-dashoffset:0;stroke-opacity:1;-inkscape-stroke:none;stop-color:#000000"
             d="m 198.99471,128.963 c -6.28383,-2.06292 -16.59945,2.62507 -14.16377,12.16119 4.27622,0.43591 12.58568,-4.41983 13.94031,-9.03823 5.17391,1.6977 1.46769,-2.7145 0.22346,-3.12296 z"
             sodipodi:nodetypes="sccs" /><path
             id="path8-5"
             style="font-variation-settings:normal;vector-effect:none;fill:#ff0000;fill-opacity:1;fill-rule:evenodd;stroke:none;stroke-width:0.660282;stroke-linecap:butt;stroke-linejoin:miter;stroke-miterlimit:4;stroke-dasharray:none;stroke-dashoffset:0;stroke-opacity:1;-inkscape-stroke:none;stop-color:#000000"
             d="m 213.15486,136.99843 c -5.81521,-1.46742 -15.36156,1.8673 -13.10751,8.65067 3.95731,0.31008 11.6471,-3.14398 12.90071,-6.42921 4.78807,1.20763 1.35824,-1.93091 0.2068,-2.22146 z"
             sodipodi:nodetypes="sccs" /><path
             id="path8-9"
             style="font-variation-settings:normal;vector-effect:none;fill:#ff0000;fill-opacity:1;fill-rule:evenodd;stroke:none;stroke-width:0.647458;stroke-linecap:butt;stroke-linejoin:miter;stroke-miterlimit:4;stroke-dasharray:none;stroke-dashoffset:0;stroke-opacity:1;-inkscape-stroke:none;stop-color:#000000"
             d="m 226.99832,142.17964 c -5.46682,-1.5009 -14.44121,1.9099 -12.32222,8.848 3.72023,0.31716 10.94931,-3.21569 12.12781,-6.57586 4.50121,1.23518 1.27686,-1.97496 0.19441,-2.27214 z"
             sodipodi:nodetypes="sccs" /><path
             id="path8-29"
             style="font-variation-settings:normal;vector-effect:none;fill:#ff0000;fill-opacity:1;fill-rule:evenodd;stroke:none;stroke-width:0.600678;stroke-linecap:butt;stroke-linejoin:miter;stroke-miterlimit:4;stroke-dasharray:none;stroke-dashoffset:0;stroke-opacity:1;-inkscape-stroke:none;stop-color:#000000"
             d="m 240.54182,147.33117 c -4.71832,-1.49678 -12.46398,1.90465 -10.63511,8.82371 3.21087,0.31628 9.45017,-3.20687 10.46732,-6.55781 3.88492,1.23179 1.10204,-1.96954 0.16779,-2.2659 z"
             sodipodi:nodetypes="sccs" /></g></g></g><g
       id="g2"><rect
         style="font-variation-settings:normal;opacity:1;vector-effect:none;fill:#005544;fill-opacity:1;fill-rule:evenodd;stroke:none;stroke-width:0.999999;stroke-linecap:butt;stroke-linejoin:miter;stroke-miterlimit:4;stroke-dasharray:none;stroke-dashoffset:0;stroke-opacity:1;-inkscape-stroke:none;stop-color:#000000;stop-opacity:1"
         id="rect1"
         width="62.873592"
         height="11.792789"
         x="-13.660373"
         y="191.99802"
         ry="3.8520231"
         transform="rotate(-31.06014)" /><rect
         style="font-variation-settings:normal;vector-effect:none;fill:#005544;fill-opacity:1;fill-rule:evenodd;stroke:none;stroke-width:0.999999;stroke-linecap:butt;stroke-linejoin:miter;stroke-miterlimit:4;stroke-dasharray:none;stroke-dashoffset:0;stroke-opacity:1;-inkscape-stroke:none;stop-color:#000000"
         id="rect1-3"
         width="62.873592"
         height="11.792789"
         x="12.741601"
         y="205.8862"
         ry="3.8520231"
         transform="rotate(-31.06014)" /></g><g
       id="g5"
       transform="matrix(1.001963,0.01123699,-0.00713579,0.63627335,2.381034,56.148358)"
       style="fill:#008080;stroke:none"><ellipse
         style="font-variation-settings:normal;opacity:1;vector-effect:none;fill:#008080;fill-opacity:1;fill-rule:evenodd;stroke:none;stroke-width:0.650139;stroke-linecap:butt;stroke-linejoin:miter;stroke-miterlimit:4;stroke-dasharray:none;stroke-dashoffset:0;stroke-opacity:1;-inkscape-stroke:none;stop-color:#000000;stop-opacity:1"
         id="path5"
         cx="239.17671"
         cy="148.57715"
         rx="3.5210118"
         ry="1.9705766" /><ellipse
         style="font-variation-settings:normal;vector-effect:none;fill:#008080;fill-opacity:1;fill-rule:evenodd;stroke:none;stroke-width:0.650139;stroke-linecap:butt;stroke-linejoin:miter;stroke-miterlimit:4;stroke-dasharray:none;stroke-dashoffset:0;stroke-opacity:1;-inkscape-stroke:none;stop-color:#000000"
         id="path5-1"
         cx="245.00719"
         cy="151.54388"
         rx="3.5210118"
         ry="1.9705766" /><ellipse
         style="font-variation-settings:normal;vector-effect:none;fill:#008080;fill-opacity:1;fill-rule:evenodd;stroke:none;stroke-width:0.650139;stroke-linecap:butt;stroke-linejoin:miter;stroke-miterlimit:4;stroke-dasharray:none;stroke-dashoffset:0;stroke-opacity:1;-inkscape-stroke:none;stop-color:#000000"
         id="path5-3"
         cx="242.97371"
         cy="157.53053"
         rx="3.5210118"
         ry="1.9705766" /><ellipse
         style="font-variation-settings:normal;vector-effect:none;fill:#008080;fill-opacity:1;fill-rule:evenodd;stroke:none;stroke-width:0.650139;stroke-linecap:butt;stroke-linejoin:miter;stroke-miterlimit:4;stroke-dasharray:none;stroke-dashoffset:0;stroke-opacity:1;-inkscape-stroke:none;stop-color:#000000"
         id="path5-6"
         cx="251.34608"
         cy="156.88928"
         rx="3.5210118"
         ry="1.9705766" /><ellipse
         style="font-variation-settings:normal;vector-effect:none;fill:#008080;fill-opacity:1;fill-rule:evenodd;stroke:none;stroke-width:0.650139;stroke-linecap:butt;stroke-linejoin:miter;stroke-miterlimit:4;stroke-dasharray:none;stroke-dashoffset:0;stroke-opacity:1;-inkscape-stroke:none;stop-color:#000000"
         id="path5-2"
         cx="250.39809"
         cy="161.35745"
         rx="3.5210118"
         ry="1.9705766" /><ellipse
         style="font-variation-settings:normal;vector-effect:none;fill:#008080;fill-opacity:1;fill-rule:evenodd;stroke:none;stroke-width:0.650139;stroke-linecap:butt;stroke-linejoin:miter;stroke-miterlimit:4;stroke-dasharray:none;stroke-dashoffset:0;stroke-opacity:1;-inkscape-stroke:none;stop-color:#000000"
         id="path5-5"
         cx="258.6543"
         cy="159.33041"
         rx="3.5210118"
         ry="1.9705766" /><ellipse
         style="font-variation-settings:normal;vector-effect:none;fill:#008080;fill-opacity:1;fill-rule:evenodd;stroke:none;stroke-width:0.650139;stroke-linecap:butt;stroke-linejoin:miter;stroke-miterlimit:4;stroke-dasharray:none;stroke-dashoffset:0;stroke-opacity:1;-inkscape-stroke:none;stop-color:#000000"
         id="path5-9"
         cx="256.72604"
         cy="164.65637"
         rx="3.5210118"
         ry="1.9705766" /><ellipse
         style="font-variation-settings:normal;vector-effect:none;fill:#008080;fill-opacity:1;fill-rule:evenodd;stroke:none;stroke-width:0.650139;stroke-linecap:butt;stroke-linejoin:miter;stroke-miterlimit:4;stroke-dasharray:none;stroke-dashoffset:0;stroke-opacity:1;-inkscape-stroke:none;stop-color:#000000"
         id="path5-29"
         cx="266.11002"
         cy="161.03973"
         rx="3.5210118"
         ry="1.9705766" /><ellipse
         style="font-variation-settings:normal;vector-effect:none;fill:#008080;fill-opacity:1;fill-rule:evenodd;stroke:none;stroke-width:0.650139;stroke-linecap:butt;stroke-linejoin:miter;stroke-miterlimit:4;stroke-dasharray:none;stroke-dashoffset:0;stroke-opacity:1;-inkscape-stroke:none;stop-color:#000000"
         id="path5-36"
         cx="265.09818"
         cy="166.41574"
         rx="3.5210118"
         ry="1.9705766" /><ellipse
         style="font-variation-settings:normal;vector-effect:none;fill:#008080;fill-opacity:1;fill-rule:evenodd;stroke:none;stroke-width:0.650139;stroke-linecap:butt;stroke-linejoin:miter;stroke-miterlimit:4;stroke-dasharray:none;stroke-dashoffset:0;stroke-opacity:1;-inkscape-stroke:none;stop-color:#000000"
         id="path5-20"
         cx="275.16187"
         cy="161.51672"
         rx="3.5210118"
         ry="1.9705766" /><ellipse
         style="font-variation-settings:normal;vector-effect:none;fill:#008080;fill-opacity:1;fill-rule:evenodd;stroke:none;stroke-width:0.650139;stroke-linecap:butt;stroke-linejoin:miter;stroke-miterlimit:4;stroke-dasharray:none;stroke-dashoffset:0;stroke-opacity:1;-inkscape-stroke:none;stop-color:#000000"
         id="path5-4"
         cx="285.02094"
         cy="162.92152"
         rx="3.5210118"
         ry="1.9705766" /><ellipse
         style="font-variation-settings:normal;vector-effect:none;fill:#008080;fill-opacity:1;fill-rule:evenodd;stroke:none;stroke-width:0.529378;stroke-linecap:butt;stroke-linejoin:miter;stroke-miterlimit:4;stroke-dasharray:none;stroke-dashoffset:0;stroke-opacity:1;-inkscape-stroke:none;stop-color:#000000"
         id="path5-93"
         cx="291.31512"
         cy="162.13544"
         rx="2.2650571"
         ry="2.0309572" /><ellipse
         style="font-variation-settings:normal;vector-effect:none;fill:#008080;fill-opacity:1;fill-rule:evenodd;stroke:none;stroke-width:0.650139;stroke-linecap:butt;stroke-linejoin:miter;stroke-miterlimit:4;stroke-dasharray:none;stroke-dashoffset:0;stroke-opacity:1;-inkscape-stroke:none;stop-color:#000000"
         id="path5-54"
         cx="273.66177"
         cy="165.52068"
         rx="3.5210118"
         ry="1.9705766" /><ellipse
         style="font-variation-settings:normal;vector-effect:none;fill:#008080;fill-opacity:1;fill-rule:evenodd;stroke:none;stroke-width:0.595363;stroke-linecap:butt;stroke-linejoin:miter;stroke-miterlimit:4;stroke-dasharray:none;stroke-dashoffset:0;stroke-opacity:1;-inkscape-stroke:none;stop-color:#000000"
         id="path5-7"
         cx="250.21913"
         cy="167.05005"
         rx="2.9605868"
         ry="1.9653237" /><ellipse
         style="font-variation-settings:normal;vector-effect:none;fill:#008080;fill-opacity:1;fill-rule:evenodd;stroke:none;stroke-width:0.595363;stroke-linecap:butt;stroke-linejoin:miter;stroke-miterlimit:4;stroke-dasharray:none;stroke-dashoffset:0;stroke-opacity:1;-inkscape-stroke:none;stop-color:#000000"
         id="path5-7-0"
         cx="260.75827"
         cy="169.85663"
         rx="2.9605868"
         ry="1.9653237" /><ellipse
         style="font-variation-settings:normal;vector-effect:none;fill:#008080;fill-opacity:1;fill-rule:evenodd;stroke:none;stroke-width:0.595363;stroke-linecap:butt;stroke-linejoin:miter;stroke-miterlimit:4;stroke-dasharray:none;stroke-dashoffset:0;stroke-opacity:1;-inkscape-stroke:none;stop-color:#000000"
         id="path5-7-8"
         cx="279.75827"
         cy="165.85663"
         rx="2.9605868"
         ry="1.9653237" /><ellipse
         style="font-variation-settings:normal;vector-effect:none;fill:#008080;fill-opacity:1;fill-rule:evenodd;stroke:none;stroke-width:0.595363;stroke-linecap:butt;stroke-linejoin:miter;stroke-miterlimit:4;stroke-dasharray:none;stroke-dashoffset:0;stroke-opacity:1;-inkscape-stroke:none;stop-color:#000000"
         id="path5-7-9"
         cx="269.75827"
         cy="168.85663"
         rx="2.9605868"
         ry="1.9653237" /></g></g></svg>
