<?xml version="1.0" encoding="UTF-8" standalone="no"?>
<!-- Created with Inkscape (http://www.inkscape.org/) -->

<svg
   version="1.1"
   id="svg1"
   width="327"
   height="327"
   viewBox="0 0 326.99996 327"
   sodipodi:docname="shoes2.svg"
   inkscape:version="1.3 (0e150ed, 2023-07-21)"
   xml:space="preserve"
   xmlns:inkscape="http://www.inkscape.org/namespaces/inkscape"
   xmlns:sodipodi="http://sodipodi.sourceforge.net/DTD/sodipodi-0.dtd"
   xmlns="http://www.w3.org/2000/svg"
   xmlns:svg="http://www.w3.org/2000/svg"><defs
     id="defs1" /><sodipodi:namedview
     id="namedview1"
     pagecolor="#ffffff"
     bordercolor="#999999"
     borderopacity="1"
     inkscape:showpageshadow="0"
     inkscape:pageopacity="0"
     inkscape:pagecheckerboard="0"
     inkscape:deskcolor="#d1d1d1"
     inkscape:zoom="1.1199139"
     inkscape:cx="225.0173"
     inkscape:cy="136.17118"
     inkscape:current-layer="g1" /><g
     inkscape:groupmode="layer"
     inkscape:label="Image"
     id="g1"
     transform="translate(-345.20164,1.4063655)"><g
       id="g52"
       transform="translate(5.2790222,10.58936)"><g
         id="g30"
         transform="matrix(1.2575758,0,0,1.2575758,543.91781,-171.79162)"><path
           id="path12-6-7"
           style="vector-effect:none;fill:#000000;fill-rule:evenodd;stroke:none;stroke-width:1.02199;stop-color:#000000"
           d="m 23.792829,231.796 c -1.328301,-0.0736 -2.284903,0.4803 -2.770543,2.00206 a 37.099981,33.998421 0 0 0 -11.6111627,24.53374 37.099981,33.998421 0 0 0 0.7385407,6.35749 43.012484,33.99103 0 0 0 -7.2437507,18.81499 43.012484,33.99103 0 0 0 0.6926433,5.75868 16.154641,16.09311 0 0 0 -1.5589329,6.77068 16.154641,16.09311 0 0 0 1.824405,7.35154 42.583316,20.363599 0 0 0 -0.6826585,3.42726 42.583316,20.363599 0 0 0 42.5822448,20.36394 42.583316,20.363599 0 0 0 42.582241,-20.36394 42.583316,20.363599 0 0 0 -1.053927,-4.50115 16.154641,16.09311 0 0 0 1.696663,-7.118 16.154641,16.09311 0 0 0 -0.890249,-5.04008 43.012484,33.99103 0 0 0 0.832362,-6.64893 43.012484,33.99103 0 0 0 -6.317572,-17.71315 37.099981,33.998421 0 0 0 0.998036,-7.45933 37.099981,33.998421 0 0 0 -10.313713,-23.51774 26.334774,17.251703 0 0 1 -0.22356,0.46908 c -1.793529,-6.79708 -11.359202,5.55507 -24.43993,5.55507 -9.999168,0 -19.94412,-8.77097 -24.841137,-9.04221 z" /><g
           id="g12"
           style="stroke:none"><path
             id="path12-6"
             style="vector-effect:none;fill:#0044aa;fill-rule:evenodd;stroke:none;stroke-width:0.999999;stop-color:#000000"
             d="m 71.343533,236.68794 c 3e-6,9.32285 -11.536786,16.88051 -25.768139,16.88051 -14.231353,0 -25.156179,-7.57777 -25.768139,-16.88051 -1.032088,-15.68932 13.089159,2.4674 27.320506,2.4674 14.231348,0 24.215768,-14.9565 24.215772,-2.4674 z"
             sodipodi:nodetypes="sssss" /><path
             id="path9"
             style="font-variation-settings:normal;vector-effect:none;fill:#b7c8c4;fill-opacity:1;fill-rule:evenodd;stroke:none;stroke-width:0.882556;stroke-linecap:butt;stroke-linejoin:miter;stroke-miterlimit:4;stroke-dasharray:none;stroke-dashoffset:0;stroke-opacity:1;-inkscape-stroke:none;stop-color:#000000"
             d="m 20.613815,231.78486 a 36.301716,33.266891 0 0 0 -11.8652337,24.48828 36.301716,33.266891 0 0 0 0.722656,6.2207 A 42.087002,33.259659 0 0 0 2.3833465,280.904 42.087002,33.259659 0 0 0 44.469284,314.16376 42.087002,33.259659 0 0 0 86.557174,280.904 42.087002,33.259659 0 0 0 80.375534,263.57196 36.301716,33.266891 0 0 0 81.352096,256.27314 36.301716,33.266891 0 0 0 71.260299,233.26142 25.768139,16.880505 0 0 1 46.16069,246.46259 25.768139,16.880505 0 0 1 20.613815,231.78486 Z" /><path
             id="path10"
             style="font-variation-settings:normal;vector-effect:none;fill:#004455;fill-opacity:1;fill-rule:evenodd;stroke:none;stroke-width:0.894567;stroke-linecap:butt;stroke-linejoin:miter;stroke-miterlimit:4;stroke-dasharray:none;stroke-dashoffset:0;stroke-opacity:1;-inkscape-stroke:none;stop-color:#000000"
             d="m 70.806419,276.59557 a 15.807048,15.746841 0 0 0 -13.794438,8.13779 41.667068,19.925444 0 0 0 -12.693465,-0.94756 41.667068,19.925444 0 0 0 -13.520661,1.12239 15.807048,15.746841 0 0 0 -13.456129,-7.4915 15.807048,15.746841 0 0 0 -15.8066972,15.74636 15.807048,15.746841 0 0 0 1.7854165,7.19334 41.667068,19.925444 0 0 0 -0.668798,3.35471 41.667068,19.925444 0 0 0 41.6668687,19.9253 41.667068,19.925444 0 0 0 41.66687,-19.9253 41.667068,19.925444 0 0 0 -1.032529,-4.4053 15.807048,15.746841 0 0 0 1.66026,-6.96386 15.807048,15.746841 0 0 0 -15.806698,-15.74637 z" /><path
             style="vector-effect:none;fill:#37c837;fill-opacity:1;stroke:none;stroke-width:0.600089px;stroke-linecap:butt;stroke-linejoin:miter;stroke-miterlimit:4;stroke-dasharray:none;stroke-dashoffset:0;stroke-opacity:1"
             d="m 19.435729,236.87444 c 1.718887,0.21163 1.884094,3.34956 2.612753,4.41567 3.631828,5.31373 6.92275,0.43148 9.476532,5.16668 3.728359,6.9131 -4.8352,11.36278 -6.827464,17.19583 -1.046956,3.06532 -5.373689,7.46878 -2.68654,9.33401 8.437814,5.85694 5.841404,7.43293 -1.838832,2.79362 -3.131485,-1.8916 -8.011038,3.19728 -10.9478296,1.2941 -1.9795022,-1.28282 -2.0877826,-4.46046 -1.0187498,-6.31457 5.1418634,-8.91796 2.7246984,-21.45983 7.9951934,-30.64533 0.756265,-1.31803 1.707372,-3.42808 3.234937,-3.24001 z"
             id="path5-1"
             sodipodi:nodetypes="assassasaa" /><path
             style="vector-effect:none;fill:#ff2ad4;fill-opacity:1;stroke:none;stroke-width:0.576405px;stroke-linecap:butt;stroke-linejoin:miter;stroke-miterlimit:4;stroke-dasharray:none;stroke-dashoffset:0;stroke-opacity:1"
             d="m 69.052215,239.13012 c -1.720521,0.19507 -1.885885,3.08745 -2.615236,4.07013 -3.635282,4.89792 -6.929332,0.39771 -9.485543,4.76238 -3.731904,6.37213 4.839797,10.47361 6.833956,15.85021 1.047951,2.82546 5.378797,6.88435 2.689094,8.60361 -8.445837,5.39862 -5.846958,6.85129 1.84058,2.57502 3.134462,-1.74358 8.018654,2.94708 10.958238,1.19283 1.981384,-1.18243 2.089768,-4.11142 1.019718,-5.82044 -5.146751,-8.22011 -2.727288,-19.78056 -8.002795,-28.24728 -0.756983,-1.21489 -1.708995,-3.15982 -3.238012,-2.98646 z"
             id="path5-1-6"
             sodipodi:nodetypes="assassasaa" /><path
             id="rect12"
             style="font-variation-settings:normal;opacity:1;vector-effect:none;fill:#216778;fill-opacity:1;fill-rule:evenodd;stroke:none;stroke-width:0.819813;stroke-linecap:butt;stroke-linejoin:miter;stroke-miterlimit:4;stroke-dasharray:none;stroke-dashoffset:0;stroke-opacity:1;-inkscape-stroke:none;stop-color:#000000;stop-opacity:1"
             d="m 61.316416,304.8024 c -2.427617,0.003 -4.776994,0.64049 -6.639376,1.80153 H 34.994071 c -1.861429,-1.15361 -4.205156,-1.78579 -6.625659,-1.78714 -2.415789,0.004 -4.754139,0.63577 -6.611941,1.78714 h -0.789749 v 0.55341 c -1.898887,1.4403 -2.967192,3.37709 -2.976745,5.39673 0.0095,2.01963 1.077858,3.95642 2.976745,5.39672 14.316775,4.1875 29.75228,5.44317 47.749424,-0.0144 1.898887,-1.4403 2.967192,-3.37709 2.976745,-5.39673 -8.37e-4,-2.02824 -1.069791,-3.97514 -2.976745,-5.42158 v -0.51416 H 67.96755 c -1.865483,-1.16297 -4.219476,-1.80057 -6.651134,-1.80153 z"
             sodipodi:nodetypes="cccccccccccccccc" /></g></g><g
         id="g51"
         transform="matrix(-0.96484084,0.26283484,0.26283484,0.96484084,606.12589,-49.964669)"><path
           id="path31"
           style="vector-effect:none;fill:#000000;fill-opacity:1;stroke:none;stroke-width:1.01886px;stroke-linecap:butt;stroke-linejoin:miter;stroke-miterlimit:4;stroke-dasharray:none;stroke-dashoffset:0;stroke-opacity:1"
           d="m 111.9316,101.70258 c -9.0779,5.52295 -10.61112,16.2075 -10.83728,27.7857 -5.236518,0.25743 -11.608743,-0.12882 -20.373118,-1.12632 -20.553833,0.25644 -12.568536,-18.31642 -21.939221,-22.33322 -1.532379,-0.65671 -3.225645,-0.91964 -5.036568,-0.78205 -9.382535,0.71439 -20.511469,11.95924 -27.132988,27.41556 -8.079664,18.8592 -15.929993,39.32666 -6.242474,43.47645 0.385341,0.0867 0.68356,0.11582 1.048707,0.18905 -7.415951,3.83798 -10.038891,11.77848 -7.591662,16.59022 -1.877547,10.49614 29.840697,34.89384 64.144092,27.91504 6.749691,6.54531 15.523419,7.25436 23.045632,3.14611 10.50625,7.36384 27.91236,1.44354 28.68514,-0.29252 6.28788,7.4269 16.46466,5.48907 20.04478,1.65763 5.40031,7.57503 24.96563,3.91509 24.59182,0.2965 -0.0615,0.2191 10.37917,7.52149 24.07642,0.50943 3.87067,3.27058 12.50572,4.16337 20.17811,-0.87757 11.69957,5.69662 21.68446,4.11379 31.40342,-1.01487 18.21193,2.39079 39.12637,-3.01914 51.70491,-13.18741 12.03746,-9.73087 18.73396,-20.96873 8.5369,-36.07384 -0.11742,-1.92145 -0.88272,-3.44346 -2.20487,-4.32218 -5.53881,-6.49431 -10.76697,-5.21996 -23.99881,-5.98974 -12.91349,-0.75128 -27.19336,-4.92838 -41.82083,-10.52884 0.24974,-0.3938 0.44312,-0.79255 0.56317,-1.188 3.95816,1.25502 1.12299,-2.00639 0.17113,-2.30834 -2.2103,-0.70117 -5.07052,-0.34481 -7.33696,0.92731 -2.35859,-0.9619 -4.72489,-1.98174 -7.09019,-2.99686 0.18215,-0.28771 0.32894,-0.57599 0.42983,-0.86364 4.58608,1.25847 1.30186,-2.01153 0.199,-2.31432 -2.1142,-0.58044 -4.74188,-0.43818 -7.07229,0.34626 -2.43544,-1.08156 -4.84745,-2.19134 -7.27327,-3.29735 0.009,-0.0219 0.0215,-0.0437 0.0299,-0.0656 4.87834,1.2304 1.38408,-1.96655 0.21093,-2.26258 -1.69018,-0.4265 -3.69003,-0.45321 -5.63157,-0.11541 -3.12683,-1.44242 -6.18292,-2.80546 -9.26521,-4.23462 0.0932,-0.21844 0.17884,-0.43672 0.24277,-0.6547 5.27147,1.72971 1.49455,-2.76576 0.22686,-3.18192 -2.37414,-0.77941 -5.31196,-0.61143 -7.94388,0.40197 -2.27778,-1.04493 -4.6393,-2.15822 -6.8733,-3.16004 0.0121,-0.0397 0.0285,-0.0797 0.0398,-0.1194 5.36142,1.82761 1.52016,-2.92131 0.23084,-3.36103 -2.28363,-0.77885 -5.08023,-0.65984 -7.64141,0.26068 -1.90825,-0.82014 -3.77408,-1.5862 -5.63554,-2.34814 2.7018,0.25233 -0.34659,-3.91754 -1.47258,-4.35799 -2.49827,-0.97728 -5.60496,-0.73664 -8.35779,0.58703 -2.37935,-0.8498 -4.70302,-1.61862 -6.96682,-2.30436 0.0143,-0.0531 0.0327,-0.10617 0.0457,-0.1592 5.85737,2.28397 1.66131,-3.65326 0.25273,-4.20278 -3.2824,-1.28054 -7.53553,-0.62375 -10.89499,1.71136 -3.21725,-0.56917 -6.27549,-0.89345 -9.108,-0.86761 -0.15136,0.093 -0.25839,0.16055 -0.40795,0.25271 -6.98054,-5.34345 -14.03092,-10.60664 -23.95304,-12.57649 z m 43.21975,97.81805 c 4.12398,0.64004 8.32648,1.32742 12.70783,2.09741 -4.24153,-0.63929 -8.46943,-1.38239 -12.70783,-2.09741 z" /><g
           id="g50"
           style="stroke:none"><path
             style="opacity:1;vector-effect:none;fill:#cd87de;fill-opacity:1;stroke:none;stroke-width:1px;stroke-linecap:butt;stroke-linejoin:miter;stroke-miterlimit:4;stroke-dasharray:none;stroke-dashoffset:0;stroke-opacity:1"
             d="m 101.275,130.1915 c 0.0195,-12.72466 0.81988,-24.91513 10.67543,-30.911196 13.91846,2.763226 22.08416,12.124156 32.51223,18.890416 z"
             id="path32"
             sodipodi:nodetypes="cccc" /><path
             id="path33"
             style="font-variation-settings:normal;opacity:1;vector-effect:none;fill:#004455;fill-opacity:1;fill-rule:evenodd;stroke:none;stroke-width:0.999999;stroke-linecap:butt;stroke-linejoin:miter;stroke-miterlimit:4;stroke-dasharray:none;stroke-dashoffset:0;stroke-opacity:1;-inkscape-stroke:none;stop-color:#000000;stop-opacity:1"
             d="m 67.773559,161.50431 c -18.828983,-0.32235 -23.959265,15.16631 -19.099402,21.59145 6.95e-4,10.46543 34.862707,28.55343 66.798273,15.88016 7.65282,5.15677 16.25332,4.32611 22.81061,-0.94358 11.42372,5.29812 27.21578,-3.43228 27.66226,-5.24318 7.35906,6.08837 16.85755,2.4567 19.65407,-1.86401 6.52714,6.38493 24.79638,-0.53331 23.80961,-3.96476 -0.0216,0.22232 11.32811,5.47214 23.34936,-3.67067 4.30507,2.49065 12.80187,1.86009 19.34301,-4.33668 12.28839,3.48103 21.66143,0.22585 30.16468,-6.40951 18.00875,-0.83881 37.28163,-9.68053 47.67635,-21.67929 10.1501,-11.71639 14.70281,-23.98635 1.27302,-37.11239 -14.71454,69.26367 -197.68043,48.87825 -263.441841,47.75246 z"
             transform="rotate(10.145596)"
             sodipodi:nodetypes="scccccccccscs" /><path
             id="path34"
             style="font-variation-settings:normal;opacity:1;vector-effect:none;fill:#b7c8c4;fill-opacity:1;fill-rule:evenodd;stroke:none;stroke-width:0.943978;stroke-linecap:butt;stroke-linejoin:miter;stroke-miterlimit:4;stroke-dasharray:none;stroke-dashoffset:0;stroke-opacity:1;-inkscape-stroke:none;stop-color:#000000;stop-opacity:1"
             d="m 90.875394,72.857664 c -8.188624,4.271067 -13.882557,18.717513 -13.882149,35.221296 1.81e-4,20.1374 0.829196,41.63727 11.173085,41.6367 11.068809,-2.05393 12.06856,-6.01421 14.1845,-7.59454 16.84215,21.70975 48.46923,-12.98393 163.70413,-33.70522 89.30257,-31.518279 90.46446,-72.80602 79.52373,-74.817312 -7.50721,-3.718184 -11.73068,-0.548113 -23.96576,3.871805 -43.82138,15.83046 -121.66881,-2.304308 -152.87066,11.40168 -15.31065,21.689985 -15.7331,25.754703 -44.59506,34.413008 -18.44418,8.175871 -18.41899,-11.666708 -28.42564,-11.66861 -1.636307,-1.77e-4 -3.265571,0.417107 -4.846176,1.241193 z"
             transform="rotate(23.191779)"
             sodipodi:nodetypes="ccccccscccc" /><path
             id="path35"
             style="font-variation-settings:normal;opacity:1;vector-effect:none;fill:#216778;fill-opacity:1;fill-rule:evenodd;stroke:none;stroke-width:0.642879;stroke-linecap:butt;stroke-linejoin:miter;stroke-miterlimit:4;stroke-dasharray:none;stroke-dashoffset:0;stroke-opacity:1;-inkscape-stroke:none;stop-color:#000000;stop-opacity:1"
             d="m 24.653638,180.83752 c -3.200729,-0.0968 -5.159937,0.85646 -5.507814,2.67969 9.650535,18.19036 22.928973,32.53009 57.953123,23.78905 0.784949,-4.12233 -14.734599,-2.79679 -24.759669,-7.77974 -3.162995,-5.98482 -6.881057,-11.49878 -13.619234,-14.45072 -5.195808,-2.58232 -10.316758,-4.12529 -14.066406,-4.23828 z"
             sodipodi:nodetypes="cccccc" /><path
             style="opacity:1;vector-effect:none;fill:#ff2ad4;fill-opacity:1;stroke:none;stroke-width:1px;stroke-linecap:butt;stroke-linejoin:miter;stroke-miterlimit:4;stroke-dasharray:none;stroke-dashoffset:0;stroke-opacity:1"
             d="m 53.621557,105.02807 c 2.259494,-0.38241 4.922389,0.31043 6.621947,1.84765 4.352444,3.93672 2.455549,12.05864 6.404702,16.3998 3.988464,4.38438 10.087079,6.74281 15.878783,8.00248 5.510255,1.19845 14.800811,-5.88308 16.904699,-0.65117 1.215802,3.02343 -4.263573,5.33415 -7.309848,6.49153 -9.186223,3.49014 -20.636184,4.28285 -29.48067,0 -5.418224,-2.62372 -5.319869,-15.46265 -11.199186,-14.16855 -7.609459,1.67492 -3.614566,15.15828 -5.455492,22.72929 -1.363845,5.60896 -5.450572,11.19274 -4.141347,16.8147 1.170207,5.025 11.52307,6.93045 9.960609,11.84764 -0.688906,2.16804 -4.459647,2.497 -6.601518,1.73059 -3.312382,-1.18525 -2.957722,-7.16537 -6.193684,-8.54567 -5.223492,-2.22809 -12.349154,5.75972 -16.876269,2.33124 -3.051438,-2.31092 -2.127396,-7.58834 -1.57042,-11.37534 2.384219,-16.21083 9.948465,-32.12531 20.457825,-44.69626 3.280647,-3.9242 7.556709,-7.90439 12.599869,-8.75793 z"
             id="path36"
             sodipodi:nodetypes="aaaaaaaaaaaaaaaaa" /><g
             id="g42"
             transform="matrix(1,0.32692535,0,1,-7.2323336,-61.543306)"
             style="fill:#0044aa;fill-opacity:1;stroke:none"><ellipse
               style="font-variation-settings:normal;opacity:1;vector-effect:none;fill:#0044aa;fill-opacity:1;fill-rule:evenodd;stroke:none;stroke-width:0.911247;stroke-linecap:butt;stroke-linejoin:miter;stroke-miterlimit:4;stroke-dasharray:none;stroke-dashoffset:0;stroke-opacity:1;-inkscape-stroke:none;stop-color:#000000;stop-opacity:1"
               id="ellipse36"
               cx="147.93059"
               cy="137.85779"
               rx="2.7367594"
               ry="3.259187" /><ellipse
               style="font-variation-settings:normal;vector-effect:none;fill:#0044aa;fill-opacity:1;fill-rule:evenodd;stroke:none;stroke-width:0.911247;stroke-linecap:butt;stroke-linejoin:miter;stroke-miterlimit:4;stroke-dasharray:none;stroke-dashoffset:0;stroke-opacity:1;-inkscape-stroke:none;stop-color:#000000"
               id="ellipse37"
               cx="162.84604"
               cy="137.85779"
               rx="2.7367594"
               ry="3.259187" /><ellipse
               style="font-variation-settings:normal;vector-effect:none;fill:#0044aa;fill-opacity:1;fill-rule:evenodd;stroke:none;stroke-width:0.911247;stroke-linecap:butt;stroke-linejoin:miter;stroke-miterlimit:4;stroke-dasharray:none;stroke-dashoffset:0;stroke-opacity:1;-inkscape-stroke:none;stop-color:#000000"
               id="ellipse38"
               cx="177.76151"
               cy="137.85779"
               rx="2.7367594"
               ry="3.259187" /><ellipse
               style="font-variation-settings:normal;vector-effect:none;fill:#0044aa;fill-opacity:1;fill-rule:evenodd;stroke:none;stroke-width:0.911247;stroke-linecap:butt;stroke-linejoin:miter;stroke-miterlimit:4;stroke-dasharray:none;stroke-dashoffset:0;stroke-opacity:1;-inkscape-stroke:none;stop-color:#000000"
               id="ellipse39"
               cx="192.67697"
               cy="137.85779"
               rx="2.7367594"
               ry="3.259187" /><ellipse
               style="font-variation-settings:normal;vector-effect:none;fill:#0044aa;fill-opacity:1;fill-rule:evenodd;stroke:none;stroke-width:0.911247;stroke-linecap:butt;stroke-linejoin:miter;stroke-miterlimit:4;stroke-dasharray:none;stroke-dashoffset:0;stroke-opacity:1;-inkscape-stroke:none;stop-color:#000000"
               id="ellipse40"
               cx="207.59244"
               cy="137.85779"
               rx="2.7367594"
               ry="3.259187" /><ellipse
               style="font-variation-settings:normal;vector-effect:none;fill:#0044aa;fill-opacity:1;fill-rule:evenodd;stroke:none;stroke-width:0.911247;stroke-linecap:butt;stroke-linejoin:miter;stroke-miterlimit:4;stroke-dasharray:none;stroke-dashoffset:0;stroke-opacity:1;-inkscape-stroke:none;stop-color:#000000"
               id="ellipse41"
               cx="222.5079"
               cy="137.85779"
               rx="2.7367594"
               ry="3.259187" /><ellipse
               style="font-variation-settings:normal;vector-effect:none;fill:#0044aa;fill-opacity:1;fill-rule:evenodd;stroke:none;stroke-width:0.911247;stroke-linecap:butt;stroke-linejoin:miter;stroke-miterlimit:4;stroke-dasharray:none;stroke-dashoffset:0;stroke-opacity:1;-inkscape-stroke:none;stop-color:#000000"
               id="ellipse42"
               cx="237.42336"
               cy="137.85779"
               rx="2.7367594"
               ry="3.259187" /></g><path
             style="opacity:1;vector-effect:none;fill:#ff2ad4;fill-opacity:1;stroke:none;stroke-width:1.01181px;stroke-linecap:butt;stroke-linejoin:miter;stroke-miterlimit:4;stroke-dasharray:none;stroke-dashoffset:0;stroke-opacity:1"
             d="m 92.97018,159.00584 c 16.78451,-1.79757 33.11467,-11.76459 49.80122,-9.18684 21.86779,3.37817 36.12996,31.31991 58.26892,31.12304 13.62334,-0.12115 21.93504,-18.47771 35.49286,-19.78622 11.92668,-1.15109 22.22573,9.58273 34.10931,11.10031 9.67834,1.23597 27.4298,-11.12677 29.22682,-1.76046 3.98487,20.76964 -43.17399,29.91792 -61.86371,19.26022 -5.50828,-3.14106 1.90152,-15.68601 -3.89187,-18.29275 -13.43362,-6.04446 -24.10389,20.6912 -38.89466,20.8558 -20.99896,0.23367 -35.68354,-23.07909 -55.89704,-28.37316 -27.95852,-7.32255 -86.794151,25.20842 -86.625936,-3.69262 0.07817,-13.43091 26.919323,0.18293 40.274086,-1.24732 z"
             id="path42"
             sodipodi:nodetypes="aaaaaaaaaaaa" /><g
             id="g49"
             style="fill:#004455;stroke:none"><path
               id="path43"
               style="font-variation-settings:normal;opacity:1;vector-effect:none;fill:#004455;fill-opacity:1;fill-rule:evenodd;stroke:none;stroke-width:0.98575;stroke-linecap:butt;stroke-linejoin:miter;stroke-miterlimit:4;stroke-dasharray:none;stroke-dashoffset:0;stroke-opacity:1;-inkscape-stroke:none;stop-color:#000000;stop-opacity:1"
               d="m 155.49208,110.54845 c -6.98226,-2.72395 -18.44443,3.46624 -15.73803,16.05807 4.7515,0.5756 13.98454,-5.8361 15.48973,-11.9344 5.74898,2.2417 1.63082,-3.58432 0.2483,-4.12367 z"
               sodipodi:nodetypes="sccs" /><path
               id="path44"
               style="font-variation-settings:normal;vector-effect:none;fill:#004455;fill-opacity:1;fill-rule:evenodd;stroke:none;stroke-width:0.912005;stroke-linecap:butt;stroke-linejoin:miter;stroke-miterlimit:4;stroke-dasharray:none;stroke-dashoffset:0;stroke-opacity:1;-inkscape-stroke:none;stop-color:#000000"
               d="m 170.24095,116.51355 c -6.4512,-2.52357 -17.04157,3.21126 -14.54101,14.8768 4.3901,0.53326 12.92089,-5.40678 14.3116,-11.05648 5.31172,2.0768 1.50678,-3.32065 0.22941,-3.82032 z"
               sodipodi:nodetypes="sccs" /><path
               id="path45"
               style="font-variation-settings:normal;vector-effect:none;fill:#004455;fill-opacity:1;fill-rule:evenodd;stroke:none;stroke-width:0.843631;stroke-linecap:butt;stroke-linejoin:miter;stroke-miterlimit:4;stroke-dasharray:none;stroke-dashoffset:0;stroke-opacity:1;-inkscape-stroke:none;stop-color:#000000"
               d="m 184.71755,122.83997 c -6.39106,-2.17969 -16.88271,2.77366 -14.40546,12.84955 4.34918,0.46059 12.80045,-4.67001 14.17819,-9.54982 5.2622,1.79379 1.49273,-2.86815 0.22727,-3.29973 z"
               sodipodi:nodetypes="sccs" /><path
               id="path46"
               style="font-variation-settings:normal;vector-effect:none;fill:#004455;fill-opacity:1;fill-rule:evenodd;stroke:none;stroke-width:0.813809;stroke-linecap:butt;stroke-linejoin:miter;stroke-miterlimit:4;stroke-dasharray:none;stroke-dashoffset:0;stroke-opacity:1;-inkscape-stroke:none;stop-color:#000000"
               d="m 198.99471,128.963 c -6.28383,-2.06292 -16.59945,2.62507 -14.16377,12.16119 4.27622,0.43591 12.58568,-4.41983 13.94031,-9.03823 5.17391,1.6977 1.46769,-2.7145 0.22346,-3.12296 z"
               sodipodi:nodetypes="sccs" /><path
               id="path47"
               style="font-variation-settings:normal;vector-effect:none;fill:#004455;fill-opacity:1;fill-rule:evenodd;stroke:none;stroke-width:0.660282;stroke-linecap:butt;stroke-linejoin:miter;stroke-miterlimit:4;stroke-dasharray:none;stroke-dashoffset:0;stroke-opacity:1;-inkscape-stroke:none;stop-color:#000000"
               d="m 213.15486,136.99843 c -5.81521,-1.46742 -15.36156,1.8673 -13.10751,8.65067 3.95731,0.31008 11.6471,-3.14398 12.90071,-6.42921 4.78807,1.20763 1.35824,-1.93091 0.2068,-2.22146 z"
               sodipodi:nodetypes="sccs" /><path
               id="path48"
               style="font-variation-settings:normal;vector-effect:none;fill:#004455;fill-opacity:1;fill-rule:evenodd;stroke:none;stroke-width:0.647458;stroke-linecap:butt;stroke-linejoin:miter;stroke-miterlimit:4;stroke-dasharray:none;stroke-dashoffset:0;stroke-opacity:1;-inkscape-stroke:none;stop-color:#000000"
               d="m 226.99832,142.17964 c -5.46682,-1.5009 -14.44121,1.9099 -12.32222,8.848 3.72023,0.31716 10.94931,-3.21569 12.12781,-6.57586 4.50121,1.23518 1.27686,-1.97496 0.19441,-2.27214 z"
               sodipodi:nodetypes="sccs" /><path
               id="path49"
               style="font-variation-settings:normal;vector-effect:none;fill:#004455;fill-opacity:1;fill-rule:evenodd;stroke:none;stroke-width:0.600678;stroke-linecap:butt;stroke-linejoin:miter;stroke-miterlimit:4;stroke-dasharray:none;stroke-dashoffset:0;stroke-opacity:1;-inkscape-stroke:none;stop-color:#000000"
               d="m 240.54182,147.33117 c -4.71832,-1.49678 -12.46398,1.90465 -10.63511,8.82371 3.21087,0.31628 9.45017,-3.20687 10.46732,-6.55781 3.88492,1.23179 1.10204,-1.96954 0.16779,-2.2659 z"
               sodipodi:nodetypes="sccs" /></g></g></g></g></g></svg>
