<?xml version="1.0" encoding="UTF-8" standalone="no"?>
<!-- Created with Inkscape (http://www.inkscape.org/) -->

<svg
   width="128"
   height="128"
   viewBox="0 0 33.866666 33.866666"
   version="1.1"
   id="svg1"
   inkscape:version="1.3 (0e150ed, 2023-07-21)"
   sodipodi:docname="cart.svg"
   xml:space="preserve"
   xmlns:inkscape="http://www.inkscape.org/namespaces/inkscape"
   xmlns:sodipodi="http://sodipodi.sourceforge.net/DTD/sodipodi-0.dtd"
   xmlns="http://www.w3.org/2000/svg"
   xmlns:svg="http://www.w3.org/2000/svg"><sodipodi:namedview
     id="namedview1"
     pagecolor="#ffffff"
     bordercolor="#999999"
     borderopacity="1"
     inkscape:showpageshadow="0"
     inkscape:pageopacity="0"
     inkscape:pagecheckerboard="0"
     inkscape:deskcolor="#d1d1d1"
     inkscape:document-units="px"
     inkscape:zoom="3.1798774"
     inkscape:cx="36.793871"
     inkscape:cy="64.310655"
     inkscape:current-layer="layer1" /><defs
     id="defs1" /><g
     inkscape:label="Layer 1"
     inkscape:groupmode="layer"
     id="layer1"><path
       id="rect3"
       style="font-variation-settings:normal;vector-effect:none;fill:#999999;fill-opacity:1;fill-rule:evenodd;stroke:none;stroke-width:0.255643;stroke-linecap:butt;stroke-linejoin:miter;stroke-miterlimit:4;stroke-dasharray:none;stroke-dashoffset:0;stroke-opacity:1;-inkscape-stroke:none;stop-color:#000000"
       d="m 1.6391764,1.6104535 c -1.36277744,-0.3439678 -1.33004735,2.1413392 0,2.5957072 l 3.9868367,1.3619748 c 1.439426,7.7568205 2.6855805,12.6300005 4.2498697,18.7172035 0.10141,0.431785 0.4768172,0.751892 0.9301762,0.751892 h 17.988565 c 0.531569,0 0.959632,-0.43868 0.959632,-0.983403 v -0.47749 c 0,-0.544715 -0.428063,-0.983402 -0.959632,-0.983402 H 11.829252 c -0.486,-0.291843 -0.553629,-1.125733 -0.22841,-1.204061 6.026553,-0.690071 13.32945,1.912972 18.06298,-1.859318 2.930224,-2.335182 3.62873,-8.501679 3.61735,-10.6427611 C 32.784501,4.823786 30.882981,7.5832771 9.6686603,7.1985269 9.1752425,7.1895781 8.7692518,7.5565361 8.6769896,8.033618 L 7.9886595,4.891691 C 8.137503,4.4844612 8.1706607,3.2590135 7.0352294,2.9724283 Z M 13.007475,8.7694904 h 3.85041 c 0.403168,0 0.727605,0.3249562 0.727605,0.7281209 v 1.0645347 c 0,0.40316 -0.324437,0.727604 -0.727605,0.727604 h -3.85041 c -0.403168,0 -0.727605,-0.324444 -0.727605,-0.727604 V 9.4976113 c 0,-0.4031647 0.324437,-0.7281209 0.727605,-0.7281209 z m 5.954675,0 h 3.850411 c 0.403162,0 0.728121,0.3249554 0.728121,0.7281209 v 1.0645347 c 0,0.403162 -0.324959,0.727604 -0.728121,0.727604 H 18.96215 c -0.403168,0 -0.727604,-0.324442 -0.727604,-0.727604 V 9.4976113 c 0,-0.4031655 0.324436,-0.7281209 0.727604,-0.7281209 z m 5.756237,0 h 3.850411 c 0.403168,0 0.727604,0.324955 0.727604,0.7281209 v 1.0645347 c 0,0.403163 -0.324436,0.727604 -0.727604,0.727604 h -3.850411 c -0.403163,0 -0.728121,-0.324441 -0.728121,-0.727604 V 9.4976113 c 0,-0.4031659 0.324958,-0.7281209 0.728121,-0.7281209 z M 13.007475,11.700061 h 3.85041 c 0.403168,0 0.727605,0.324953 0.727605,0.728121 v 1.064534 c 0,0.403168 -0.324437,0.727604 -0.727605,0.727604 h -3.85041 c -0.403168,0 -0.727605,-0.324436 -0.727605,-0.727604 v -1.064534 c 0,-0.403168 0.324437,-0.728121 0.727605,-0.728121 z m 5.954675,0 h 3.850411 c 0.403165,0 0.728121,0.324953 0.728121,0.728121 v 1.064534 c 0,0.403168 -0.324956,0.727604 -0.728121,0.727604 H 18.96215 c -0.403168,0 -0.727604,-0.324436 -0.727604,-0.727604 v -1.064534 c 0,-0.403168 0.324436,-0.728121 0.727604,-0.728121 z m 5.756237,0 h 3.850411 c 0.403168,0 0.727604,0.324953 0.727604,0.728121 v 1.064534 c 0,0.403168 -0.324436,0.727604 -0.727604,0.727604 h -3.850411 c -0.403164,0 -0.728121,-0.324436 -0.728121,-0.727604 v -1.064534 c 0,-0.403168 0.324957,-0.728121 0.728121,-0.728121 z m -11.710912,3.179134 h 3.85041 c 0.403168,0 0.727605,0.324953 0.727605,0.728121 v 1.064534 c 0,0.403168 -0.324437,0.727604 -0.727605,0.727604 h -3.85041 c -0.403168,0 -0.727605,-0.324436 -0.727605,-0.727604 v -1.064534 c 0,-0.403168 0.324437,-0.728121 0.727605,-0.728121 z m 5.954675,0 h 3.850411 c 0.403167,0 0.728121,0.324953 0.728121,0.728121 v 1.064534 c 0,0.403168 -0.324954,0.727604 -0.728121,0.727604 H 18.96215 c -0.403168,0 -0.727604,-0.324436 -0.727604,-0.727604 v -1.064534 c 0,-0.403168 0.324436,-0.728121 0.727604,-0.728121 z m 5.756237,0 h 3.850411 c 0.403168,0 0.727604,0.324953 0.727604,0.728121 v 1.064534 c 0,0.403168 -0.324436,0.727604 -0.727604,0.727604 h -3.850411 c -0.403168,0 -0.728121,-0.324436 -0.728121,-0.727604 v -1.064534 c 0,-0.403168 0.324953,-0.728121 0.728121,-0.728121 z"
       sodipodi:nodetypes="ssccsssssccacsccsssssssssssssssssssssssssssssssssssssssssssssssssssssssssssssssssssssssssssssssssss" /><g
       id="g6"
       style="fill:#999999;fill-opacity:1;stroke:none"
       transform="matrix(0.99572743,0,0,1.0203722,-54.483388,1.0428172)"><ellipse
         style="font-variation-settings:normal;opacity:1;vector-effect:none;fill:#999999;fill-opacity:1;fill-rule:evenodd;stroke:none;stroke-width:0.264583;stroke-linecap:butt;stroke-linejoin:miter;stroke-miterlimit:4;stroke-dasharray:none;stroke-dashoffset:0;stroke-opacity:1;-inkscape-stroke:none;stop-color:#000000;stop-opacity:1"
         id="path4"
         cx="68.872833"
         cy="26.97452"
         rx="2.1138637"
         ry="2.2811484" /><ellipse
         style="font-variation-settings:normal;vector-effect:none;fill:#999999;fill-opacity:1;fill-rule:evenodd;stroke:none;stroke-width:0.264583;stroke-linecap:butt;stroke-linejoin:miter;stroke-miterlimit:4;stroke-dasharray:none;stroke-dashoffset:0;stroke-opacity:1;-inkscape-stroke:none;stop-color:#000000"
         id="path4-8"
         cx="81.030167"
         cy="26.97452"
         rx="2.1138637"
         ry="2.2811484" /></g></g></svg>
