<?xml version="1.0" encoding="UTF-8" standalone="no"?>
<!-- Created with Inkscape (http://www.inkscape.org/) -->

<svg
   width="300"
   height="300"
   id="svg3005"
   version="1.1"
   inkscape:version="1.3 (0e150ed, 2023-07-21)"
   sodipodi:docname="bonsai-03.svg"
   xmlns:inkscape="http://www.inkscape.org/namespaces/inkscape"
   xmlns:sodipodi="http://sodipodi.sourceforge.net/DTD/sodipodi-0.dtd"
   xmlns:xlink="http://www.w3.org/1999/xlink"
   xmlns="http://www.w3.org/2000/svg"
   xmlns:svg="http://www.w3.org/2000/svg"
   xmlns:rdf="http://www.w3.org/1999/02/22-rdf-syntax-ns#"
   xmlns:cc="http://creativecommons.org/ns#"
   xmlns:dc="http://purl.org/dc/elements/1.1/">
  <title
     id="title3876">bonsai</title>
  <defs
     id="defs3007">
    <linearGradient
       inkscape:collect="always"
       id="linearGradient3079">
      <stop
         style="stop-color:#808000;stop-opacity:1"
         offset="0"
         id="stop3081" />
      <stop
         style="stop-color:#008000;stop-opacity:1"
         offset="1"
         id="stop3083" />
    </linearGradient>
    <linearGradient
       inkscape:collect="always"
       xlink:href="#linearGradient3079"
       id="linearGradient3085"
       x1="74.371857"
       y1="889.5481"
       x2="291.45728"
       y2="909.64862"
       gradientUnits="userSpaceOnUse" />
  </defs>
  <sodipodi:namedview
     id="base"
     pagecolor="#ffffff"
     bordercolor="#666666"
     borderopacity="1.0"
     inkscape:pageopacity="0.0"
     inkscape:pageshadow="2"
     inkscape:zoom="1.99"
     inkscape:cx="150.25126"
     inkscape:cy="150"
     inkscape:document-units="px"
     inkscape:current-layer="layer1"
     showgrid="false"
     inkscape:window-width="1215"
     inkscape:window-height="776"
     inkscape:window-x="65"
     inkscape:window-y="24"
     inkscape:window-maximized="1"
     showguides="true"
     inkscape:guide-bbox="true"
     inkscape:showpageshadow="0"
     inkscape:pagecheckerboard="0"
     inkscape:deskcolor="#d1d1d1" />
  <metadata
     id="metadata3010">
    <rdf:RDF>
      <cc:Work
         rdf:about="">
        <dc:format>image/svg+xml</dc:format>
        <dc:type
           rdf:resource="http://purl.org/dc/dcmitype/StillImage" />
        <dc:title>bonsai</dc:title>
        <dc:date>Agosto 2014</dc:date>
        <dc:creator>
          <cc:Agent>
            <dc:title>jpenrici</dc:title>
          </cc:Agent>
        </dc:creator>
        <dc:publisher>
          <cc:Agent>
            <dc:title>Open Clip Art Library</dc:title>
          </cc:Agent>
        </dc:publisher>
        <cc:license
           rdf:resource="http://creativecommons.org/licenses/publicdomain/" />
        <dc:subject>
          <rdf:Bag>
            <rdf:li>plant</rdf:li>
            <rdf:li>flora</rdf:li>
            <rdf:li>nature</rdf:li>
            <rdf:li>clip art</rdf:li>
            <rdf:li>clipart</rdf:li>
            <rdf:li>svg</rdf:li>
          </rdf:Bag>
        </dc:subject>
        <dc:description>Bonsai</dc:description>
      </cc:Work>
      <cc:License
         rdf:about="http://creativecommons.org/licenses/publicdomain/">
        <cc:permits
           rdf:resource="http://creativecommons.org/ns#Reproduction" />
        <cc:permits
           rdf:resource="http://creativecommons.org/ns#Distribution" />
        <cc:permits
           rdf:resource="http://creativecommons.org/ns#DerivativeWorks" />
      </cc:License>
    </rdf:RDF>
  </metadata>
  <g
     inkscape:label="Camada 1"
     inkscape:groupmode="layer"
     id="layer1"
     transform="translate(0,-752.36218)">
    <g
       id="g3087">
      <path
         sodipodi:nodetypes="sscsccccccss"
         inkscape:connector-curvature="0"
         id="path3022"
         d="m 52.988918,954.76858 c 43.850153,-3.06042 98.419472,5.9339 132.641892,-0.34273 13.94616,-2.55783 3.42263,29.17855 -23.99207,31.18968 0,0 -3.10802,7.25862 -4.79841,7.54038 -2.05646,0.34274 -23.64934,0 -23.64934,0 l -1.71371,-5.48383 -59.980197,-7e-5 -3.427433,5.4839 -24.334818,0 -2.399207,-6.51218 c -23.743261,-3.46821 -20.804041,-11.1906 -28.790489,-18.50814 -8.9149788,-8.1683 6.178095,-10.97551 40.443782,-13.36701 z"
         style="fill:#000000;stroke:none" />
      <path
         sodipodi:nodetypes="cacccc"
         inkscape:connector-curvature="0"
         id="path3024"
         d="m 14.258855,961.62346 c 10.898466,-2.87306 18.953056,-3.27246 28.447746,-4.79842 16.431739,-2.64085 32.729067,-6.79846 49.355121,-7.54036 -0.02762,0.29942 101.267498,6.45025 99.395738,8.5686 -10.44,10.27334 -51.9883,-2.38982 -97.339271,7.54036 -11.141205,-0.33589 -73.468386,4.44288 -79.859334,-3.77018 z"
         style="fill:#005500;stroke:none" />
      <path
         sodipodi:nodetypes="ccccccccccccccccccccccccc"
         inkscape:connector-curvature="0"
         id="path3017"
         d="m 17.227684,960.49127 c 4.841995,-0.44986 40.891828,-2.97291 64.879588,-10.24937 11.947165,8.77346 -48.001249,7.85785 -42.602016,11.95849 51.335453,-2.673 53.526985,-9.05983 54.019069,-10.65393 25.829185,2.05956 37.236095,5.12405 60.240795,4.52619 7.0712,-2.56829 -48.99041,-4.29716 -50.75458,-6.43047 -11.83867,-3.07949 -13.836451,-15.36526 -5.087745,-21.28161 5.164415,-5.41559 10.040875,-12.53037 18.419665,-12.30462 8.64938,-0.75726 17.00988,2.78684 25.63963,1.79612 9.08639,0.0767 17.63418,3.64612 25.43608,7.98974 14.66863,3.09906 31.37661,-12.5283 36.56886,-8.17721 6.27657,-1.83227 12.92079,-0.57307 18.51447,2.57221 8.85354,2.14716 19.80421,-9.76063 30.37586,4.59106 4.55908,2.91952 10.23827,9.04461 14.74995,4.71358 -9.57437,3.74915 -12.36308,-12.6722 -10.14452,-12.52662 -9.55239,2.49311 -18.83077,-3.28479 -28.47984,-2.022 -10.02666,0.47236 -20.26028,1.2654 -30.03112,-1.58575 -9.56985,-1.28074 -17.79492,4.85325 -26.25124,7.94354 -9.55814,-0.005 -17.22893,-8.50755 -27.08866,-6.67542 -9.58035,-0.159 -19.35855,-1.35119 -28.03832,-5.61019 -9.31948,-2.2103 -17.31669,7.18411 -26.470159,4.69368 -2.806348,-2.7706 -11.795011,-7.54868 -12.189391,-3.95657 9.948689,1.41771 14.605889,16.26523 6.048484,22.32325 -4.081892,7.48488 -4.778329,21.39343 -16.290901,20.56477 -3.332797,-0.24741 -48.907601,5.01308 -51.463959,7.80113 z"
         style="fill:#552200;stroke:none" />
      <path
         sodipodi:nodetypes="cccccccccccccccccccccccccccsccccccccccc"
         inkscape:connector-curvature="0"
         id="path3052"
         d="m 93.96985,926.23153 c -0.09431,-9.78708 -27.558661,-5.31147 -17.888588,-17.72228 -2.1396,-8.11941 -11.936177,16.16193 -13.952137,19.00745 -5.786426,4.14702 -23.26721,7.09843 -23.652364,-0.4028 5.383134,-1.50979 21.813166,-6.06191 15.104313,-11.91877 -10.544087,-0.93181 -25.232529,4.73421 -41.367664,16.80385 -2.2910727,-14.86995 35.523317,-17.90773 36.08334,-29.99256 -3.836908,-2.22944 -22.392893,2.7795 -13.302542,-4.69368 8.23179,-5.31828 22.595134,-4.31502 28.602002,-8.1773 -2.322831,-5.87091 -17.885672,-10.25679 -7.355314,-16.70877 -5.758682,-8.36433 -16.081464,-18.77824 -3.447791,-25.99562 1.831545,-5.22944 -4.666401,-20.25228 2.657069,-18.57164 4.368404,9.87862 7.439937,17.92085 13.827199,25.71312 5.891005,18.74243 15.643359,16.81402 21.557101,4.09567 0.930623,-3.13553 -5.277694,-32.14745 -4.161054,-25.02939 1.39281,7.38134 25.44237,28.00295 22.5056,37.29603 -0.51266,4.61522 13.16701,-12.24606 10.79405,-2.73267 -8.46519,11.32822 14.6104,16.99217 17.95837,10.67069 9.04694,4.49464 16.66627,-6.88032 15.58514,-16.25752 2.32082,-4.31518 11.27715,-15.84124 12.3749,9.47242 2.73514,21.64977 17.33311,18.8222 22.54518,12.03125 5.11229,7.58995 -26.35129,6.7689 -12.5709,13.41517 13.05848,5.26104 14.21805,-21.31302 29.51415,-15.3657 5.72837,0.52889 32.01465,15.54417 32.97876,18.75355 -5.57943,-0.87901 -39.78674,-8.2535 -28.34959,-2.11132 18.85505,2.31311 25.29363,15.42629 37.49848,5.63906 10.91566,-3.69283 25.96911,-5.81449 30.23753,-25.18361 4.18674,12.16139 -6.92879,12.34996 -6.6043,19.42925 0.3245,7.07929 7.06389,-0.0562 8.26699,3.98961 -10.70485,10.78307 5.54782,2.22909 -2.06482,13.98165 -5.4078,10.82071 15.2534,4.54166 4.00839,13.0147 4.23905,41.75264 -10.40317,-16.54787 -20.06023,-18.91353 -9.62365,-6.60538 -19.0459,16.92693 -30.36382,15.91345 -20.83792,-38.91699 -30.69813,-4.54834 -42.13847,-2.52381 -9.67883,5.65515 -21.7915,-21.97293 -30.95535,-17.08449 -13.78808,7.79562 -17.23666,2.35386 -30.97394,9.00139 -5.67071,5.18052 -11.40951,-14.92359 -14.43094,-16.86817 -9.15822,7.12254 -12.35875,3.42132 -20.971313,-1.62292 z"
         style="fill:url(#linearGradient3085);stroke:none;fill-opacity:1" />
    </g>
  </g>
</svg>
