<?xml version="1.0" encoding="UTF-8" standalone="no"?>
<!-- Created with Inkscape (http://www.inkscape.org/) -->

<svg
   width="300"
   height="300"
   id="svg3005"
   version="1.1"
   inkscape:version="1.3 (0e150ed, 2023-07-21)"
   sodipodi:docname="bonsai-05.svg"
   xmlns:inkscape="http://www.inkscape.org/namespaces/inkscape"
   xmlns:sodipodi="http://sodipodi.sourceforge.net/DTD/sodipodi-0.dtd"
   xmlns="http://www.w3.org/2000/svg"
   xmlns:svg="http://www.w3.org/2000/svg"
   xmlns:rdf="http://www.w3.org/1999/02/22-rdf-syntax-ns#"
   xmlns:cc="http://creativecommons.org/ns#"
   xmlns:dc="http://purl.org/dc/elements/1.1/">
  <title
     id="title4200">Bonsai</title>
  <defs
     id="defs3007">
    <filter
       inkscape:collect="always"
       style="color-interpolation-filters:sRGB"
       id="filter5097"
       x="-0.046223771"
       width="1.0924475"
       y="-0.093383553"
       height="1.1867671">
      <feGaussianBlur
         inkscape:collect="always"
         stdDeviation="1.0219912"
         id="feGaussianBlur5099" />
    </filter>
  </defs>
  <sodipodi:namedview
     id="base"
     pagecolor="#ffffff"
     bordercolor="#666666"
     borderopacity="1.0"
     inkscape:pageopacity="0.0"
     inkscape:pageshadow="2"
     inkscape:zoom="2.0366667"
     inkscape:cx="150.2455"
     inkscape:cy="189.27987"
     inkscape:document-units="px"
     inkscape:current-layer="g4345"
     showgrid="false"
     inkscape:window-width="1215"
     inkscape:window-height="776"
     inkscape:window-x="65"
     inkscape:window-y="24"
     inkscape:window-maximized="1"
     inkscape:snap-global="false"
     inkscape:showpageshadow="0"
     inkscape:pagecheckerboard="0"
     inkscape:deskcolor="#d1d1d1" />
  <metadata
     id="metadata3010">
    <rdf:RDF>
      <cc:Work
         rdf:about="">
        <dc:format>image/svg+xml</dc:format>
        <dc:type
           rdf:resource="http://purl.org/dc/dcmitype/StillImage" />
        <dc:title>Bonsai</dc:title>
        <dc:date>Abril-2015</dc:date>
        <dc:creator>
          <cc:Agent>
            <dc:title>jpenrici</dc:title>
          </cc:Agent>
        </dc:creator>
        <dc:publisher>
          <cc:Agent>
            <dc:title>Open Clip Art Library</dc:title>
          </cc:Agent>
        </dc:publisher>
        <cc:license
           rdf:resource="http://creativecommons.org/publicdomain/zero/1.0/" />
        <dc:subject>
          <rdf:Bag>
            <rdf:li>plant</rdf:li>
            <rdf:li>flora</rdf:li>
            <rdf:li>nature</rdf:li>
            <rdf:li>clip art</rdf:li>
            <rdf:li>clipart</rdf:li>
            <rdf:li>svg</rdf:li>
          </rdf:Bag>
        </dc:subject>
      </cc:Work>
      <cc:License
         rdf:about="http://creativecommons.org/publicdomain/zero/1.0/">
        <cc:permits
           rdf:resource="http://creativecommons.org/ns#Reproduction" />
        <cc:permits
           rdf:resource="http://creativecommons.org/ns#Distribution" />
        <cc:permits
           rdf:resource="http://creativecommons.org/ns#DerivativeWorks" />
      </cc:License>
    </rdf:RDF>
  </metadata>
  <g
     inkscape:label="Camada 1"
     inkscape:groupmode="layer"
     id="layer1"
     transform="translate(0,-752.36218)">
    <g
       id="g4345">
      <g
         transform="matrix(0.95859922,0,0,0.95859922,-14.91036,43.321203)"
         id="g4966">
        <path
           sodipodi:nodetypes="sscsccccccss"
           inkscape:connector-curvature="0"
           id="path3022"
           d="m 92.268416,1000.2162 c 43.850154,-3.06043 98.419474,5.9339 132.641894,-0.34274 13.94616,-2.55783 3.42263,29.17854 -23.99207,31.18964 0,0 -3.10802,7.2587 -4.79841,7.5404 -2.05646,0.3428 -23.64934,0 -23.64934,0 l -1.71371,-5.4838 -59.9802,-10e-5 -3.42743,5.4839 -24.33482,0 -2.399207,-6.5122 c -23.743261,-3.4682 -20.804041,-11.1906 -28.790489,-18.5081 -8.914979,-8.1683 6.178095,-10.9755 40.443782,-13.367 z"
           style="fill:#000000;stroke:none" />
        <path
           sodipodi:nodetypes="cacccc"
           inkscape:connector-curvature="0"
           id="path3024"
           d="m 53.538353,1007.0711 c 10.898466,-2.8731 18.953056,-3.2725 28.447746,-4.7984 16.431739,-2.6409 32.729071,-6.79851 49.355121,-7.54041 -0.0276,0.29942 101.2675,6.45021 99.39574,8.56861 -10.44,10.2733 -51.9883,-2.3898 -97.33927,7.5404 -11.14121,-0.3359 -73.468389,4.4428 -79.859337,-3.7702 z"
           style="fill:#225500;stroke:none" />
        <path
           style="fill:#1f241c;fill-opacity:1;fill-rule:evenodd;stroke:none;stroke-width:1px;stroke-linecap:butt;stroke-linejoin:miter;stroke-opacity:1"
           d="m 80.290626,1000.3164 c -4.063832,-1.08745 -8.676104,-4.30341 -6.352144,-8.74768 -0.690126,-4.06345 1.21712,-8.08211 4.601627,-10.19286 1.060195,-4.20446 -4.742455,-9.89313 0.849697,-12.78646 4.244971,-2.19559 8.994043,-3.22775 13.468176,-4.86517 4.086161,-2.09702 8.621268,-2.78035 13.090078,-3.67227 4.40781,-0.12738 8.93287,2.81756 12.99444,-0.6126 4.78785,-3.73295 8.2165,2.89867 11.07529,5.7273 3.08088,3.9439 8.69246,2.92458 12.90657,4.71401 3.99211,2.50851 8.04557,5.74311 8.4412,10.6732 0.64526,5.37263 5.69458,7.71574 10.24641,9.57731 3.63998,1.63072 6.87683,7.60463 2.7759,10.27732 -3.49483,1.6274 -6.73733,-0.85318 -9.94872,-1.70391 -5.70916,-1.02547 -11.53123,0.0141 -17.28919,-0.35268 -5.07386,-0.0369 -10.09569,-0.29877 -14.95595,1.11292 -4.1048,-0.1386 -7.9967,1.00367 -11.22872,3.43027 -3.56597,2.1822 -8.03673,3.2831 -12.119479,1.79 -4.476091,-1.1606 -8.93049,-2.5574 -13.457419,-3.3828 -1.725511,-0.061 -3.705313,0.2513 -5.097766,-0.9859 z"
           id="path4657"
           inkscape:connector-curvature="0" />
        <path
           style="fill:#445500;fill-opacity:1;fill-rule:evenodd;stroke:none;stroke-width:1px;stroke-linecap:butt;stroke-linejoin:miter;stroke-opacity:1;filter:url(#filter5097)"
           d="m 88.581311,974.11984 c 5.059544,7.38696 -0.464895,6.00303 -1.159918,9.22228 -0.270587,2.74172 -0.07796,6.04974 2.478895,7.69966 3.767519,-2.87774 9.477778,0.2756 14.215412,0.45013 1.5043,0.68571 14.29673,-7.46937 11.92704,-9.41325 7.26137,-6.74521 12.39953,3.60543 13.96769,4.7397 3.09555,1.41712 6.19402,2.84691 9.41812,3.95224 4.50787,-0.22017 -8.27738,-12.78981 -7.807,-17.4917 -1.69995,-5.48823 -8.10785,-10.83318 -12.88971,-6.31956 -6.45765,0.14624 -14.12118,1.28764 -17.09547,0.11385 -2.493705,-0.72972 -2.177376,5.18179 -4.855773,5.33105 -2.044417,-0.63867 -7.364339,3.52462 -8.199286,1.7156 z"
           id="path4659"
           inkscape:connector-curvature="0"
           sodipodi:nodetypes="cccccccccccc" />
      </g>
      <g
         transform="matrix(0.95859922,0,0,0.95859922,-480.40398,90.181941)"
         id="g4602"
         style="fill:#818f5a;fill-opacity:1">
        <path
           sodipodi:nodetypes="ccccccccccccccccccccccccccccccccccccccccccccccccccccccccccccccccccccccccccccccccccccccccccccccccccccccccccccccccccccccccc"
           inkscape:connector-curvature="0"
           id="path4452"
           transform="translate(-39.279498,706.91457)"
           d="m 722.76172,93.863281 c -4.7805,3.29007 -1.49103,11.698989 1.54492,15.837889 11.68722,24.24094 6.43308,26.2727 -9.64844,7.27149 -6.69474,-4.26466 6.72514,-15.82784 -4.57422,-15.34961 -9.13256,-1.56519 1.41976,9.25144 -3.5371,13.34375 -2.71407,7.59223 -6.7061,-0.12771 -7.85938,-3.97461 -0.68893,-0.0326 -1.25921,0.0656 -1.73438,0.25976 0.029,-2.9581 6.9e-4,-5.91996 0.0195,-8.8789 -0.18846,-0.5154 -0.59712,-3.106042 -0.74805,-1.32813 -0.14728,1.50677 0.0157,3.32976 -0.79883,4.57617 -0.35003,2.21548 -0.0935,4.47814 -0.17187,6.71485 0.23455,1.38351 -0.53814,2.09381 -1.61717,2.20508 -1.6256,-0.74115 -2.39269,-2.54042 -3.70117,-3.68555 -0.84115,-1.06641 -1.65,-2.29812 -2.56055,-3.16211 0.25018,1.35572 1.44759,2.32248 2.30469,3.3457 1.00002,0.87054 1.44789,2.19798 2.01758,3.35156 -0.0455,1.53559 0.95455,2.5074 0.68554,4.01563 -1.526,0.38391 -3.42921,-0.36301 -5.14843,-0.082 -2.76435,-0.282 -5.85465,-3.78387 -4.45313,-1.79492 2.42791,2.53264 6.10216,6.12804 0.32227,5.27734 -2.06808,-0.53932 -14.44288,-10.47556 -13.5,-6.16211 0.69712,1.40476 2.07002,2.31903 3.10546,3.4668 5.21811,2.85489 10.10826,6.16657 14.9336,8.79297 3.00064,0.66263 4.94612,1.46407 7.86328,1.46289 1.76945,0.39394 2.92954,-1.26552 4.05664,-2.31836 0.55208,-0.66723 -1.89211,-6.58312 -1.55422,-7.34478 4.27059,4.49053 6.72823,0.0799 11.13625,1.95415 1.21079,6.12232 15.81163,5.50369 11.47266,12.89844 -5.98497,3.57856 1.21795,15.14069 -7.53711,15.27344 -9.84221,3.83762 -20.02873,23.84675 -28.27735,20.59961 -4.98468,-11.35866 -12.69087,-33.69794 -21.5664,-28.52344 -6.14798,4.07433 -5.62067,12.03536 -6.57813,18.37109 4.396,2.85384 -3.59363,7.2586 -6.55468,7.43555 -5.09404,4.85884 -3.85218,13.68485 -10.16993,17.68555 -12.82327,12.02262 -24.33551,10.48596 -40.47656,16.21289 -19.1256,9.11075 -10.73582,18.3826 -9.43164,32.02344 0.78073,3.11042 2.4335,6.36297 1.13281,9.58593 -19.59417,2.48407 -0.12671,-20.64526 -10.95703,-20.88281 -9.77472,9.29259 -15.7103,-7.10429 -19.01758,-0.62891 -5.03317,4.67387 4.48301,11.02394 1.46094,16.22461 -5.58091,6.50289 14.22852,-31.12837 11.8457,13.15625 4.68747,5.63728 8.97705,5.03969 14.73829,7.94922 2.46859,6.76093 8.90715,10.04935 15.98242,10.2461 16.44393,-0.64382 -30.72071,-18.19532 2.43359,-15.64454 6.11495,1.67377 8.48114,9.80808 15.25391,10.05079 -16.85417,-11.48898 -0.79358,-20.14138 -2.03906,-22.0625 -19.64351,0.76774 -16.50881,-4.82948 -15.2754,-12.35743 -0.65989,-17.38224 15.77907,-16.5505 28.65235,-24.51562 28.31288,0.45438 20.36349,-31.92975 32.86914,-42.68945 6.9467,6.64853 4.25306,32.19724 18.0957,27.22656 7.61654,-0.60139 10.96675,-6.74693 14.32617,-12.62695 1.80405,-13.21057 16.13365,-19.68048 19.53125,-10.57422 2.81956,-6.71691 7.68262,-23.32526 14.88672,-26.19532 -0.0726,3.80699 -2.01914,17.49769 -0.8457,21.19727 0.9856,5.6419 9.53104,5.73502 8.08203,12.09375 -0.69858,5.43928 0.82812,11.57954 5.97266,14.35742 6.69879,3.17063 12.13494,9.16598 14.45117,16.2168 -2.31809,6.63453 -11.95781,-0.9778 -17.39844,0.70117 -7.85113,0.21782 -8.16278,15.16844 -16.6582,4.96094 -0.0542,-0.042 -0.0812,-0.0823 -0.13086,-0.125 0.76711,1.62009 2.02233,2.90598 3.28711,4.15429 1.15658,0.60488 2.66438,1.3929 0.69531,2.15821 -2.28409,0.61286 -4.52646,-0.64123 -6.80664,-0.77149 -1.91975,-0.17797 -3.68752,-0.77693 -5.69922,-0.51953 -2.186,-0.0708 -4.41494,0.14523 -6.57226,-0.11328 -2.37198,-0.14207 1.32225,0.9362 1.90429,1.20899 6.35585,2.39936 -2.04008,5.06351 -4.43164,4.80664 -4.36981,-0.0907 -8.60859,0.74173 -12.35742,2.31836 -0.96095,0.99726 -4.11458,1.0957 -3.50195,2.69921 5.37316,1.10867 10.84846,-1.72573 15.60156,-1.33984 2.84922,0.001 5.69932,-0.0114 8.54883,-0.006 4.56705,0.43847 -0.4594,-12.86644 12.24414,-1.37695 1.27263,0.85146 3.17078,1.23911 4.82031,2.14648 0.65736,0.36181 4.2774,1.69524 2.01367,0.60156 -1.67211,-0.83896 -3.40769,-3.49682 -2.02929,-5.18164 3.59444,-2.26368 -5.28561,-8.91522 11.98632,-6.52148 1.73059,0.60194 3.01089,-0.57566 1.30079,-1.91406 -0.61419,-0.33493 -1.12806,-0.76939 -1.56836,-1.26758 21.23784,-6.33842 22.50413,5.01863 34.54492,13.18555 -1.49144,1.55963 2.39464,3.97311 0.64962,5.23578 -1.58642,1.25262 -8.81711,1.67665 -9.1965,3.74859 0.421,2.23208 3.16468,1.46261 4.78125,1.71289 3.78241,-1.40006 7.12541,-2.17496 10.94141,-2.2539 1.32612,0.29388 2.60244,0.83859 3.97851,0.96093 4.58588,-2.03961 9.00105,0.9632 12.33985,1.25 1.87666,0.0261 3.82848,-0.025 5.56054,-0.82812 0.99005,-0.39263 3.61996,0.44896 3.5254,-0.77344 -7.68117,0.0494 -6.70887,-7.25334 -7.48047,-7.18555 -1.31813,1.12996 -1.02516,3.72673 -3.03516,4.06446 -5.32716,0.45752 -10.18317,-0.22416 -15.02734,-1.10157 -1.36739,-0.31335 -1.345,-1.74117 -1.30274,-3.2832 3.16021,-0.69434 0.33235,-5.66024 -3.35547,-6.79687 -4.75169,-2.97876 -11.80719,-6.03756 -10.32812,-12.87696 -2.79244,-4.89143 -8.45114,-7.78946 -9.96289,-13.58984 -14.61872,-5.7574 -13.11003,-27.08526 -19.78711,-30.17383 -0.19857,-0.4527 -0.39144,-0.93514 -0.58008,-1.42969 3.88489,2.25431 7.1574,4.34408 11.54492,5.71094 3.56357,2.70752 8.2492,3.28074 11.99414,5.65039 5.58149,3.37885 13.16724,-1.50319 14.16211,2.94336 1.18303,2.40732 3.08153,4.17303 5.26367,5.66211 2.12018,1.19353 4.29634,2.45768 6.62305,3.1875 2.84479,0.10957 5.93867,0.77215 8.66406,-0.30859 -0.54584,-2.00004 -4.08663,-1.60262 -5.92382,-2.29492 -9.18082,1.30449 -10.18123,-11.93674 -16.76758,-12.09376 -3.81679,-0.75249 -15.29807,-3.16062 -15.82617,-5.67578 2.86818,-2.11525 6.37628,-3.49311 8.73828,-6.28125 1.81868,-3.2602 -2.54219,-1.1834 -3.7168,-0.19921 -2.39044,1.47863 -5.10165,2.16513 -7.82227,2.70703 -2.73578,0.28454 -4.87919,2.68792 -7.72461,2.23828 -2.17984,-1.81786 2.07661,-4.52304 2.6211,-6.63867 2.36088,-6.09762 28.12073,-4.85342 20.63182,0.46632 5.37251,-12.51134 -24.66265,-1.85538 -27.22752,-0.42531 -1.89014,1.54651 -4.24354,1.42024 -6.54297,1.11719 -2.03572,-8.35407 -1.55506,-19.3202 8.35937,-24.8418 -13.69638,-5.61566 -20.59611,23.89563 -10.55859,-25.05469 -5.09276,-4.89432 -2.95299,10.69042 -8.72266,4.24805 -4.90705,-4.46898 -1.60374,-14.359169 -8.12695,-16.499999 z m 4.65625,115.435549 c -0.0235,-0.0497 -0.0516,-0.0962 -0.0742,-0.14649 -0.96109,-1.29359 -0.74687,-0.55894 0.0742,0.14649 z"
           style="fill:#504416;fill-opacity:1;fill-rule:evenodd;stroke:none;stroke-width:1px;stroke-linecap:butt;stroke-linejoin:miter;stroke-opacity:1" />
        <path
           sodipodi:nodetypes="ccccccccccc"
           inkscape:connector-curvature="0"
           id="path4463"
           d="m 565.13406,908.38856 c -8.64123,2.48401 -1.66174,3.09844 -8.9921,7.44638 -3.86798,2.05847 -6.54901,5.5128 -5.43947,10.50195 4.16113,3.63552 7.06693,21.41085 7.85505,22.0344 -2.21271,-23.88356 -12.50189,-27.09448 1.82264,-32.72256 4.22925,-1.8966 3.67911,-5.55027 8.22083,-6.35873 9.5538,-4.69741 30.9019,-2.15073 38.52489,-7.98396 3.84458,-3.90188 4.02932,-6.58138 5.10738,-11.92559 0.65866,-2.14901 3.13661,-10.08938 2.10536,-10.33754 -1.75638,5.13013 -4.46425,14.10375 -7.24437,18.68616 -5.4486,6.94798 -34.5646,8.50666 -41.96021,10.65949 z"
           style="fill:#28220b;fill-opacity:1;fill-rule:evenodd;stroke:none;stroke-width:1px;stroke-linecap:butt;stroke-linejoin:miter;stroke-opacity:1" />
      </g>
      <g
         id="g4334">
        <path
           style="fill:#008000;fill-rule:evenodd;stroke:none;stroke-width:1px;stroke-linecap:butt;stroke-linejoin:miter;stroke-opacity:1"
           d="M 114.4375 115.91406 C 114.02929 115.8651 113.68475 116.03619 113.4668 116.51367 C 114.04105 120.38667 110.32774 123.80271 110.62891 127.66016 C 110.37684 127.22573 109.99344 126.83029 109.52148 126.49805 C 103.77436 125.0324 105.69947 120.93073 104.50586 117.78125 C 101.66384 119.93795 105.70249 123.53031 102.6543 125.77734 C 97.528712 129.04476 94.956086 123.02748 94.660156 120.39258 C 91.683594 120.81199 93.393788 125.57495 88.632812 125.74023 C 83.301272 125.66015 82.001746 130.9256 86.597656 132.42969 C 87.414964 134.80709 88.664653 134.9957 90.105469 132.68359 C 91.396845 129.14211 98.828941 128.57664 100.66602 132.09375 C 99.950179 135.99378 104.27449 136.65584 108.55859 134.86719 C 112.27315 134.57895 115.32713 136.70439 118.9707 137.03125 C 118.81559 137.75572 119.34861 138.55656 120.97266 139.20898 C 125.77774 139.32148 128.89724 141.89815 131.4043 144.12695 C 135.71136 144.31742 139.07454 141.60275 143.2793 141.92578 C 147.60643 143.71443 151.97498 143.05237 151.25195 139.15234 C 153.10748 135.63523 160.61557 136.20266 161.91992 139.74414 C 163.37521 142.05625 164.63542 141.86763 165.46094 139.49023 C 170.10302 137.98614 168.79329 132.71875 163.4082 132.79883 C 158.59939 132.63355 160.32483 127.87058 157.31836 127.45117 C 157.01946 130.08607 154.42122 136.10336 149.24414 132.83594 C 146.16533 130.58891 150.24557 126.99654 147.375 124.83984 C 146.1694 127.98932 148.11345 132.09099 142.30859 133.55664 C 141.83189 133.88888 141.44405 134.28432 141.18945 134.71875 C 141.49364 130.8613 137.74225 127.44722 138.32227 123.57422 C 137.1482 121.02767 132.31228 127.19963 133.72852 128.95508 C 136.30903 130.40974 134.93053 132.02787 132.29297 131.08789 C 133.73254 129.39327 130.62878 127.51193 127.38086 128.12109 C 125.80123 126.08287 125.35671 121.12519 120.2168 123.69336 C 117.11912 125.29059 115.21581 123.48868 118.01562 121.89453 C 119.15488 120.46823 116.20639 116.12624 114.4375 115.91406 z M 125.21484 133.52539 C 124.91383 134.14155 124.61866 134.73564 124.26953 135.18164 C 123.74349 135.08396 123.22328 135.05293 122.72266 135.07227 C 123.48404 134.50477 124.31092 133.97838 125.21484 133.52539 z "
           transform="translate(0,752.36218)"
           id="path4241" />
        <path
           style="fill:#008000;fill-rule:evenodd;stroke:none;stroke-width:1px;stroke-linecap:butt;stroke-linejoin:miter;stroke-opacity:1"
           d="m 144.63872,869.40532 c 0.2104,-3.85745 -2.38395,-7.27237 -1.98277,-11.14537 -0.81206,-2.54655 -4.15744,3.62551 -3.17788,5.38096 1.95599,1.59415 0.62662,3.39532 -1.53745,1.79809 -3.5908,-2.56817 -3.9011,2.3897 -5.00465,4.42792 -2.76805,-0.74313 -5.39549,2.21938 -2.28008,4.02886 3.3235,0.1125 5.48109,2.68901 7.21513,4.91781 2.97903,0.19047 5.30508,-2.52381 8.21335,-2.20078 2.99292,1.78865 6.01407,1.1267 5.51398,-2.77333 1.2834,-3.51711 6.47646,-2.9509 7.37863,0.59058 1.00657,2.31211 1.87847,2.12324 2.44945,-0.25416 3.21075,-1.50409 2.30391,-6.77087 -1.42076,-6.69079 -3.32607,-0.16528 -2.13239,-4.92748 -4.21185,-5.34689 -0.20674,2.6349 -2.00338,8.65224 -5.58417,5.38482 -2.1295,-2.24703 0.6921,-5.84031 -1.29337,-7.99701 -0.83387,3.14948 0.51091,7.25164 -3.50409,8.71729 -0.32972,0.33224 -0.59737,0.72757 -0.77347,1.162 z"
           id="path4241-6"
           inkscape:connector-curvature="0" />
        <path
           style="fill:#008000;fill-rule:evenodd;stroke:none;stroke-width:1px;stroke-linecap:butt;stroke-linejoin:miter;stroke-opacity:1"
           d="m 174.58963,855.27288 c 0.2104,-5.02047 -2.38395,-9.46499 -1.98277,-14.5057 -0.81206,-3.31433 -4.15744,4.7186 -3.17788,7.00332 1.95599,2.07479 0.62662,4.41901 -1.53745,2.34022 -3.5908,-3.34248 -3.9011,3.11019 -5.00465,5.76293 -2.76806,-0.96718 -5.39549,2.88852 -2.28008,5.24356 3.3235,0.14642 5.48109,3.49975 7.21513,6.40053 2.97903,0.2479 5.30508,-3.28474 8.21335,-2.86432 2.99292,2.32793 6.01407,1.4664 5.51398,-3.60948 1.2834,-4.57752 6.47646,-3.8406 7.37863,0.76864 1.00657,3.00921 1.87847,2.76339 2.44945,-0.33079 3.21075,-1.95758 2.30391,-8.81229 -1.42076,-8.70806 -3.32607,-0.21512 -2.13239,-6.41312 -4.21185,-6.95898 -0.20674,3.42932 -2.00338,11.26089 -5.58417,7.00834 -2.1295,-2.92451 0.6921,-7.60116 -1.29337,-10.4081 -0.83387,4.09904 0.51091,9.438 -3.50409,11.34555 -0.32972,0.43241 -0.59737,0.94693 -0.77347,1.51234 z"
           id="path4241-8"
           inkscape:connector-curvature="0" />
        <path
           style="fill:#008000;fill-rule:evenodd;stroke:none;stroke-width:1px;stroke-linecap:butt;stroke-linejoin:miter;stroke-opacity:1"
           d="m 194.80524,878.73429 c 0.29209,-3.85745 -3.30957,-7.27237 -2.75262,-11.14537 -1.12736,-2.54655 -5.77166,3.62551 -4.41176,5.38096 2.71544,1.59415 0.86992,3.39532 -2.1344,1.79809 -4.985,-2.56817 -5.41578,2.3897 -6.9478,4.42792 -3.84281,-0.74313 -7.4904,2.21938 -3.16537,4.02886 4.61391,0.1125 7.60923,2.68901 10.01655,4.91781 4.1357,0.19047 7.36488,-2.52381 11.40235,-2.20078 4.15498,1.78865 8.34915,1.1267 7.65489,-2.77333 1.78171,-3.51711 8.99108,-2.9509 10.24354,0.59058 1.39739,2.31211 2.60782,2.12324 3.40049,-0.25416 4.45739,-1.50409 3.19845,-6.77087 -1.97239,-6.69079 -4.61749,-0.16528 -2.96034,-4.92748 -5.84719,-5.34689 -0.28701,2.6349 -2.78123,8.65224 -7.75234,5.38482 -2.95632,-2.24703 0.96082,-5.84031 -1.79554,-7.99701 -1.15764,3.14948 0.70928,7.25164 -4.86463,8.71729 -0.45774,0.33224 -0.82931,0.72757 -1.07378,1.162 z"
           id="path4241-2"
           inkscape:connector-curvature="0" />
        <path
           style="fill:#008000;fill-rule:evenodd;stroke:none;stroke-width:1px;stroke-linecap:butt;stroke-linejoin:miter;stroke-opacity:1"
           d="m 257.71999,916.83841 c 0.40466,-0.0369 0.74821,0.0912 0.96427,0.45057 -0.56926,2.9148 3.11079,5.48573 2.81223,8.38882 0.2499,-0.32694 0.62918,-0.62496 1.09704,-0.87501 5.69707,-1.10303 3.79044,-4.19015 4.97366,-6.56044 2.81727,1.62313 -1.18674,4.32736 1.83492,6.01846 5.08092,2.45905 7.62968,-2.06992 7.92302,-4.05294 2.95065,0.31565 1.25759,3.90024 5.9771,4.02464 5.28511,-0.0603 6.57148,3.90264 2.01558,5.03461 -0.81016,1.78922 -2.04786,1.93162 -3.47612,0.19154 -1.28014,-2.66531 -8.64864,-3.09101 -10.46971,-0.44404 0.70959,2.93514 -3.57829,3.43354 -7.82507,2.08741 -0.98389,-0.058 -1.91813,0.0197 -2.83184,0.16107 0.56286,0.19825 1.23395,0.33126 2.07871,0.35697 6.77742,-0.0893 8.42815,5.781 2.58587,7.45723 -1.03896,2.64948 -2.62624,2.85969 -4.45779,0.28297 -1.56003,-3.75069 -10.15821,-4.49744 -13.01422,-1.19935 0.66361,0.6653 0.99567,1.77514 0.79012,3.37817 1.43028,3.91963 7.21799,3.28727 8.22341,-0.65952 1.12177,-2.57673 2.09319,-2.36653 2.72953,0.28296 3.5782,1.67623 2.56851,7.54647 -1.58244,7.45722 -3.70673,0.1842 -2.3776,5.49228 -4.69505,5.95969 -0.2304,-2.93646 -2.23245,-9.64241 -6.22305,-6.00104 -2.37322,2.50419 0.77176,6.50769 -1.44095,8.91122 -0.9293,-3.50993 0.56959,-8.08102 -3.90492,-9.71441 -0.36746,-0.37026 -0.66569,-0.81096 -0.86195,-1.29511 0.23448,4.29893 -2.65858,8.10374 -2.21149,12.42 -0.90499,2.83799 -4.63308,-4.04033 -3.54141,-5.99669 2.17985,-1.7766 0.69872,-3.78254 -1.71303,-2.00252 -4.00176,2.86209 -4.34674,-2.66299 -5.57659,-4.93448 -1.82133,0.48896 -3.57791,-0.46555 -4.00505,-1.74132 -0.45198,0.0257 -0.90954,0.0379 -1.37782,0.0196 -3.15526,-2.48388 -7.07997,-5.35544 -13.1274,-5.48082 -5.66881,-2.01657 -0.88805,-5.31644 4.14869,-4.48826 2.00802,-2.27149 2.57332,-7.79657 9.10714,-4.93448 3.93774,1.78003 6.35611,-0.22811 2.79699,-2.0047 -1.7824,-1.95636 4.30357,-8.83469 5.7812,-5.99669 -0.72999,4.31625 3.99173,8.12108 3.60889,12.42 0.32043,-0.48414 0.80834,-0.92484 1.40831,-1.29511 3.20394,-0.71633 4.53177,-1.99742 5.14126,-3.50659 -2.8669,-0.99236 -1.74154,-2.3658 0.56157,-2.84271 0.11322,-1.14578 0.21342,-2.30293 0.67259,-3.36511 1.34727,0.89633 1.47726,2.01672 1.31252,3.1975 0.31736,0.01 0.6375,0.03 0.96208,0.0762 1.56587,-1.53395 2.00728,-5.26524 7.10243,-3.33245 3.07069,1.20206 4.95645,-0.15197 2.181,-1.35172 -1.12932,-1.07343 1.79229,-4.34164 3.54577,-4.50132 z m -14.27014,12.35034 c 0.0434,0.89979 0.39911,1.75092 1.5193,2.47486 2.43885,1.36301 4.42288,1.27501 5.97057,0.47886 -1.95575,-1.27578 -4.28559,-2.5502 -7.48987,-2.95372 z"
           id="path4241-2-7"
           inkscape:connector-curvature="0" />
        <path
           style="fill:#008000;fill-rule:evenodd;stroke:none;stroke-width:1px;stroke-linecap:butt;stroke-linejoin:miter;stroke-opacity:1"
           d="m 204.05076,959.90104 c 0.97776,-4.65516 4.53664,-8.08491 5.33437,-12.80607 1.56657,-2.83672 2.91638,5.35979 1.42988,7.2109 -2.38286,1.41587 -1.64694,3.89562 0.9384,2.52782 4.26468,-2.17162 3.04662,3.82143 3.49121,6.5279 2.90874,-0.19849 4.54624,3.98977 0.97442,5.3743 -3.25359,-0.69211 -6.13262,1.84581 -8.49489,4.07415 -2.94382,-0.51343 -4.36543,-4.33055 -7.28132,-4.66821 -3.4468,1.39013 -6.17032,-0.1509 -4.49134,-4.68022 -0.16579,-4.51585 -5.3692,-5.13142 -7.32781,-1.12991 -1.68316,2.50862 -2.46983,2.06647 -2.29468,-0.9123 -2.64921,-2.59305 -0.15761,-8.65209 3.42556,-7.63043 3.27224,0.62976 3.57473,-5.34946 5.71735,-5.33288 -0.60683,3.19546 -0.70974,10.82228 3.75942,7.81379 2.7509,-2.15175 1.11854,-7.14094 3.70226,-9.22073 -0.15701,3.9654 -2.71606,8.52589 0.72392,11.27303 0.2176,0.47843 0.35575,1.01669 0.39325,1.57886 z"
           id="path4241-2-72"
           inkscape:connector-curvature="0" />
        <path
           style="fill:#008000;fill-rule:evenodd;stroke:none;stroke-width:1px;stroke-linecap:butt;stroke-linejoin:miter;stroke-opacity:1"
           d="m 161.74425,976.55487 c -0.2104,-2.60496 2.38395,-4.91109 1.98277,-7.52656 0.81206,-1.7197 4.15744,2.44834 3.17788,3.63381 -1.95599,1.07654 -0.62662,2.29289 1.53745,1.21426 3.5908,-1.7343 3.9011,1.61379 5.00465,2.99021 2.76805,-0.50184 5.39549,1.49877 2.28008,2.72073 -3.3235,0.076 -5.48109,1.81591 -7.21513,3.32103 -2.97903,0.12863 -5.30508,-1.70435 -8.21335,-1.4862 -2.99292,1.20789 -6.01407,0.76087 -5.51398,-1.87285 -1.2834,-2.37514 -6.47646,-1.99277 -7.37863,0.39882 -1.00657,1.56139 -1.87847,1.43384 -2.44945,-0.17164 -3.21075,-1.01572 -2.30391,-4.57242 1.42076,-4.51834 3.32607,-0.11162 2.13239,-3.32757 4.21185,-3.6108 0.20674,1.77937 2.00338,5.84293 5.58417,3.63641 2.1295,-1.51743 -0.6921,-3.944 1.29337,-5.40044 0.83387,2.12687 -0.51091,4.89709 3.50409,5.88685 0.32972,0.22437 0.59737,0.49134 0.77347,0.78471 z"
           id="path4241-2-65"
           inkscape:connector-curvature="0" />
        <path
           style="fill:#008000;fill-rule:evenodd;stroke:none;stroke-width:1px;stroke-linecap:butt;stroke-linejoin:miter;stroke-opacity:1"
           d="m 252.48157,980.37095 c 0.35563,-3.85745 -4.02949,-7.27237 -3.3514,-11.14537 -1.37259,-2.54655 -7.02714,3.62551 -5.37144,5.38096 3.30613,1.59415 1.05915,3.39532 -2.59868,1.79809 -6.06938,-2.56817 -6.59387,2.3897 -8.45915,4.42792 -4.67872,-0.74313 -9.11978,2.21938 -3.85393,4.02886 5.61758,0.1125 9.26446,2.68901 12.19544,4.91781 5.03533,0.19047 8.96695,-2.52381 13.88268,-2.20078 5.05881,1.78865 10.16533,1.1267 9.32005,-2.77333 2.16928,-3.51711 10.94689,-2.9509 12.47179,0.59058 1.70136,2.31211 3.1751,2.12324 4.1402,-0.25416 5.427,-1.50409 3.89421,-6.77087 -2.40145,-6.69079 -5.62192,-0.16528 -3.60429,-4.92748 -7.11911,-5.34689 -0.34945,2.6349 -3.38623,8.65224 -9.43869,5.38482 -3.59941,-2.24703 1.16982,-5.84031 -2.18613,-7.99701 -1.40946,3.14948 0.86357,7.25164 -5.92282,8.71729 -0.55731,0.33224 -1.00971,0.72757 -1.30736,1.162 z"
           id="path4241-2-5"
           inkscape:connector-curvature="0" />
        <path
           style="fill:#008000;fill-rule:evenodd;stroke:none;stroke-width:1px;stroke-linecap:butt;stroke-linejoin:miter;stroke-opacity:1"
           d="m 223.11904,908.6852 c -0.2104,-3.85745 2.38395,-7.27237 1.98277,-11.14537 0.81206,-2.54655 4.15744,3.62551 3.17788,5.38096 -1.95599,1.59415 -0.62662,3.39532 1.53745,1.79809 3.5908,-2.56817 3.9011,2.3897 5.00465,4.42792 2.76805,-0.74313 5.39549,2.21938 2.28008,4.02886 -3.3235,0.1125 -5.48109,2.68901 -7.21513,4.91781 -2.97903,0.19047 -5.30508,-2.52381 -8.21335,-2.20078 -2.99292,1.78865 -6.01407,1.1267 -5.51398,-2.77333 -1.2834,-3.51711 -6.47646,-2.9509 -7.37863,0.59058 -1.00657,2.31211 -1.87847,2.12324 -2.44945,-0.25416 -3.21075,-1.50409 -2.30391,-6.77087 1.42076,-6.69079 3.32607,-0.16528 2.13239,-4.92748 4.21185,-5.34689 0.20674,2.6349 2.00338,8.65224 5.58417,5.38482 2.1295,-2.24703 -0.6921,-5.84031 1.29337,-7.99701 0.83387,3.14948 -0.51091,7.25164 3.50409,8.71729 0.32972,0.33224 0.59737,0.72757 0.77347,1.162 z"
           id="path4241-2-0"
           inkscape:connector-curvature="0" />
        <path
           style="fill:#008000;fill-rule:evenodd;stroke:none;stroke-width:1px;stroke-linecap:butt;stroke-linejoin:miter;stroke-opacity:1"
           d="m 121.82193,895.9713 c -0.40466,-0.0369 -0.74821,0.0912 -0.96427,0.45057 0.56926,2.9148 -3.11079,5.48573 -2.81223,8.38882 -0.2499,-0.32694 -0.62918,-0.62496 -1.09704,-0.87501 -5.69707,-1.10303 -3.79044,-4.19015 -4.97366,-6.56044 -2.81728,1.62313 1.18674,4.32736 -1.83493,6.01846 -5.08092,2.45905 -7.62968,-2.06992 -7.92302,-4.05294 -2.950647,0.31565 -1.25759,3.90024 -5.977097,4.02464 -5.28511,-0.0603 -6.57148,3.90264 -2.01558,5.03461 0.81016,1.78922 2.04786,1.93162 3.47612,0.19154 1.28014,-2.66531 8.648637,-3.09101 10.469707,-0.44404 -0.70959,2.93514 3.5783,3.43354 7.82508,2.08741 0.98389,-0.058 1.91813,0.0197 2.83184,0.16107 -0.56286,0.19825 -1.23395,0.33126 -2.07871,0.35697 -6.77743,-0.0893 -8.42816,5.781 -2.58587,7.45723 1.03896,2.64948 2.62624,2.85969 4.45779,0.28297 1.56003,-3.75069 10.15821,-4.49744 13.01422,-1.19935 -0.66361,0.6653 -0.99567,1.77514 -0.79012,3.37817 -1.43028,3.91963 -7.21799,3.28727 -8.22341,-0.65952 -1.12177,-2.57673 -2.09319,-2.36653 -2.72953,0.28296 -3.5782,1.67623 -2.56851,7.54647 1.58244,7.45722 3.70673,0.1842 2.3776,5.49228 4.69505,5.95969 0.2304,-2.93646 2.23245,-9.64241 6.22305,-6.00104 2.37322,2.50419 -0.77176,6.50769 1.44095,8.91122 0.9293,-3.50993 -0.56959,-8.08102 3.90492,-9.71441 0.36746,-0.37026 0.66569,-0.81096 0.86195,-1.29511 -0.23448,4.29893 2.65858,8.10374 2.21149,12.42 0.90499,2.83799 4.63308,-4.04033 3.54141,-5.99669 -2.17985,-1.7766 -0.69872,-3.78254 1.71303,-2.00252 4.00176,2.86209 4.34674,-2.66299 5.57659,-4.93448 1.82133,0.48896 3.57791,-0.46555 4.00505,-1.74132 0.45198,0.0257 0.90954,0.0379 1.37782,0.0196 3.15526,-2.48388 7.07997,-5.35544 13.1274,-5.48082 5.66881,-2.01657 0.88805,-5.31644 -4.14869,-4.48826 -2.00802,-2.27149 -2.57332,-7.79657 -9.10714,-4.93448 -3.93774,1.78003 -6.35611,-0.22811 -2.79699,-2.0047 1.7824,-1.95636 -4.30357,-8.83469 -5.7812,-5.99669 0.72999,4.31625 -3.99173,8.12108 -3.60889,12.42 -0.32043,-0.48414 -0.80834,-0.92484 -1.40831,-1.29511 -3.20394,-0.71633 -4.53177,-1.99742 -5.14126,-3.50659 2.8669,-0.99236 1.74154,-2.3658 -0.56157,-2.84271 -0.11322,-1.14578 -0.21342,-2.30293 -0.67259,-3.36511 -1.34727,0.89633 -1.47726,2.01672 -1.31252,3.1975 -0.31736,0.01 -0.6375,0.03 -0.96208,0.0762 -1.56587,-1.53395 -2.00728,-5.26524 -7.10243,-3.33245 -3.07069,1.20206 -4.95645,-0.15197 -2.181,-1.35172 1.12932,-1.07343 -1.79229,-4.34164 -3.54577,-4.50132 z m 14.27014,12.35034 c -0.0434,0.89979 -0.39911,1.75092 -1.5193,2.47486 -2.43885,1.36301 -4.42288,1.27501 -5.97057,0.47886 1.95575,-1.27578 4.28559,-2.5502 7.48987,-2.95372 z"
           id="path4241-2-7-3"
           inkscape:connector-curvature="0" />
      </g>
    </g>
  </g>
</svg>
