<?xml version="1.0" encoding="UTF-8" standalone="no"?>
<!-- Created with Inkscape (http://www.inkscape.org/) -->

<svg
   version="1.1"
   id="svg1"
   width="1486.6667"
   height="833.33331"
   viewBox="0 0 1486.6667 833.33331"
   sodipodi:docname="logo.svg"
   inkscape:version="1.3 (0e150ed, 2023-07-21)"
   xmlns:inkscape="http://www.inkscape.org/namespaces/inkscape"
   xmlns:sodipodi="http://sodipodi.sourceforge.net/DTD/sodipodi-0.dtd"
   xmlns="http://www.w3.org/2000/svg"
   xmlns:svg="http://www.w3.org/2000/svg">
  <defs
     id="defs1" />
  <sodipodi:namedview
     id="namedview1"
     pagecolor="#ffffff"
     bordercolor="#999999"
     borderopacity="1"
     inkscape:showpageshadow="0"
     inkscape:pageopacity="0"
     inkscape:pagecheckerboard="0"
     inkscape:deskcolor="#d1d1d1"
     inkscape:zoom="0.30916102"
     inkscape:cx="873.33131"
     inkscape:cy="347.71525"
     inkscape:current-layer="g1" />
  <g
     inkscape:groupmode="layer"
     inkscape:label="Image"
     id="g1">
    <g
       id="g11"
       transform="translate(-39.056764,104)">
      <text
         xml:space="preserve"
         style="font-style:normal;font-variant:normal;font-weight:normal;font-stretch:normal;font-size:249.47px;line-height:1.25;font-family:'Arial Black';-inkscape-font-specification:'Arial Black, ';letter-spacing:0px;word-spacing:0px;fill:#00ff00;stroke-width:7.79596"
         x="130.37247"
         y="600.172"
         id="text1"
         transform="scale(0.9002691,1.110779)"><tspan
           sodipodi:role="line"
           id="tspan1"
           x="130.37247"
           y="600.172"
           style="font-style:normal;font-variant:normal;font-weight:normal;font-stretch:normal;font-family:'Arial Black';-inkscape-font-specification:'Arial Black, ';fill:#00ff00;stroke-width:7.79596">JWC</tspan></text>
      <text
         xml:space="preserve"
         style="font-style:normal;font-variant:normal;font-weight:normal;font-stretch:normal;font-size:196.798px;line-height:1.25;font-family:'Arial Black';-inkscape-font-specification:'Arial Black, ';letter-spacing:0px;word-spacing:0px;fill:#ff00ff;stroke-width:6.14994"
         x="1117.9473"
         y="473.50259"
         id="text1-8"
         transform="scale(0.71019047,1.408073)"><tspan
           sodipodi:role="line"
           id="tspan1-7"
           x="1117.9473"
           y="473.50259"
           style="font-style:normal;font-variant:normal;font-weight:normal;font-stretch:normal;font-family:'Arial Black';-inkscape-font-specification:'Arial Black, ';fill:#ff00ff;stroke-width:6.14994">GARDEN</tspan></text>
    </g>
    <path
       id="path1"
       style="font-variation-settings:normal;opacity:1;fill:#00ff00;fill-opacity:1;fill-rule:evenodd;stroke:#00ff00;stroke-width:17.7961;stroke-linecap:butt;stroke-linejoin:miter;stroke-miterlimit:4;stroke-dasharray:none;stroke-dashoffset:0;stroke-opacity:1;stop-color:#000000;stop-opacity:1"
       d="M 660.42863,353.65746 A 110.7185,148.10447 78.63986 0 1 493.41618,274.28172 110.7185,148.10447 78.63986 0 1 616.81087,136.55809 110.7185,148.10447 78.63986 0 1 683.91397,135.20106 99.117597,124.45241 78.63986 0 1 785.45399,48.0505 99.117597,124.45241 78.63986 0 1 926.49501,119.03219 86.873333,151.34832 78.63986 0 1 1049.2806,179.22763 86.873333,151.34832 78.63986 0 1 918.00916,294.20982 86.873333,151.34832 78.63986 0 1 775.64698,273.30435 110.7185,148.10447 78.63986 0 1 660.42863,353.65746 Z" />
    <path
       style="opacity:1;fill:none;fill-opacity:1;stroke:#550000;stroke-width:17.7961;stroke-linecap:butt;stroke-linejoin:miter;stroke-miterlimit:4;stroke-dasharray:none;stroke-dashoffset:0;stroke-opacity:1"
       d="M 784.74428,313.71026 C 731.85572,495.09047 420.67131,614.1712 731.85572,495.09047 983.05304,398.96497 1185.4913,483.72575 989.34121,438.98617 L 847.48956,406.63142"
       id="path3"
       sodipodi:nodetypes="cssc" />
    <path
       id="path2"
       style="font-variation-settings:normal;opacity:1;fill:none;fill-opacity:1;fill-rule:evenodd;stroke:#008000;stroke-width:17.7961;stroke-linecap:butt;stroke-linejoin:miter;stroke-miterlimit:4;stroke-dasharray:none;stroke-dashoffset:0;stroke-opacity:1;stop-color:#000000;stop-opacity:1"
       d="m 1051.0308,192.58741 c 9.4496,47.03862 -49.3224,98.51767 -131.2715,114.98219 -56.44567,11.26038 -111.62088,3.15806 -142.36218,-20.90547 -18.96009,39.15936 -62.96247,69.84655 -115.21835,80.35311 -80.19333,16.11213 -154.96739,-19.42561 -167.01245,-79.37574 -12.04569,-59.95069 43.20033,-121.61203 123.39469,-137.72363 22.5198,-4.44059 45.49192,-4.90515 67.1031,-1.35703 9.70555,-41.91454 50.27888,-76.738121 101.54002,-87.150551"
       sodipodi:nodetypes="cccccccc" />
  </g>
</svg>
