<?xml version="1.0" encoding="UTF-8" standalone="no"?>
<!-- Created with Inkscape (http://www.inkscape.org/) -->

<svg
   width="300"
   height="300"
   id="svg3005"
   version="1.1"
   inkscape:version="1.3 (0e150ed, 2023-07-21)"
   sodipodi:docname="bonsai-02.svg"
   xmlns:inkscape="http://www.inkscape.org/namespaces/inkscape"
   xmlns:sodipodi="http://sodipodi.sourceforge.net/DTD/sodipodi-0.dtd"
   xmlns="http://www.w3.org/2000/svg"
   xmlns:svg="http://www.w3.org/2000/svg"
   xmlns:rdf="http://www.w3.org/1999/02/22-rdf-syntax-ns#"
   xmlns:cc="http://creativecommons.org/ns#"
   xmlns:dc="http://purl.org/dc/elements/1.1/">
  <title
     id="title3876">bonsai</title>
  <defs
     id="defs3007" />
  <sodipodi:namedview
     id="base"
     pagecolor="#ffffff"
     bordercolor="#666666"
     borderopacity="1.0"
     inkscape:pageopacity="0.0"
     inkscape:pageshadow="2"
     inkscape:zoom="1.99"
     inkscape:cx="150.25126"
     inkscape:cy="140.95477"
     inkscape:document-units="px"
     inkscape:current-layer="layer1"
     showgrid="false"
     inkscape:window-width="1215"
     inkscape:window-height="776"
     inkscape:window-x="65"
     inkscape:window-y="24"
     inkscape:window-maximized="1"
     showguides="true"
     inkscape:guide-bbox="true"
     inkscape:showpageshadow="0"
     inkscape:pagecheckerboard="0"
     inkscape:deskcolor="#d1d1d1" />
  <metadata
     id="metadata3010">
    <rdf:RDF>
      <cc:Work
         rdf:about="">
        <dc:format>image/svg+xml</dc:format>
        <dc:type
           rdf:resource="http://purl.org/dc/dcmitype/StillImage" />
        <dc:title>bonsai</dc:title>
        <dc:date>Agosto 2014</dc:date>
        <dc:creator>
          <cc:Agent>
            <dc:title>jpenrici</dc:title>
          </cc:Agent>
        </dc:creator>
        <dc:publisher>
          <cc:Agent>
            <dc:title>Open Clip Art Library</dc:title>
          </cc:Agent>
        </dc:publisher>
        <cc:license
           rdf:resource="http://creativecommons.org/licenses/publicdomain/" />
        <dc:subject>
          <rdf:Bag>
            <rdf:li>plant</rdf:li>
            <rdf:li>flora</rdf:li>
            <rdf:li>nature</rdf:li>
            <rdf:li>clip art</rdf:li>
            <rdf:li>clipart</rdf:li>
            <rdf:li>svg</rdf:li>
          </rdf:Bag>
        </dc:subject>
        <dc:description>Bonsai</dc:description>
      </cc:Work>
      <cc:License
         rdf:about="http://creativecommons.org/licenses/publicdomain/">
        <cc:permits
           rdf:resource="http://creativecommons.org/ns#Reproduction" />
        <cc:permits
           rdf:resource="http://creativecommons.org/ns#Distribution" />
        <cc:permits
           rdf:resource="http://creativecommons.org/ns#DerivativeWorks" />
      </cc:License>
    </rdf:RDF>
  </metadata>
  <g
     inkscape:label="Camada 1"
     inkscape:groupmode="layer"
     id="layer1"
     transform="translate(0,-752.36218)">
    <g
       id="g3880"
       transform="translate(-1.5075378,-1.7022079)">
      <path
         sodipodi:nodetypes="sscsccccccss"
         inkscape:connector-curvature="0"
         id="path3022"
         d="m 75.21487,959.02709 c 64.29072,-4.48703 144.2973,8.69996 194.47236,-0.5025 20.4471,-3.75015 5.01807,42.78001 -35.17588,45.72861 0,0 -4.5568,10.6422 -7.03517,11.0553 -3.01507,0.5025 -34.67338,0 -34.67338,0 l -2.51255,-8.0401 -87.93971,-1e-4 -5.025118,8.0402 -35.678391,0 -3.517588,-9.5478 C 23.31836,1000.6758 27.627686,989.35366 15.918388,978.62508 2.8477294,966.64916 24.976377,962.53338 75.21487,959.02709 z"
         style="fill:#000000;stroke:none" />
      <path
         sodipodi:nodetypes="cacccc"
         inkscape:connector-curvature="0"
         id="path3024"
         d="m 18.430951,969.07734 c 15.978739,-4.21233 27.787943,-4.79791 41.708543,-7.03518 24.091325,-3.87187 47.985586,-9.96753 72.361806,-11.05527 -0.0405,0.439 148.47292,9.45701 145.72864,12.56281 -15.30656,15.06222 -76.22243,-3.50382 -142.71356,11.05528 -16.33463,-0.49247 -107.715368,6.5139 -117.085429,-5.52764 z"
         style="fill:#005500;stroke:none" />
      <path
         inkscape:connector-curvature="0"
         id="path3052"
         d="m 195.79417,864.99003 c -7.08762,6.4787 -16.79545,9.4824 -23.35792,16.63218 -2.46643,2.45496 -3.29745,6.65245 -0.86888,9.43661 3.32832,4.64956 10.4801,6.11372 15.15769,2.62055 4.80368,-3.20904 7.80421,-8.29886 11.82543,-12.32602 8.85978,-1.75812 17.39811,2.4672 24.82795,6.84766 7.31245,4.14066 14.77802,9.21603 23.48538,9.34285 5.40593,0.16299 10.84995,-3.3345 12.08284,-8.76721 2.23372,-8.778 -2.61428,-18.97576 -11.04443,-22.46814 -3.16546,-3.24799 -9.24614,-4.62307 -12.62419,-0.97761 -2.36079,3.43135 1.98809,6.56386 4.84844,7.68214 -2.32812,3.39526 -6.69305,1.21056 -9.6001,-0.13012 -4.39059,-2.02244 -9.61236,-4.87479 -14.41036,-2.42244 -3.75626,1.73015 -8.30244,1.96641 -12.30976,0.89572 -3.38231,-0.97639 -6.16617,-3.41872 -8.01209,-6.36617 z"
         style="fill:#55d400;stroke:none" />
      <path
         inkscape:connector-curvature="0"
         id="path3031"
         d="m 121.13792,788.49003 c -15.81049,-1.29642 -8.88492,18.72735 -6.08946,25.99195 -5.29413,8.96986 -21.166433,11.05847 -25.731316,0.33118 -0.470453,-9.07882 -2.706527,-27.54209 -16.108441,-21.5968 -10.049717,10.42941 10.22312,20.06662 5.792686,31.78069 -7.92895,12.10221 7.83905,19.30817 13.633994,27.74309 4.571338,8.04093 0.330422,19.5244 -8.949344,21.69716 -7.940188,3.47305 -17.77414,1.20105 -25.017612,5.84757 -10.116046,9.55787 -8.750686,27.13829 -21.745943,34.28901 -11.712758,7.97246 -0.266071,29.50526 10.675528,16.01673 13.438935,-9.07242 31.153065,-0.28774 44.72604,-9.11502 9.772008,-5.03382 23.188778,-10.62239 24.281798,-23.16583 1.39548,-13.65873 -13.85175,-11.35154 -18.20616,-1.96275 -2.317415,3.44219 -7.118139,8.11432 -3.478603,0.49615 3.185625,-14.13736 19.565923,-11.25178 30.365743,-12.28354 -4.37201,-11.12951 6.97672,-23.0173 0.30024,-33.62206 -6.05622,-1.80279 -11.42898,-15.83571 -0.83339,-11.39563 6.23927,6.5634 8.43598,16.36679 15.52978,22.82985 9.19387,11.42333 11.27159,-4.92474 15.67872,-10.67419 8.83231,-10.67933 21.59928,-17.07984 33.58495,-23.49468 14.83127,-5.88661 32.88887,-7.04235 46.82875,1.78641 0.88264,13.83252 -15.59201,-2.56225 -22.79724,-0.6264 -16.14962,0.0279 -32.5797,5.98777 -43.7761,17.99125 -6.61974,7.5164 -20.04893,24.46591 -7.36911,31.68587 10.28114,0.88663 19.10554,-6.64018 25.28543,-13.92734 1.81388,-7.96761 -15.38099,-8.42142 -3.89321,-15.42434 13.2257,-10.90356 31.67058,-6.26872 46.96282,-3.51276 8.71871,0.0736 16.50444,4.17385 22.97963,9.81882 5.53785,5.67118 20.45436,10.87614 17.54966,-2.31728 -0.73525,-10.39754 17.53866,-2.20597 12.11847,-15.13819 -0.10468,-10.89935 -4.79953,-17.44048 -14.9593,-22.02521 -9.17735,-8.06707 -25.647,-1.96689 -29.5036,-16.39164 -2.42276,-9.31484 -10.54898,-5.70249 -13.29103,1.04144 -9.75894,6.77707 -16.55651,-11.12322 -26.84734,-6.87651 -8.05725,5.47552 -11.55294,15.52153 -18.87412,21.93123 -5.69117,5.78428 -16.90043,12.32634 -23.72754,5.14701 -5.5957,-7.73593 -12.90023,-2.43169 -18.82266,-0.70306 -10.41091,-1.9799 -6.85952,-14.93302 -7.70213,-22.47262 -0.056,-4.99036 -3.08161,-9.80192 -8.57059,-9.69956 z"
         style="fill:#55d400;stroke:none" />
      <path
         inkscape:connector-curvature="0"
         id="path3026"
         d="m 82.250046,960.53463 c 24.592754,-3.27899 47.010424,-21.42528 54.310694,-45.26524 3.24141,-10.21239 -5.30924,-18.24068 -14.65761,-19.49041 -6.14048,-5.56311 -16.99115,-12.21789 -21.60439,-1.37921 -1.82487,3.36501 -12.308958,16.02683 -7.184599,5.77603 3.87605,-7.63223 9.656989,-16.40169 19.136829,-16.8312 7.66617,1.33685 15.40551,13.25235 23.13259,6.53849 0.84559,-6.74654 -20.69528,-10.81639 -10.07119,-20.76987 8.72479,-7.80161 -0.24172,-19.0847 -6.58782,-25.05889 -4.58182,-6.76077 6.27851,-11.41122 7.56146,-2.67722 3.98338,8.11532 13.63968,17.56757 7.53211,26.90598 -7.5413,6.78686 2.54878,20.37753 10.45103,15.88285 6.45905,-10.79967 3.04642,-26.31897 13.68814,-34.86352 8.72744,-6.60363 17.37015,-13.46053 26.6495,-19.24518 11.7229,-5.63657 25.33658,-7.32118 38.15977,-5.61373 5.64401,0.16415 21.85054,7.95942 13.54633,13.02673 -8.02251,-3.22209 -15.68134,-8.21395 -24.86689,-7.5237 -25.45154,-1.27046 -49.95259,18.15348 -55.19717,42.9408 0.40451,12.51744 16.00587,7.17448 21.15409,0.89284 8.49035,-5.94564 15.10722,-14.46089 24.2283,-19.45001 11.11063,-3.54275 21.86932,3.89967 29.46157,11.3238 1.75454,4.16205 16.66871,6.08467 7.78276,10.44121 -11.94236,-1.6161 -18.2091,-16.24806 -30.97027,-15.21157 -20.20101,2.84505 -31.12069,23.50649 -50.30599,28.79989 -9.12249,2.30289 -14.16191,10.57942 -15.26404,19.38482 -1.99538,9.46826 -3.81356,19.05895 -4.80328,28.66136 0.79916,9.87928 12.15885,12.9394 20.35238,13.99063 18.28186,1.8204 36.68782,2.85521 54.91051,5.04436 3.85595,0.32802 9.64996,4.75938 1.8703,3.06478 -28.76361,-0.95594 -57.23412,-6.08419 -85.99027,-6.91109 -14.35414,1.32409 -27.20399,9.27649 -41.711386,9.92532 -13.007852,1.47093 -26.366271,2.82135 -39.317875,2.39416 11.414022,-1.94911 23.199109,-2.34282 34.604417,-4.70321 z"
         style="fill:#803300;stroke:none" />
      <path
         sodipodi:nodetypes="cscccc"
         inkscape:connector-curvature="0"
         id="path3097"
         d="m 89.447236,960.90489 c -36.151676,7.4916 -3.531846,7.67922 -1.31837,6.90763 27.375154,-9.54265 31.429404,-14.8471 75.724064,-8.95689 5.97743,1.95614 31.57931,-2.06849 12.62785,-2.22045 -23.07581,-1.13633 -46.79469,-8.03848 -69.3913,0.31533 -5.81111,1.59535 -11.643022,3.23598 -17.642244,3.95438 z"
         style="fill:#465e36;fill-opacity:1;stroke:none" />
    </g>
  </g>
</svg>
