<?xml version="1.0" encoding="UTF-8" standalone="no"?>
<!-- Created with Inkscape (http://www.inkscape.org/) -->

<svg
   width="300"
   height="300"
   id="svg3005"
   version="1.1"
   inkscape:version="1.3 (0e150ed, 2023-07-21)"
   sodipodi:docname="bonsai-04.svg"
   xmlns:inkscape="http://www.inkscape.org/namespaces/inkscape"
   xmlns:sodipodi="http://sodipodi.sourceforge.net/DTD/sodipodi-0.dtd"
   xmlns="http://www.w3.org/2000/svg"
   xmlns:svg="http://www.w3.org/2000/svg"
   xmlns:rdf="http://www.w3.org/1999/02/22-rdf-syntax-ns#"
   xmlns:cc="http://creativecommons.org/ns#"
   xmlns:dc="http://purl.org/dc/elements/1.1/">
  <title
     id="title4200">Bonsai</title>
  <defs
     id="defs3007">
    <filter
       inkscape:collect="always"
       style="color-interpolation-filters:sRGB"
       id="filter5097"
       x="-0.046223771"
       width="1.0924475"
       y="-0.093383553"
       height="1.1867671">
      <feGaussianBlur
         inkscape:collect="always"
         stdDeviation="1.0219912"
         id="feGaussianBlur5099" />
    </filter>
  </defs>
  <sodipodi:namedview
     id="base"
     pagecolor="#ffffff"
     bordercolor="#666666"
     borderopacity="1.0"
     inkscape:pageopacity="0.0"
     inkscape:pageshadow="2"
     inkscape:zoom="2.0366667"
     inkscape:cx="150.2455"
     inkscape:cy="228.55973"
     inkscape:document-units="px"
     inkscape:current-layer="layer1"
     showgrid="false"
     inkscape:window-width="1215"
     inkscape:window-height="776"
     inkscape:window-x="65"
     inkscape:window-y="24"
     inkscape:window-maximized="1"
     inkscape:snap-global="false"
     inkscape:showpageshadow="0"
     inkscape:pagecheckerboard="0"
     inkscape:deskcolor="#d1d1d1" />
  <metadata
     id="metadata3010">
    <rdf:RDF>
      <cc:Work
         rdf:about="">
        <dc:format>image/svg+xml</dc:format>
        <dc:type
           rdf:resource="http://purl.org/dc/dcmitype/StillImage" />
        <dc:title>Bonsai</dc:title>
        <dc:date>Abril-2015</dc:date>
        <dc:creator>
          <cc:Agent>
            <dc:title>jpenrici</dc:title>
          </cc:Agent>
        </dc:creator>
        <dc:publisher>
          <cc:Agent>
            <dc:title>Open Clip Art Library</dc:title>
          </cc:Agent>
        </dc:publisher>
        <cc:license
           rdf:resource="http://creativecommons.org/publicdomain/zero/1.0/" />
        <dc:subject>
          <rdf:Bag>
            <rdf:li>plant</rdf:li>
            <rdf:li>flora</rdf:li>
            <rdf:li>nature</rdf:li>
            <rdf:li>clip art</rdf:li>
            <rdf:li>clipart</rdf:li>
            <rdf:li>svg</rdf:li>
          </rdf:Bag>
        </dc:subject>
      </cc:Work>
      <cc:License
         rdf:about="http://creativecommons.org/publicdomain/zero/1.0/">
        <cc:permits
           rdf:resource="http://creativecommons.org/ns#Reproduction" />
        <cc:permits
           rdf:resource="http://creativecommons.org/ns#Distribution" />
        <cc:permits
           rdf:resource="http://creativecommons.org/ns#DerivativeWorks" />
      </cc:License>
    </rdf:RDF>
  </metadata>
  <g
     inkscape:label="Camada 1"
     inkscape:groupmode="layer"
     id="layer1"
     transform="translate(0,-752.36218)">
    <g
       id="g5302">
      <g
         transform="matrix(0.95859922,0,0,0.95859922,-14.91036,43.321203)"
         id="g4966">
        <path
           sodipodi:nodetypes="sscsccccccss"
           inkscape:connector-curvature="0"
           id="path3022"
           d="m 92.268416,1000.2162 c 43.850154,-3.06043 98.419474,5.9339 132.641894,-0.34274 13.94616,-2.55783 3.42263,29.17854 -23.99207,31.18964 0,0 -3.10802,7.2587 -4.79841,7.5404 -2.05646,0.3428 -23.64934,0 -23.64934,0 l -1.71371,-5.4838 -59.9802,-10e-5 -3.42743,5.4839 -24.33482,0 -2.399207,-6.5122 c -23.743261,-3.4682 -20.804041,-11.1906 -28.790489,-18.5081 -8.914979,-8.1683 6.178095,-10.9755 40.443782,-13.367 z"
           style="fill:#000000;stroke:none" />
        <path
           sodipodi:nodetypes="cacccc"
           inkscape:connector-curvature="0"
           id="path3024"
           d="m 53.538353,1007.0711 c 10.898466,-2.8731 18.953056,-3.2725 28.447746,-4.7984 16.431739,-2.6409 32.729071,-6.79851 49.355121,-7.54041 -0.0276,0.29942 101.2675,6.45021 99.39574,8.56861 -10.44,10.2733 -51.9883,-2.3898 -97.33927,7.5404 -11.14121,-0.3359 -73.468389,4.4428 -79.859337,-3.7702 z"
           style="fill:#225500;stroke:none" />
        <path
           style="fill:#1f241c;fill-opacity:1;fill-rule:evenodd;stroke:none;stroke-width:1px;stroke-linecap:butt;stroke-linejoin:miter;stroke-opacity:1"
           d="m 80.290626,1000.3164 c -4.063832,-1.08745 -8.676104,-4.30341 -6.352144,-8.74768 -0.690126,-4.06345 1.21712,-8.08211 4.601627,-10.19286 1.060195,-4.20446 -4.742455,-9.89313 0.849697,-12.78646 4.244971,-2.19559 8.994043,-3.22775 13.468176,-4.86517 4.086161,-2.09702 8.621268,-2.78035 13.090078,-3.67227 4.40781,-0.12738 8.93287,2.81756 12.99444,-0.6126 4.78785,-3.73295 8.2165,2.89867 11.07529,5.7273 3.08088,3.9439 8.69246,2.92458 12.90657,4.71401 3.99211,2.50851 8.04557,5.74311 8.4412,10.6732 0.64526,5.37263 5.69458,7.71574 10.24641,9.57731 3.63998,1.63072 6.87683,7.60463 2.7759,10.27732 -3.49483,1.6274 -6.73733,-0.85318 -9.94872,-1.70391 -5.70916,-1.02547 -11.53123,0.0141 -17.28919,-0.35268 -5.07386,-0.0369 -10.09569,-0.29877 -14.95595,1.11292 -4.1048,-0.1386 -7.9967,1.00367 -11.22872,3.43027 -3.56597,2.1822 -8.03673,3.2831 -12.119479,1.79 -4.476091,-1.1606 -8.93049,-2.5574 -13.457419,-3.3828 -1.725511,-0.061 -3.705313,0.2513 -5.097766,-0.9859 z"
           id="path4657"
           inkscape:connector-curvature="0" />
        <path
           style="fill:#445500;fill-opacity:1;fill-rule:evenodd;stroke:none;stroke-width:1px;stroke-linecap:butt;stroke-linejoin:miter;stroke-opacity:1;filter:url(#filter5097)"
           d="m 88.581311,974.11984 c 5.059544,7.38696 -0.464895,6.00303 -1.159918,9.22228 -0.270587,2.74172 -0.07796,6.04974 2.478895,7.69966 3.767519,-2.87774 9.477778,0.2756 14.215412,0.45013 1.5043,0.68571 14.29673,-7.46937 11.92704,-9.41325 7.26137,-6.74521 12.39953,3.60543 13.96769,4.7397 3.09555,1.41712 6.19402,2.84691 9.41812,3.95224 4.50787,-0.22017 -8.27738,-12.78981 -7.807,-17.4917 -1.69995,-5.48823 -8.10785,-10.83318 -12.88971,-6.31956 -6.45765,0.14624 -14.12118,1.28764 -17.09547,0.11385 -2.493705,-0.72972 -2.177376,5.18179 -4.855773,5.33105 -2.044417,-0.63867 -7.364339,3.52462 -8.199286,1.7156 z"
           id="path4659"
           inkscape:connector-curvature="0"
           sodipodi:nodetypes="cccccccccccc" />
      </g>
      <g
         transform="matrix(0.95859922,0,0,0.95859922,-480.40398,90.181941)"
         id="g4602"
         style="fill:#818f5a;fill-opacity:1">
        <path
           sodipodi:nodetypes="ccccccccccccccccccccccccccccccccccccccccccccccccccccccccccccccccccccccccccccccccccccccccccccccccccccccccccccccccccccccccc"
           inkscape:connector-curvature="0"
           id="path4452"
           transform="translate(-39.279498,706.91457)"
           d="m 722.76172,93.863281 c -4.7805,3.29007 -1.49103,11.698989 1.54492,15.837889 11.68722,24.24094 6.43308,26.2727 -9.64844,7.27149 -6.69474,-4.26466 6.72514,-15.82784 -4.57422,-15.34961 -9.13256,-1.56519 1.41976,9.25144 -3.5371,13.34375 -2.71407,7.59223 -6.7061,-0.12771 -7.85938,-3.97461 -0.68893,-0.0326 -1.25921,0.0656 -1.73438,0.25976 0.029,-2.9581 6.9e-4,-5.91996 0.0195,-8.8789 -0.18846,-0.5154 -0.59712,-3.106042 -0.74805,-1.32813 -0.14728,1.50677 0.0157,3.32976 -0.79883,4.57617 -0.35003,2.21548 -0.0935,4.47814 -0.17187,6.71485 0.23455,1.38351 -0.53814,2.09381 -1.61717,2.20508 -1.6256,-0.74115 -2.39269,-2.54042 -3.70117,-3.68555 -0.84115,-1.06641 -1.65,-2.29812 -2.56055,-3.16211 0.25018,1.35572 1.44759,2.32248 2.30469,3.3457 1.00002,0.87054 1.44789,2.19798 2.01758,3.35156 -0.0455,1.53559 0.95455,2.5074 0.68554,4.01563 -1.526,0.38391 -3.42921,-0.36301 -5.14843,-0.082 -2.76435,-0.282 -5.85465,-3.78387 -4.45313,-1.79492 2.42791,2.53264 6.10216,6.12804 0.32227,5.27734 -2.06808,-0.53932 -14.44288,-10.47556 -13.5,-6.16211 0.69712,1.40476 2.07002,2.31903 3.10546,3.4668 5.21811,2.85489 10.10826,6.16657 14.9336,8.79297 3.00064,0.66263 4.94612,1.46407 7.86328,1.46289 1.76945,0.39394 2.92954,-1.26552 4.05664,-2.31836 0.55208,-0.66723 -1.89211,-6.58312 -1.55422,-7.34478 4.27059,4.49053 6.72823,0.0799 11.13625,1.95415 1.21079,6.12232 15.81163,5.50369 11.47266,12.89844 -5.98497,3.57856 1.21795,15.14069 -7.53711,15.27344 -9.84221,3.83762 -20.02873,23.84675 -28.27735,20.59961 -4.98468,-11.35866 -12.69087,-33.69794 -21.5664,-28.52344 -6.14798,4.07433 -5.62067,12.03536 -6.57813,18.37109 4.396,2.85384 -3.59363,7.2586 -6.55468,7.43555 -5.09404,4.85884 -3.85218,13.68485 -10.16993,17.68555 -12.82327,12.02262 -24.33551,10.48596 -40.47656,16.21289 -19.1256,9.11075 -10.73582,18.3826 -9.43164,32.02344 0.78073,3.11042 2.4335,6.36297 1.13281,9.58593 -19.59417,2.48407 -0.12671,-20.64526 -10.95703,-20.88281 -9.77472,9.29259 -15.7103,-7.10429 -19.01758,-0.62891 -5.03317,4.67387 4.48301,11.02394 1.46094,16.22461 -5.58091,6.50289 14.22852,-31.12837 11.8457,13.15625 4.68747,5.63728 8.97705,5.03969 14.73829,7.94922 2.46859,6.76093 8.90715,10.04935 15.98242,10.2461 16.44393,-0.64382 -30.72071,-18.19532 2.43359,-15.64454 6.11495,1.67377 8.48114,9.80808 15.25391,10.05079 -16.85417,-11.48898 -0.79358,-20.14138 -2.03906,-22.0625 -19.64351,0.76774 -16.50881,-4.82948 -15.2754,-12.35743 -0.65989,-17.38224 15.77907,-16.5505 28.65235,-24.51562 28.31288,0.45438 20.36349,-31.92975 32.86914,-42.68945 6.9467,6.64853 4.25306,32.19724 18.0957,27.22656 7.61654,-0.60139 10.96675,-6.74693 14.32617,-12.62695 1.80405,-13.21057 16.13365,-19.68048 19.53125,-10.57422 2.81956,-6.71691 7.68262,-23.32526 14.88672,-26.19532 -0.0726,3.80699 -2.01914,17.49769 -0.8457,21.19727 0.9856,5.6419 9.53104,5.73502 8.08203,12.09375 -0.69858,5.43928 0.82812,11.57954 5.97266,14.35742 6.69879,3.17063 12.13494,9.16598 14.45117,16.2168 -2.31809,6.63453 -11.95781,-0.9778 -17.39844,0.70117 -7.85113,0.21782 -8.16278,15.16844 -16.6582,4.96094 -0.0542,-0.042 -0.0812,-0.0823 -0.13086,-0.125 0.76711,1.62009 2.02233,2.90598 3.28711,4.15429 1.15658,0.60488 2.66438,1.3929 0.69531,2.15821 -2.28409,0.61286 -4.52646,-0.64123 -6.80664,-0.77149 -1.91975,-0.17797 -3.68752,-0.77693 -5.69922,-0.51953 -2.186,-0.0708 -4.41494,0.14523 -6.57226,-0.11328 -2.37198,-0.14207 1.32225,0.9362 1.90429,1.20899 6.35585,2.39936 -2.04008,5.06351 -4.43164,4.80664 -4.36981,-0.0907 -8.60859,0.74173 -12.35742,2.31836 -0.96095,0.99726 -4.11458,1.0957 -3.50195,2.69921 5.37316,1.10867 10.84846,-1.72573 15.60156,-1.33984 2.84922,0.001 5.69932,-0.0114 8.54883,-0.006 4.56705,0.43847 -0.4594,-12.86644 12.24414,-1.37695 1.27263,0.85146 3.17078,1.23911 4.82031,2.14648 0.65736,0.36181 4.2774,1.69524 2.01367,0.60156 -1.67211,-0.83896 -3.40769,-3.49682 -2.02929,-5.18164 3.59444,-2.26368 -5.28561,-8.91522 11.98632,-6.52148 1.73059,0.60194 3.01089,-0.57566 1.30079,-1.91406 -0.61419,-0.33493 -1.12806,-0.76939 -1.56836,-1.26758 21.23784,-6.33842 22.50413,5.01863 34.54492,13.18555 -1.49144,1.55963 2.39464,3.97311 0.64962,5.23578 -1.58642,1.25262 -8.81711,1.67665 -9.1965,3.74859 0.421,2.23208 3.16468,1.46261 4.78125,1.71289 3.78241,-1.40006 7.12541,-2.17496 10.94141,-2.2539 1.32612,0.29388 2.60244,0.83859 3.97851,0.96093 4.58588,-2.03961 9.00105,0.9632 12.33985,1.25 1.87666,0.0261 3.82848,-0.025 5.56054,-0.82812 0.99005,-0.39263 3.61996,0.44896 3.5254,-0.77344 -7.68117,0.0494 -6.70887,-7.25334 -7.48047,-7.18555 -1.31813,1.12996 -1.02516,3.72673 -3.03516,4.06446 -5.32716,0.45752 -10.18317,-0.22416 -15.02734,-1.10157 -1.36739,-0.31335 -1.345,-1.74117 -1.30274,-3.2832 3.16021,-0.69434 0.33235,-5.66024 -3.35547,-6.79687 -4.75169,-2.97876 -11.80719,-6.03756 -10.32812,-12.87696 -2.79244,-4.89143 -8.45114,-7.78946 -9.96289,-13.58984 -14.61872,-5.7574 -13.11003,-27.08526 -19.78711,-30.17383 -0.19857,-0.4527 -0.39144,-0.93514 -0.58008,-1.42969 3.88489,2.25431 7.1574,4.34408 11.54492,5.71094 3.56357,2.70752 8.2492,3.28074 11.99414,5.65039 5.58149,3.37885 13.16724,-1.50319 14.16211,2.94336 1.18303,2.40732 3.08153,4.17303 5.26367,5.66211 2.12018,1.19353 4.29634,2.45768 6.62305,3.1875 2.84479,0.10957 5.93867,0.77215 8.66406,-0.30859 -0.54584,-2.00004 -4.08663,-1.60262 -5.92382,-2.29492 -9.18082,1.30449 -10.18123,-11.93674 -16.76758,-12.09376 -3.81679,-0.75249 -15.29807,-3.16062 -15.82617,-5.67578 2.86818,-2.11525 6.37628,-3.49311 8.73828,-6.28125 1.81868,-3.2602 -2.54219,-1.1834 -3.7168,-0.19921 -2.39044,1.47863 -5.10165,2.16513 -7.82227,2.70703 -2.73578,0.28454 -4.87919,2.68792 -7.72461,2.23828 -2.17984,-1.81786 2.07661,-4.52304 2.6211,-6.63867 2.36088,-6.09762 28.12073,-4.85342 20.63182,0.46632 5.37251,-12.51134 -24.66265,-1.85538 -27.22752,-0.42531 -1.89014,1.54651 -4.24354,1.42024 -6.54297,1.11719 -2.03572,-8.35407 -1.55506,-19.3202 8.35937,-24.8418 -13.69638,-5.61566 -20.59611,23.89563 -10.55859,-25.05469 -5.09276,-4.89432 -2.95299,10.69042 -8.72266,4.24805 -4.90705,-4.46898 -1.60374,-14.359169 -8.12695,-16.499999 z m 4.65625,115.435549 c -0.0235,-0.0497 -0.0516,-0.0962 -0.0742,-0.14649 -0.96109,-1.29359 -0.74687,-0.55894 0.0742,0.14649 z"
           style="fill:#504416;fill-opacity:1;fill-rule:evenodd;stroke:none;stroke-width:1px;stroke-linecap:butt;stroke-linejoin:miter;stroke-opacity:1" />
        <path
           sodipodi:nodetypes="ccccccccccc"
           inkscape:connector-curvature="0"
           id="path4463"
           d="m 565.13406,908.38856 c -8.64123,2.48401 -1.66174,3.09844 -8.9921,7.44638 -3.86798,2.05847 -6.54901,5.5128 -5.43947,10.50195 4.16113,3.63552 7.06693,21.41085 7.85505,22.0344 -2.21271,-23.88356 -12.50189,-27.09448 1.82264,-32.72256 4.22925,-1.8966 3.67911,-5.55027 8.22083,-6.35873 9.5538,-4.69741 30.9019,-2.15073 38.52489,-7.98396 3.84458,-3.90188 4.02932,-6.58138 5.10738,-11.92559 0.65866,-2.14901 3.13661,-10.08938 2.10536,-10.33754 -1.75638,5.13013 -4.46425,14.10375 -7.24437,18.68616 -5.4486,6.94798 -34.5646,8.50666 -41.96021,10.65949 z"
           style="fill:#28220b;fill-opacity:1;fill-rule:evenodd;stroke:none;stroke-width:1px;stroke-linecap:butt;stroke-linejoin:miter;stroke-opacity:1" />
      </g>
      <g
         transform="matrix(0.95859922,0,0,0.95859922,-14.91036,43.321203)"
         id="g4925"
         style="fill:#008000;stroke:#677821">
        <path
           style="fill:#008000;fill-opacity:1;fill-rule:evenodd;stroke:#677821;stroke-width:0.37504491;stroke-linecap:butt;stroke-linejoin:miter;stroke-miterlimit:4;stroke-dasharray:none;stroke-opacity:1"
           d="m 171.81918,983.01957 c -5.21428,2.79079 -9.78797,3.32293 -14.98495,3.54811 3.88558,-1.04067 10.68556,-0.9125 13.58136,-3.52651 -4.84429,0.12686 -10.26601,-1.73705 -14.05194,-3.09692 4.09321,1.05068 7.96295,2.69059 12.598,2.31256 -3.91446,-1.08097 -6.11251,-4.03043 -8.89182,-6.34712 3.20852,1.81377 5.64028,4.85791 9.82155,5.13092 -3.24839,-2.31571 -3.63696,-5.47668 -5.36041,-8.24309 2.03432,2.5188 2.41439,5.55057 6.10669,7.55526 2.12597,-1.91125 -0.79767,-6.75494 -1.51132,-10.31523 1.21249,3.63787 4.20059,7.38011 2.72747,10.86015 2.40428,-1.68541 3.5923,-5.51094 5.18145,-8.63065 -1.30564,3.24732 -0.96507,6.98866 -4.18327,9.66204 2.78609,0.51167 4.72137,-2.35039 6.99374,-3.87578 -2.173,2.34728 -4.53297,5.00194 -8.02655,4.96626 z"
           id="path4213"
           inkscape:connector-curvature="0"
           sodipodi:nodetypes="ccccccccccccccc"
           inkscape:transform-center-x="3.0573712"
           inkscape:transform-center-y="-4.452733" />
        <path
           style="fill:#008000;fill-opacity:1;fill-rule:evenodd;stroke:#677821;stroke-width:0.37504491;stroke-linecap:butt;stroke-linejoin:miter;stroke-miterlimit:4;stroke-dasharray:none;stroke-opacity:1"
           d="m 212.50299,981.6247 c -5.86632,0.75071 -10.32962,-0.38098 -15.26602,-2.02149 4.00143,0.41143 10.30987,2.95303 13.94677,1.54178 -4.57182,-1.60677 -8.97419,-5.27942 -12.02754,-7.89849 3.45061,2.43959 6.48254,5.35019 10.94829,6.64774 -3.27279,-2.40424 -4.27624,-5.94314 -6.04821,-9.09778 2.35215,2.83756 3.54027,6.54817 7.35013,8.29245 -2.21064,-3.32079 -1.44794,-6.41287 -2.07311,-9.6117 1.00384,3.07817 0.27922,6.0465 3.01543,9.23477 2.66726,-1.02876 1.66043,-6.5961 2.26158,-10.1771 -0.16265,3.83116 1.2967,8.39223 -1.31925,11.11942 2.84689,-0.7186 5.31948,-3.87017 7.91552,-6.21933 -2.37657,2.56938 -3.39082,6.18669 -7.35013,7.53859 2.42117,1.4704 5.24888,-0.51473 7.91552,-1.13079 -2.86651,1.41944 -6.01719,3.05952 -9.26898,1.78193 z"
           id="path4213-9"
           inkscape:connector-curvature="0"
           sodipodi:nodetypes="ccccccccccccccc"
           inkscape:transform-center-x="2.4785912"
           inkscape:transform-center-y="-5.8338562" />
        <path
           style="fill:#008000;fill-opacity:1;fill-rule:evenodd;stroke:#677821;stroke-width:0.37504491;stroke-linecap:butt;stroke-linejoin:miter;stroke-miterlimit:4;stroke-dasharray:none;stroke-opacity:1"
           d="m 204.28115,975.04722 c -5.86632,0.75071 -10.32962,-0.38098 -15.26602,-2.02149 4.00143,0.41143 10.30987,2.95303 13.94677,1.54178 -4.57182,-1.60677 -8.97419,-5.27942 -12.02754,-7.89849 3.45061,2.43959 6.48254,5.35019 10.94829,6.64774 -3.27279,-2.40424 -4.27624,-5.94314 -6.04821,-9.09778 2.35215,2.83756 3.54027,6.54817 7.35013,8.29245 -2.21064,-3.32079 -1.44794,-6.41287 -2.07311,-9.6117 1.00384,3.07817 0.27922,6.0465 3.01543,9.23477 2.66726,-1.02876 1.66043,-6.5961 2.26158,-10.1771 -0.16265,3.83116 1.2967,8.39223 -1.31925,11.11942 2.84689,-0.7186 5.31948,-3.87017 7.91552,-6.21933 -2.37657,2.56938 -3.39082,6.18669 -7.35013,7.53859 2.42117,1.4704 5.24888,-0.51473 7.91552,-1.13079 -2.86651,1.41944 -6.01719,3.05952 -9.26898,1.78193 z"
           id="path4213-8"
           inkscape:connector-curvature="0"
           sodipodi:nodetypes="ccccccccccccccc"
           inkscape:transform-center-x="2.4785912"
           inkscape:transform-center-y="-5.8338562" />
        <path
           style="fill:#008000;fill-opacity:1;fill-rule:evenodd;stroke:#677821;stroke-width:0.37504491;stroke-linecap:butt;stroke-linejoin:miter;stroke-miterlimit:4;stroke-dasharray:none;stroke-opacity:1"
           d="m 199.89616,965.45506 c -5.86632,0.75071 -10.32962,-0.38098 -15.26602,-2.02149 4.00143,0.41143 10.30987,2.95303 13.94677,1.54178 -4.57182,-1.60677 -8.97419,-5.27942 -12.02754,-7.89849 3.45061,2.43959 6.48254,5.35019 10.94829,6.64774 -3.27279,-2.40424 -4.27624,-5.94314 -6.04821,-9.09778 2.35215,2.83756 3.54027,6.54817 7.35013,8.29245 -2.21064,-3.32079 -1.44794,-6.41287 -2.07311,-9.6117 1.00384,3.07817 0.27922,6.0465 3.01543,9.23477 2.66726,-1.02876 1.66043,-6.5961 2.26158,-10.1771 -0.16265,3.83116 1.2967,8.39223 -1.31925,11.11942 2.84689,-0.7186 5.31948,-3.87017 7.91552,-6.21933 -2.37657,2.56938 -3.39082,6.18669 -7.35013,7.53859 2.42117,1.4704 5.24888,-0.51473 7.91552,-1.13079 -2.86651,1.41944 -6.01719,3.05952 -9.26898,1.78193 z"
           id="path4213-3"
           inkscape:connector-curvature="0"
           sodipodi:nodetypes="ccccccccccccccc"
           inkscape:transform-center-x="2.4785912"
           inkscape:transform-center-y="-5.8338562" />
        <path
           style="fill:#008000;fill-opacity:1;fill-rule:evenodd;stroke:#677821;stroke-width:0.37504491;stroke-linecap:butt;stroke-linejoin:miter;stroke-miterlimit:4;stroke-dasharray:none;stroke-opacity:1"
           d="m 183.72653,970.11411 c -5.86632,0.75071 -10.32962,-0.38098 -15.26602,-2.02149 4.00143,0.41143 10.30987,2.95303 13.94677,1.54178 -4.57182,-1.60677 -8.97419,-5.27942 -12.02754,-7.89849 3.45061,2.43959 6.48254,5.35019 10.94829,6.64774 -3.27279,-2.40424 -4.27624,-5.94314 -6.04821,-9.09778 2.35215,2.83756 3.54027,6.54817 7.35013,8.29245 -2.21064,-3.32079 -1.44794,-6.41287 -2.07311,-9.6117 1.00384,3.07817 0.27922,6.0465 3.01543,9.23477 2.66726,-1.02876 1.66043,-6.5961 2.26158,-10.1771 -0.16265,3.83116 1.2967,8.39223 -1.31925,11.11942 2.84689,-0.7186 5.31948,-3.87017 7.91552,-6.21933 -2.37657,2.56938 -3.39082,6.18669 -7.35013,7.53859 2.42117,1.4704 5.24888,-0.51473 7.91552,-1.13079 -2.86651,1.41944 -6.01719,3.05952 -9.26898,1.78193 z"
           id="path4213-80"
           inkscape:connector-curvature="0"
           sodipodi:nodetypes="ccccccccccccccc"
           inkscape:transform-center-x="2.4785912"
           inkscape:transform-center-y="-5.8338562" />
        <path
           style="fill:#008000;fill-opacity:1;fill-rule:evenodd;stroke:#677821;stroke-width:0.37504491;stroke-linecap:butt;stroke-linejoin:miter;stroke-miterlimit:4;stroke-dasharray:none;stroke-opacity:1"
           d="m 220.72484,960.24789 c -5.86632,0.75071 -10.32962,-0.38098 -15.26602,-2.02149 4.00143,0.41143 10.30987,2.95303 13.94677,1.54178 -4.57182,-1.60677 -8.97419,-5.27942 -12.02754,-7.89849 3.45061,2.43959 6.48254,5.35019 10.94829,6.64774 -3.27279,-2.40424 -4.27624,-5.94314 -6.04821,-9.09778 2.35215,2.83756 3.54027,6.54817 7.35013,8.29245 -2.21064,-3.32079 -1.44794,-6.41287 -2.07311,-9.6117 1.00384,3.07817 0.27922,6.0465 3.01543,9.23477 2.66726,-1.02876 1.66043,-6.5961 2.26158,-10.1771 -0.16265,3.83116 1.2967,8.39223 -1.31925,11.11942 2.84689,-0.7186 5.31948,-3.87017 7.91552,-6.21933 -2.37657,2.56938 -3.39082,6.18669 -7.35013,7.53859 2.42117,1.4704 5.24888,-0.51473 7.91552,-1.13079 -2.86651,1.41944 -6.01719,3.05952 -9.26898,1.78193 z"
           id="path4213-0"
           inkscape:connector-curvature="0"
           sodipodi:nodetypes="ccccccccccccccc"
           inkscape:transform-center-x="2.4785912"
           inkscape:transform-center-y="-5.8338562" />
        <path
           style="fill:#008000;fill-opacity:1;fill-rule:evenodd;stroke:#677821;stroke-width:0.37504491;stroke-linecap:butt;stroke-linejoin:miter;stroke-miterlimit:4;stroke-dasharray:none;stroke-opacity:1"
           d="m 234.97604,967.92162 c -5.86632,0.75071 -10.32962,-0.38098 -15.26602,-2.02149 4.00143,0.41143 10.30987,2.95303 13.94677,1.54178 -4.57182,-1.60677 -8.97419,-5.27942 -12.02754,-7.89849 3.45061,2.43959 6.48254,5.35019 10.94829,6.64774 -3.27279,-2.40424 -4.27624,-5.94314 -6.04821,-9.09778 2.35215,2.83756 3.54027,6.54817 7.35013,8.29245 -2.21064,-3.32079 -1.44794,-6.41287 -2.07311,-9.6117 1.00384,3.07817 0.27922,6.0465 3.01543,9.23477 2.66726,-1.02876 1.66043,-6.5961 2.26158,-10.1771 -0.16265,3.83116 1.2967,8.39223 -1.31925,11.11942 2.84689,-0.7186 5.31948,-3.87017 7.91552,-6.21933 -2.37657,2.56938 -3.39082,6.18669 -7.35013,7.53859 2.42117,1.4704 5.24888,-0.51473 7.91552,-1.13079 -2.86651,1.41944 -6.01719,3.05952 -9.26898,1.78193 z"
           id="path4213-5"
           inkscape:connector-curvature="0"
           sodipodi:nodetypes="ccccccccccccccc"
           inkscape:transform-center-x="2.4785912"
           inkscape:transform-center-y="-5.8338562" />
        <path
           style="fill:#008000;fill-opacity:1;fill-rule:evenodd;stroke:#677821;stroke-width:0.37504491;stroke-linecap:butt;stroke-linejoin:miter;stroke-miterlimit:4;stroke-dasharray:none;stroke-opacity:1"
           d="m 250.04942,958.0554 c -5.86632,0.75071 -10.32962,-0.38098 -15.26602,-2.02149 4.00143,0.41143 10.30987,2.95303 13.94677,1.54178 -4.57182,-1.60677 -8.97419,-5.27942 -12.02754,-7.89849 3.45061,2.43959 6.48254,5.35019 10.94829,6.64774 -3.27279,-2.40424 -4.27624,-5.94314 -6.04821,-9.09778 2.35215,2.83756 3.54027,6.54817 7.35013,8.29245 -2.21064,-3.32079 -1.44794,-6.41287 -2.07311,-9.6117 1.00384,3.07817 0.27922,6.0465 3.01543,9.23477 2.66726,-1.02876 1.66043,-6.5961 2.26158,-10.1771 -0.16265,3.83116 1.2967,8.39223 -1.31925,11.11942 2.84689,-0.7186 5.31948,-3.87017 7.91552,-6.21933 -2.37657,2.56938 -3.39082,6.18669 -7.35013,7.53859 2.42117,1.4704 5.24888,-0.51473 7.91552,-1.13079 -2.86651,1.41944 -6.01719,3.05952 -9.26898,1.78193 z"
           id="path4213-1"
           inkscape:connector-curvature="0"
           sodipodi:nodetypes="ccccccccccccccc"
           inkscape:transform-center-x="2.4785912"
           inkscape:transform-center-y="-5.8338562" />
        <path
           style="fill:#008000;fill-opacity:1;fill-rule:evenodd;stroke:#677821;stroke-width:0.37504491;stroke-linecap:butt;stroke-linejoin:miter;stroke-miterlimit:4;stroke-dasharray:none;stroke-opacity:1"
           d="m 254.81249,979.28639 c -5.49039,2.19838 -10.09486,2.22259 -15.28495,1.87293 3.97668,-0.60556 10.72099,0.27216 13.88755,-2.00634 -4.82871,-0.40846 -10.01165,-2.85924 -13.6244,-4.62856 3.95228,1.49592 7.61743,3.55282 12.26589,3.68856 -3.77128,-1.50632 -5.63045,-4.68031 -8.13715,-7.28953 2.98878,2.15673 5.06979,5.45062 9.1954,6.18334 -2.97303,-2.66002 -3.01043,-5.84455 -4.4181,-8.78425 1.74396,2.7279 1.78718,5.78309 5.23572,8.18297 2.32388,-1.66499 -0.0474,-6.80171 -0.36386,-10.41901 0.80367,3.74945 3.36058,7.79856 1.51246,11.09479 2.57557,-1.40981 4.17846,-5.0809 6.10215,-8.0062 -1.65599,3.08342 -1.73033,6.8395 -5.22388,9.14144 2.71262,0.81598 4.9519,-1.81506 7.37871,-3.08039 -2.41875,2.09316 -5.05723,4.4712 -8.52554,4.05025 z"
           id="path4213-07"
           inkscape:connector-curvature="0"
           sodipodi:nodetypes="ccccccccccccccc"
           inkscape:transform-center-x="2.7557562"
           inkscape:transform-center-y="-5.2452277" />
        <path
           style="fill:#008000;fill-opacity:1;fill-rule:evenodd;stroke:#677821;stroke-width:0.37504491;stroke-linecap:butt;stroke-linejoin:miter;stroke-miterlimit:4;stroke-dasharray:none;stroke-opacity:1"
           d="m 247.25409,990.40952 c -5.01126,3.14079 -9.53786,3.98441 -14.70728,4.5644 3.80533,-1.30391 10.59816,-1.64099 13.30845,-4.44688 -4.82428,0.45779 -10.36076,-1.03104 -14.2308,-2.12887 4.15547,0.76834 8.12828,2.13983 12.72663,1.44576 -3.97921,-0.81079 -6.37378,-3.60306 -9.30499,-5.72429 3.32503,1.59014 5.95924,4.46089 10.14939,4.44736 -3.39913,-2.08818 -4.00292,-5.21518 -5.91149,-7.85728 2.20178,2.37382 2.78826,5.3725 6.60899,7.12004 1.99031,-2.05214 -1.25767,-6.68459 -2.21309,-10.18775 1.4584,3.54645 4.69538,7.07562 3.46366,10.64824 2.28341,-1.84586 3.20707,-5.74367 4.5792,-8.96474 -1.08055,3.329 -0.48496,7.0383 -3.51284,9.92546 2.81456,0.31998 4.54962,-2.6677 6.71237,-4.3449 -2.00743,2.49036 -4.18036,5.30017 -7.6682,5.50345 z"
           id="path4213-83"
           inkscape:connector-curvature="0"
           sodipodi:nodetypes="ccccccccccccccc"
           inkscape:transform-center-x="3.3070662"
           inkscape:transform-center-y="-3.882883" />
        <path
           style="fill:#008000;fill-opacity:1;fill-rule:evenodd;stroke:#677821;stroke-width:0.37504491;stroke-linecap:butt;stroke-linejoin:miter;stroke-miterlimit:4;stroke-dasharray:none;stroke-opacity:1"
           d="m 267.61049,994.81352 c -5.8882,-0.5535 -9.99487,-2.63605 -14.4516,-5.31876 3.81392,1.27857 9.41179,5.14121 13.26959,4.56152 -4.10841,-2.56987 -7.59863,-7.11823 -10.00359,-10.34291 2.8319,3.13665 5.15207,6.64108 9.22477,8.886 -2.66616,-3.06318 -2.86945,-6.73597 -3.9068,-10.20232 1.67292,3.28416 2.01875,7.16496 5.35359,9.70197 -1.42893,-3.72461 -0.007,-6.5743 0.0843,-9.83237 0.30466,3.22336 -1.05301,5.96065 0.91775,9.67117 2.8279,-0.41905 3.06597,-6.07169 4.43748,-9.43381 -0.99852,3.70232 -0.57448,8.47236 -3.72463,10.55978 2.93517,-0.0771 6.03847,-2.60997 9.08633,-4.33292 -2.882,1.98593 -4.66452,5.29292 -8.82388,5.74403 2.03996,1.96538 5.23405,0.64839 7.97087,0.63186 -3.10794,0.75655 -6.54151,1.66609 -9.43415,-0.29324 z"
           id="path4213-7"
           inkscape:connector-curvature="0"
           sodipodi:nodetypes="ccccccccccccccc"
           inkscape:transform-center-x="1.6803462"
           inkscape:transform-center-y="-5.1013825" />
        <path
           style="fill:#008000;fill-opacity:1;fill-rule:evenodd;stroke:#677821;stroke-width:0.37504491;stroke-linecap:butt;stroke-linejoin:miter;stroke-miterlimit:4;stroke-dasharray:none;stroke-opacity:1"
           d="m 284.31757,995.72965 c -4.31821,-4.04108 -6.2917,-8.20126 -8.17477,-13.05032 2.23396,3.34517 4.29748,9.82575 7.70333,11.7281 -1.67665,-4.54666 -1.65363,-10.27978 -1.58232,-14.3019 0.32022,4.21376 0.0106,8.40522 1.85792,12.67303 -0.2341,-4.05422 1.85271,-7.0834 3.15354,-10.45971 -0.68667,3.62116 -2.78805,6.90209 -1.7031,10.94936 1.14918,-3.8202 4.01768,-5.20381 6.08365,-7.72475 -1.7316,2.73576 -4.48048,4.06982 -5.19251,8.21046 2.49301,1.39913 6.14046,-2.9258 9.28266,-4.74557 -3.05538,2.31709 -5.63908,6.34915 -9.40792,6.07232 2.36856,1.73525 6.37296,1.63109 9.83785,2.13358 -3.49464,-0.19301 -6.92817,1.33164 -10.49382,-0.85694 0.41065,2.80277 3.74277,3.71579 5.91742,5.37759 -2.92102,-1.3036 -6.1932,-2.68545 -7.28193,-6.00525 z"
           id="path4213-52"
           inkscape:connector-curvature="0"
           sodipodi:nodetypes="ccccccccccccccc"
           inkscape:transform-center-x="-1.8027088"
           inkscape:transform-center-y="-4.102273" />
        <path
           style="fill:#008000;fill-opacity:1;fill-rule:evenodd;stroke:#677821;stroke-width:0.4378663;stroke-linecap:butt;stroke-linejoin:miter;stroke-miterlimit:4;stroke-dasharray:none;stroke-opacity:1"
           d="m 283.52056,981.63962 c -6.42804,-2.52124 -10.36372,-6.18319 -14.49849,-10.63147 3.86666,2.66538 8.90103,8.80584 13.41662,9.40039 -3.78036,-4.20928 -6.22863,-10.43895 -7.88638,-14.83323 2.16519,4.43328 3.63752,9.11406 7.48269,12.94721 -2.00294,-4.29735 -1.04576,-8.48389 -1.09105,-12.70795 0.8172,4.22475 -0.0472,8.69069 2.87585,12.61345 -0.4013,-4.6402 2.11379,-7.37871 3.2676,-11.00487 -0.69838,3.71497 -3.10508,6.34811 -2.09129,11.14738 3.30818,0.44241 5.39948,-5.82311 8.02335,-9.15287 -2.31515,3.83184 -3.37873,9.32074 -7.58689,10.64627 3.31817,0.86075 7.61754,-0.97973 11.5933,-1.92932 -3.87454,1.29818 -6.94177,4.43344 -11.75422,3.5973 1.65461,2.86351 5.66344,2.4166 8.73955,3.28127 -3.73132,-0.15411 -7.87736,-0.24165 -10.49064,-3.37356 z"
           id="path4213-71"
           inkscape:connector-curvature="0"
           sodipodi:nodetypes="ccccccccccccccc"
           inkscape:transform-center-x="0.23390196"
           inkscape:transform-center-y="-5.5613198" />
        <path
           style="fill:#008000;fill-opacity:1;fill-rule:evenodd;stroke:#677821;stroke-width:0.4291456;stroke-linecap:butt;stroke-linejoin:miter;stroke-miterlimit:4;stroke-dasharray:none;stroke-opacity:1"
           d="m 268.77553,979.99253 c -6.71254,0.85901 -11.81968,-0.43593 -17.46816,-2.31309 4.57864,0.47078 11.79708,3.37901 15.95861,1.76419 -5.23131,-1.83855 -10.26873,-6.04099 -13.76253,-9.03786 3.94837,2.7915 7.41766,6.12196 12.5276,7.60668 -3.7449,-2.75105 -4.89309,-6.80044 -6.92067,-10.41014 2.69145,3.24688 4.05095,7.49275 8.41039,9.48864 -2.52953,-3.79981 -1.65681,-7.33793 -2.37216,-10.9982 1.14865,3.5222 0.3195,6.91872 3.45041,10.5669 3.05202,-1.17716 1.89995,-7.54759 2.58782,-11.64516 -0.18611,4.38381 1.48375,9.60282 -1.50956,12.72341 3.25756,-0.82226 6.08683,-4.42844 9.05735,-7.11647 -2.7194,2.94001 -3.87995,7.07912 -8.4104,8.62604 2.77043,1.6825 6.00604,-0.58898 9.05735,-1.29391 -3.28001,1.6242 -6.88518,3.50086 -10.60605,2.03897 z"
           id="path4213-32"
           inkscape:connector-curvature="0"
           sodipodi:nodetypes="ccccccccccccccc"
           inkscape:transform-center-x="2.8361305"
           inkscape:transform-center-y="-6.6753988" />
        <path
           style="fill:#008000;fill-opacity:1;fill-rule:evenodd;stroke:#677821;stroke-width:0.37504491;stroke-linecap:butt;stroke-linejoin:miter;stroke-miterlimit:4;stroke-dasharray:none;stroke-opacity:1"
           d="m 272.05473,940.74086 c -4.80198,-3.45229 -7.29402,-7.32418 -9.78498,-11.89084 2.64555,3.03014 5.52525,9.19159 9.14743,10.64021 -2.24736,-4.29333 -2.96172,-9.98182 -3.40818,-13.97971 0.85939,4.1376 1.09134,8.33408 3.47204,12.32892 -0.75346,-3.99046 0.92653,-7.26283 1.78241,-10.77838 -0.21534,3.67941 -1.8774,7.2033 -0.28104,11.07747 0.64842,-3.93626 3.3152,-5.67723 5.03986,-8.44289 -1.36545,2.93571 -3.91997,4.61215 -4.09366,8.80998 2.65221,1.06695 5.71327,-3.69108 8.59539,-5.89978 -2.73208,2.69072 -4.77587,7.02154 -8.54901,7.23162 2.57202,1.41629 6.52978,0.79809 10.03053,0.85088 -3.49046,0.25795 -6.69943,2.21143 -10.51691,0.49951 0.76764,2.72669 4.1895,3.20371 6.55977,4.57204 -3.06439,-0.91716 -6.48709,-1.86679 -7.99365,-5.01903 z"
           id="path4213-88"
           inkscape:connector-curvature="0"
           sodipodi:nodetypes="ccccccccccccccc"
           inkscape:transform-center-x="-1.1350938"
           inkscape:transform-center-y="-4.399323" />
        <path
           style="fill:#008000;fill-opacity:1;fill-rule:evenodd;stroke:#677821;stroke-width:0.37504491;stroke-linecap:butt;stroke-linejoin:miter;stroke-miterlimit:4;stroke-dasharray:none;stroke-opacity:1"
           d="m 251.36261,936.02779 c -5.86632,0.75071 -10.32962,-0.38098 -15.26602,-2.02149 4.00143,0.41143 10.30987,2.95303 13.94677,1.54178 -4.57182,-1.60677 -8.97419,-5.27942 -12.02754,-7.89849 3.45061,2.43959 6.48254,5.35019 10.94829,6.64774 -3.27279,-2.40424 -4.27624,-5.94314 -6.04821,-9.09778 2.35215,2.83756 3.54027,6.54817 7.35013,8.29245 -2.21064,-3.32079 -1.44794,-6.41287 -2.07311,-9.6117 1.00384,3.07817 0.27922,6.0465 3.01543,9.23477 2.66726,-1.02876 1.66043,-6.5961 2.26158,-10.1771 -0.16265,3.83116 1.2967,8.39223 -1.31925,11.11942 2.84689,-0.7186 5.31948,-3.87017 7.91552,-6.21933 -2.37657,2.56938 -3.39082,6.18669 -7.35013,7.53859 2.42117,1.4704 5.24888,-0.51473 7.91552,-1.13079 -2.86651,1.41944 -6.01719,3.05952 -9.26898,1.78193 z"
           id="path4213-17"
           inkscape:connector-curvature="0"
           sodipodi:nodetypes="ccccccccccccccc"
           inkscape:transform-center-x="2.4785912"
           inkscape:transform-center-y="-5.8338562" />
        <path
           style="fill:#008000;fill-opacity:1;fill-rule:evenodd;stroke:#677821;stroke-width:0.37504491;stroke-linecap:butt;stroke-linejoin:miter;stroke-miterlimit:4;stroke-dasharray:none;stroke-opacity:1"
           d="m 258.38095,923.43586 c -5.86197,-0.78399 -9.8838,-3.026 -14.23189,-5.88143 3.76084,1.42716 9.20292,5.50637 13.08049,5.07842 -4.00446,-2.72902 -7.31362,-7.41076 -9.59027,-10.72728 2.70671,3.2453 4.88765,6.83803 8.86918,9.24095 -2.54398,-3.16539 -2.60307,-6.84333 -3.50368,-10.34769 1.54284,3.34724 1.7362,7.23862 4.96898,9.90446 -1.28176,-3.77779 0.25086,-6.56951 0.46981,-9.8215 0.17802,3.23282 -1.28596,5.91477 0.53777,9.69972 2.84215,-0.30782 3.30172,-5.94677 4.80403,-9.25253 -1.14294,3.66032 -0.90631,8.44332 -4.13589,10.40559 2.93593,0.0381 6.13618,-2.37114 9.24926,-3.97323 -2.95766,1.87137 -4.86851,5.10591 -9.04236,5.39355 1.96131,2.04387 5.20459,0.85316 7.93996,0.94398 -3.13522,0.63408 -6.60182,1.40826 -9.41539,-0.66301 z"
           id="path4213-2"
           inkscape:connector-curvature="0"
           sodipodi:nodetypes="ccccccccccccccc"
           inkscape:transform-center-x="1.4783712"
           inkscape:transform-center-y="-5.0467749" />
        <path
           style="fill:#008000;fill-opacity:1;fill-rule:evenodd;stroke:#677821;stroke-width:0.42853975;stroke-linecap:butt;stroke-linejoin:miter;stroke-miterlimit:4;stroke-dasharray:none;stroke-opacity:1"
           d="m 239.82182,920.02928 c -6.62609,-1.32733 -11.0462,-4.18112 -15.79294,-7.75846 4.18274,1.90535 10.08643,6.95899 14.53943,6.75772 -4.36428,-3.4078 -7.79138,-8.99079 -10.1421,-12.94074 2.84637,3.90054 5.06754,8.15837 9.42978,11.19265 -2.66672,-3.7974 -2.46217,-7.99551 -3.23,-12.05791 1.51174,3.93072 1.44452,8.38214 4.93357,11.66086 -1.18221,-4.40236 0.77176,-7.47229 1.26185,-11.16415 -0.036,3.69936 -1.90363,6.64918 -0.10397,11.09978 3.2635,-0.14085 4.20443,-6.53665 6.16185,-10.19493 -1.57386,4.08915 -1.65767,9.56041 -5.48526,11.55909 3.34486,0.26052 7.17204,-2.24999 10.84015,-3.84661 -3.5108,1.91515 -5.92877,5.46204 -10.70924,5.48142 2.08525,2.47551 5.87142,1.35761 8.98369,1.6634 -3.6218,0.49121 -7.63179,1.11765 -10.68681,-1.45212 z"
           id="path4213-74"
           inkscape:connector-curvature="0"
           sodipodi:nodetypes="ccccccccccccccc"
           inkscape:transform-center-x="1.3027579"
           inkscape:transform-center-y="-5.7449414" />
        <path
           style="fill:#008000;fill-opacity:1;fill-rule:evenodd;stroke:#677821;stroke-width:0.37504491;stroke-linecap:butt;stroke-linejoin:miter;stroke-miterlimit:4;stroke-dasharray:none;stroke-opacity:1"
           d="m 214.69549,928.73082 c -5.86632,0.75071 -10.32962,-0.38098 -15.26602,-2.02149 4.00143,0.41143 10.30987,2.95303 13.94677,1.54178 -4.57182,-1.60677 -8.97419,-5.27942 -12.02754,-7.89849 3.45061,2.43959 6.48254,5.35019 10.94829,6.64774 -3.27279,-2.40424 -4.27624,-5.94314 -6.04821,-9.09778 2.35215,2.83756 3.54027,6.54817 7.35013,8.29245 -2.21064,-3.32079 -1.44794,-6.41287 -2.07311,-9.6117 1.00384,3.07817 0.27922,6.0465 3.01543,9.23477 2.66726,-1.02876 1.66043,-6.5961 2.26158,-10.1771 -0.16265,3.83116 1.2967,8.39223 -1.31925,11.11942 2.84689,-0.7186 5.31948,-3.87017 7.91552,-6.21933 -2.37657,2.56938 -3.39082,6.18669 -7.35013,7.53859 2.42117,1.4704 5.24888,-0.51473 7.91552,-1.13079 -2.86651,1.41944 -6.01719,3.05952 -9.26898,1.78193 z"
           id="path4213-86"
           inkscape:connector-curvature="0"
           sodipodi:nodetypes="ccccccccccccccc"
           inkscape:transform-center-x="2.4785912"
           inkscape:transform-center-y="-5.8338562" />
        <path
           style="fill:#008000;fill-opacity:1;fill-rule:evenodd;stroke:#677821;stroke-width:0.37504491;stroke-linecap:butt;stroke-linejoin:miter;stroke-miterlimit:4;stroke-dasharray:none;stroke-opacity:1"
           d="m 249.30825,906.13108 c -5.77502,-1.27529 -9.59357,-3.84831 -13.68551,-7.06007 3.62717,1.73908 8.70605,6.26247 12.60589,6.16288 -3.76019,-3.05683 -6.66296,-8.00084 -8.65196,-11.49745 2.42354,3.4619 4.2939,7.22567 8.05872,9.95562 -2.26812,-3.36855 -2.017,-7.03838 -2.61903,-10.60618 1.25522,3.46537 1.1199,7.3592 4.11647,10.28804 -0.95877,-3.87238 0.8037,-6.52499 1.29598,-9.74695 -0.0951,3.23633 -1.77994,5.78533 -0.28172,9.71054 2.85799,-0.0672 3.79122,-5.64733 5.56682,-8.81469 -1.4474,3.55096 -1.61475,8.33688 -4.99825,10.01996 2.92228,0.28543 6.31421,-1.8455 9.55125,-3.1795 -3.10487,1.61541 -5.28155,4.67739 -9.46479,4.6122 1.78205,2.20191 5.11416,1.2888 7.83214,1.60986 -3.17751,0.36756 -6.69703,0.8468 -9.32601,-1.45426 z"
           id="path4213-321"
           inkscape:connector-curvature="0"
           sodipodi:nodetypes="ccccccccccccccc"
           inkscape:transform-center-x="1.0365462"
           inkscape:transform-center-y="-5.01236" />
        <path
           style="fill:#008000;fill-opacity:1;fill-rule:evenodd;stroke:#677821;stroke-width:0.49540833;stroke-linecap:butt;stroke-linejoin:miter;stroke-miterlimit:4;stroke-dasharray:none;stroke-opacity:1"
           d="m 228.06908,910.10347 c -7.749,0.99164 -13.64471,-0.50325 -20.16535,-2.67025 5.28561,0.54348 13.61862,3.90075 18.42272,2.03659 -6.03906,-2.12243 -11.85429,-6.97375 -15.88755,-10.43336 4.55802,3.22253 8.56299,7.06723 14.46193,8.78121 -4.32313,-3.17584 -5.64861,-7.85048 -7.98926,-12.01754 3.10702,3.74822 4.67645,8.64968 9.70901,10.95375 -2.9201,-4.38653 -1.91263,-8.47096 -2.73844,-12.69639 1.32601,4.06605 0.36883,7.98701 3.98318,12.19849 3.52326,-1.35892 2.19331,-8.71299 2.98739,-13.44324 -0.21485,5.06069 1.71285,11.08555 -1.74264,14.68798 3.76054,-0.94922 7.02666,-5.11223 10.45585,-8.2153 -3.13928,3.39397 -4.47904,8.17219 -9.70901,9.95795 3.1982,1.9423 6.93341,-0.67992 10.45585,-1.49369 -3.78646,1.87498 -7.94829,4.04141 -12.24368,2.3538 z"
           id="path4213-21"
           inkscape:connector-curvature="0"
           sodipodi:nodetypes="ccccccccccccccc"
           inkscape:transform-center-x="3.2740492"
           inkscape:transform-center-y="-7.7061193" />
        <path
           style="fill:#008000;fill-opacity:1;fill-rule:evenodd;stroke:#677821;stroke-width:0.54667467;stroke-linecap:butt;stroke-linejoin:miter;stroke-miterlimit:4;stroke-dasharray:none;stroke-opacity:1"
           d="m 227.04232,887.4738 c -8.5509,1.09425 -15.05671,-0.55533 -22.25213,-2.94658 5.83258,0.59972 15.02792,4.30441 20.32916,2.24734 -6.664,-2.34207 -13.081,-7.69541 -17.53164,-11.51303 5.02969,3.556 9.44911,7.79857 15.95849,9.68991 -4.77049,-3.50448 -6.23315,-8.66287 -8.81602,-13.26115 3.42856,4.1361 5.16039,9.54477 10.71373,12.08728 -3.22228,-4.84047 -2.11055,-9.34756 -3.02181,-14.01025 1.46322,4.48681 0.407,8.81353 4.39536,13.46083 3.88787,-1.49955 2.42029,-9.61464 3.29654,-14.83439 -0.23708,5.58439 1.8901,12.23272 -1.92297,16.20793 4.14969,-1.04744 7.7538,-5.64125 11.53785,-9.06544 -3.46414,3.74519 -4.94254,9.01787 -10.71373,10.98843 3.52916,2.14329 7.6509,-0.75028 11.53786,-1.64827 -4.1783,2.06901 -8.7708,4.45963 -13.51069,2.59739 z"
           id="path4213-6"
           inkscape:connector-curvature="0"
           sodipodi:nodetypes="ccccccccccccccc"
           inkscape:transform-center-x="3.6128555"
           inkscape:transform-center-y="-8.5035705" />
        <path
           style="fill:#008000;fill-opacity:1;fill-rule:evenodd;stroke:#677821;stroke-width:0.37504491;stroke-linecap:butt;stroke-linejoin:miter;stroke-miterlimit:4;stroke-dasharray:none;stroke-opacity:1"
           d="m 248.90421,883.98413 c -5.41131,-2.38643 -8.64908,-5.66036 -12.02925,-9.61432 3.21419,2.41863 7.30399,7.85275 11.14722,8.52227 -3.08538,-3.7368 -4.95885,-9.15522 -6.22114,-12.97479 1.69517,3.87101 2.78857,7.92917 5.94279,11.3464 -1.56114,-3.74892 -0.593,-7.29764 -0.48141,-10.91415 0.54899,3.64458 -0.34968,7.4357 2.01218,10.8968 -0.17827,-3.98533 2.07159,-6.23939 3.18806,-9.30155 -0.72989,3.15437 -2.88323,5.32213 -2.18646,9.46536 2.81536,0.49637 4.82807,-4.79117 7.19206,-7.54734 -2.11766,3.19684 -3.22322,7.85632 -6.87169,8.84091 2.80902,0.85473 6.55387,-0.56731 9.99008,-1.23846 -3.36199,0.97307 -6.09848,3.54702 -10.18716,2.66018 1.31408,2.50945 4.7607,2.26967 7.36241,3.11913 -3.18773,-0.26469 -6.73274,-0.48718 -8.85769,-3.26044 z"
           id="path4213-23"
           inkscape:connector-curvature="0"
           sodipodi:nodetypes="ccccccccccccccc"
           inkscape:transform-center-x="-0.0234938"
           inkscape:transform-center-y="-4.722868" />
        <path
           style="fill:#008000;fill-opacity:1;fill-rule:evenodd;stroke:#677821;stroke-width:0.37504491;stroke-linecap:butt;stroke-linejoin:miter;stroke-miterlimit:4;stroke-dasharray:none;stroke-opacity:1"
           d="m 205.92552,910.64276 c -5.86632,0.75071 -10.32962,-0.38098 -15.26602,-2.02149 4.00143,0.41143 10.30987,2.95303 13.94677,1.54178 -4.57182,-1.60677 -8.97419,-5.27942 -12.02754,-7.89849 3.45061,2.43959 6.48254,5.35019 10.94829,6.64774 -3.27279,-2.40424 -4.27624,-5.94314 -6.04821,-9.09778 2.35215,2.83756 3.54027,6.54817 7.35013,8.29245 -2.21064,-3.32079 -1.44794,-6.41287 -2.07311,-9.6117 1.00384,3.07817 0.27922,6.0465 3.01543,9.23477 2.66726,-1.02876 1.66043,-6.5961 2.26158,-10.1771 -0.16265,3.83116 1.2967,8.39223 -1.31925,11.11942 2.84689,-0.7186 5.31948,-3.87017 7.91552,-6.21933 -2.37657,2.56938 -3.39082,6.18669 -7.35013,7.53859 2.42117,1.4704 5.24888,-0.51473 7.91552,-1.13079 -2.86651,1.41944 -6.01719,3.05952 -9.26898,1.78193 z"
           id="path4213-67"
           inkscape:connector-curvature="0"
           sodipodi:nodetypes="ccccccccccccccc"
           inkscape:transform-center-x="2.4785912"
           inkscape:transform-center-y="-5.8338562" />
        <path
           style="fill:#008000;fill-opacity:1;fill-rule:evenodd;stroke:#677821;stroke-width:0.37504491;stroke-linecap:butt;stroke-linejoin:miter;stroke-miterlimit:4;stroke-dasharray:none;stroke-opacity:1"
           d="m 192.77056,898.03593 c -5.86632,0.75071 -10.32962,-0.38098 -15.26602,-2.02149 4.00143,0.41143 10.30987,2.95303 13.94677,1.54178 -4.57182,-1.60677 -8.97419,-5.27942 -12.02754,-7.89849 3.45061,2.43959 6.48254,5.35019 10.94829,6.64774 -3.27279,-2.40424 -4.27624,-5.94314 -6.04821,-9.09778 2.35215,2.83756 3.54027,6.54817 7.35013,8.29245 -2.21064,-3.32079 -1.44794,-6.41287 -2.07311,-9.6117 1.00384,3.07817 0.27922,6.0465 3.01543,9.23477 2.66726,-1.02876 1.66043,-6.5961 2.26158,-10.1771 -0.16265,3.83116 1.2967,8.39223 -1.31925,11.11942 2.84689,-0.7186 5.31948,-3.87017 7.91552,-6.21933 -2.37657,2.56938 -3.39082,6.18669 -7.35013,7.53859 2.42117,1.4704 5.24888,-0.51473 7.91552,-1.13079 -2.86651,1.41944 -6.01719,3.05952 -9.26898,1.78193 z"
           id="path4213-4"
           inkscape:connector-curvature="0"
           sodipodi:nodetypes="ccccccccccccccc"
           inkscape:transform-center-x="2.4785912"
           inkscape:transform-center-y="-5.8338562" />
        <path
           style="fill:#008000;fill-opacity:1;fill-rule:evenodd;stroke:#677821;stroke-width:0.37504491;stroke-linecap:butt;stroke-linejoin:miter;stroke-miterlimit:4;stroke-dasharray:none;stroke-opacity:1"
           d="m 184.27466,910.09464 c -5.86632,0.75071 -10.32962,-0.38098 -15.26602,-2.02149 4.00143,0.41143 10.30987,2.95303 13.94677,1.54178 -4.57182,-1.60677 -8.97419,-5.27942 -12.02754,-7.89849 3.45061,2.43959 6.48254,5.35019 10.94829,6.64774 -3.27279,-2.40424 -4.27624,-5.94314 -6.04821,-9.09778 2.35215,2.83756 3.54027,6.54817 7.35013,8.29245 -2.21064,-3.32079 -1.44794,-6.41287 -2.07311,-9.6117 1.00384,3.07817 0.27922,6.0465 3.01543,9.23477 2.66726,-1.02876 1.66043,-6.5961 2.26158,-10.1771 -0.16265,3.83116 1.2967,8.39223 -1.31925,11.11942 2.84689,-0.7186 5.31948,-3.87017 7.91552,-6.21933 -2.37657,2.56938 -3.39082,6.18669 -7.35013,7.53859 2.42117,1.4704 5.24888,-0.51473 7.91552,-1.13079 -2.86651,1.41944 -6.01719,3.05952 -9.26898,1.78193 z"
           id="path4213-97"
           inkscape:connector-curvature="0"
           sodipodi:nodetypes="ccccccccccccccc"
           inkscape:transform-center-x="2.4785912"
           inkscape:transform-center-y="-5.8338562" />
        <path
           style="fill:#008000;fill-opacity:1;fill-rule:evenodd;stroke:#677821;stroke-width:0.66926658;stroke-linecap:butt;stroke-linejoin:miter;stroke-miterlimit:4;stroke-dasharray:none;stroke-opacity:1"
           d="m 159.43627,921.49573 c -10.46843,1.33964 -18.43317,-0.67986 -27.24217,-3.60735 7.14054,0.7342 18.39794,5.26968 24.88798,2.75131 -8.1584,-2.86728 -16.01442,-9.42111 -21.46312,-14.09484 6.15761,4.35345 11.56808,9.5474 19.5372,11.86288 -5.84029,-4.29036 -7.63094,-10.60552 -10.79302,-16.23497 4.19741,5.06362 6.31761,11.6852 13.11629,14.79786 -3.94488,-5.92594 -2.58384,-11.44375 -3.69946,-17.15205 1.79135,5.49298 0.49827,10.78996 5.38103,16.47942 4.75972,-1.83582 2.96303,-11.77072 4.03578,-18.16101 -0.29025,6.8367 2.31396,14.97591 -2.3542,19.84257 5.08027,-1.28233 9.4926,-6.9063 14.12523,-11.09837 -4.24099,4.58505 -6.05091,11.04013 -13.11629,13.45259 4.32057,2.62393 9.36661,-0.91853 14.12522,-2.01789 -5.11528,2.53299 -10.73766,5.4597 -16.54047,3.17985 z"
           id="path4213-34"
           inkscape:connector-curvature="0"
           sodipodi:nodetypes="ccccccccccccccc"
           inkscape:transform-center-x="4.4230428"
           inkscape:transform-center-y="-10.410501" />
        <path
           style="fill:#008000;fill-opacity:1;fill-rule:evenodd;stroke:#677821;stroke-width:0.55413681;stroke-linecap:butt;stroke-linejoin:miter;stroke-miterlimit:4;stroke-dasharray:none;stroke-opacity:1"
           d="m 136.51398,917.33628 c -6.79849,5.48982 -13.29045,7.52439 -20.77184,9.2854 5.35282,-2.58283 15.2585,-4.2733 18.74046,-8.86671 -6.99659,1.52096 -15.3807,0.31165 -21.25132,-0.61748 6.23133,0.39552 12.30089,1.70799 18.92444,-0.1198 -5.98023,-0.48882 -9.98467,-4.16346 -14.65821,-6.75921 5.15776,1.7473 9.52757,5.49487 15.67211,4.73729 -5.35416,-2.46488 -6.79046,-6.94586 -10.05551,-10.48577 3.64794,3.09471 5.03628,7.3905 10.94895,9.28144 2.55845,-3.36092 -3.02193,-9.58483 -5.04031,-14.55573 2.76387,4.94586 8.13386,9.5532 6.95595,15.01107 3.02476,-3.10989 3.69349,-8.99057 5.13927,-13.95745 -0.99903,5.07387 0.52777,10.41053 -3.40577,15.17908 4.18528,-0.0261 6.20456,-4.71455 9.082,-7.55577 -2.50641,4.0068 -5.19936,8.51134 -10.28022,9.42364 z"
           id="path4213-40"
           inkscape:connector-curvature="0"
           sodipodi:nodetypes="ccccccccccccccc"
           inkscape:transform-center-x="5.4745034"
           inkscape:transform-center-y="-4.2053999" />
        <path
           style="fill:#008000;fill-opacity:1;fill-rule:evenodd;stroke:#677821;stroke-width:0.55972403;stroke-linecap:butt;stroke-linejoin:miter;stroke-miterlimit:4;stroke-dasharray:none;stroke-opacity:1"
           d="m 116.68041,914.32655 c -7.52292,4.61637 -14.29011,5.81141 -22.0129,6.60395 5.69731,-1.89215 15.83935,-2.29924 19.9237,-6.44833 -7.20599,0.61505 -15.44734,-1.68503 -21.2073,-3.37804 6.19057,1.20534 12.10004,3.30819 18.9722,2.33736 -5.92693,-1.2662 -9.46103,-5.46707 -13.80547,-8.6741 4.93965,2.42002 8.83027,6.74139 15.08364,6.7804 -5.04319,-3.16432 -5.90009,-7.83943 -8.71103,-11.80933 3.2523,3.57366 4.08518,8.05704 9.76237,10.71896 2.99923,-3.03441 -1.78247,-9.99354 -3.1588,-15.23498 2.12634,5.31315 6.90721,10.62564 5.01857,15.93985 3.43374,-2.72242 4.86723,-8.52628 6.9604,-13.31386 -1.65957,4.95277 -0.82314,10.49676 -5.38259,14.76265 4.1958,0.51729 6.82732,-3.91689 10.0786,-6.38931 -3.03096,3.68815 -6.31342,7.85068 -11.52139,8.10478 z"
           id="path4213-73"
           inkscape:connector-curvature="0"
           sodipodi:nodetypes="ccccccccccccccc"
           inkscape:transform-center-x="4.8853281"
           inkscape:transform-center-y="-5.9142251" />
        <path
           style="fill:#008000;fill-opacity:1;fill-rule:evenodd;stroke:#677821;stroke-width:0.51883078;stroke-linecap:butt;stroke-linejoin:miter;stroke-miterlimit:4;stroke-dasharray:none;stroke-opacity:1"
           d="m 128.44933,902.1682 c -8.11537,1.03851 -14.28982,-0.52704 -21.11875,-2.79649 5.53551,0.56915 14.26249,4.08517 19.29372,2.13286 -6.32458,-2.22277 -12.41474,-7.30346 -16.6387,-10.92663 4.77352,3.37489 8.96784,7.40136 15.14569,9.19637 -4.52753,-3.32598 -5.91568,-8.22164 -8.367,-12.58572 3.25393,3.92543 4.89754,9.05863 10.16804,11.47164 -3.05815,-4.59393 -2.00305,-8.87146 -2.86789,-13.29667 1.38869,4.25829 0.38626,8.36463 4.17148,12.77523 3.68985,-1.42316 2.29702,-9.12494 3.12864,-14.07882 -0.225,5.29996 1.79383,11.60966 -1.82503,15.38241 3.93834,-0.9941 7.35887,-5.35392 10.95019,-8.60372 -3.2877,3.55444 -4.6908,8.55857 -10.16804,10.42876 3.3494,2.03413 7.26121,-0.71207 10.95019,-1.56432 -3.96547,1.96364 -8.32408,4.2325 -12.82254,2.4651 z"
           id="path4213-30"
           inkscape:connector-curvature="0"
           sodipodi:nodetypes="ccccccccccccccc"
           inkscape:transform-center-x="3.428841"
           inkscape:transform-center-y="-8.0704514" />
        <path
           style="fill:#008000;fill-opacity:1;fill-rule:evenodd;stroke:#677821;stroke-width:0.59144765;stroke-linecap:butt;stroke-linejoin:miter;stroke-miterlimit:4;stroke-dasharray:none;stroke-opacity:1"
           d="m 149.03227,900.99164 c -8.3651,-4.12451 -13.24588,-9.50091 -18.3052,-15.95833 4.90123,4.02721 10.97892,12.86454 16.98908,14.17832 -4.6095,-6.09542 -7.19625,-14.75871 -8.92777,-20.86172 2.41006,6.21322 3.85943,12.68078 8.59891,18.27733 -2.20714,-6.01183 -0.44271,-11.53786 -0.0233,-17.2284 0.61945,5.77926 -1.05186,11.6919 2.43626,17.30418 -0.0124,-6.29115 3.68424,-9.69101 5.64959,-14.44044 -1.36248,4.92075 -4.90123,8.19113 -4.08253,14.76602 4.40234,0.97171 7.92969,-7.22356 11.83998,-11.40686 -3.55186,4.89419 -5.60764,12.16103 -11.42237,13.46653 4.36821,1.53592 10.36427,-0.45234 15.82345,-1.27828 -5.36257,1.30664 -9.8475,5.17773 -16.22974,3.50502 1.90138,4.04232 7.3479,3.89672 11.38986,5.41036 -5.00466,-0.63177 -10.57507,-1.22114 -13.73625,-5.73373 z"
           id="path4213-51"
           inkscape:connector-curvature="0"
           sodipodi:nodetypes="ccccccccccccccc"
           inkscape:transform-center-x="-0.3998402"
           inkscape:transform-center-y="-7.3688282" />
        <path
           style="fill:#008000;fill-opacity:1;fill-rule:evenodd;stroke:#677821;stroke-width:0.54890317;stroke-linecap:butt;stroke-linejoin:miter;stroke-miterlimit:4;stroke-dasharray:none;stroke-opacity:1"
           d="m 163.78123,883.5984 c -8.58575,1.09871 -15.11809,-0.55759 -22.34284,-2.95859 5.85636,0.60216 15.08918,4.32196 20.41203,2.2565 -6.69117,-2.35162 -13.13433,-7.72678 -17.60311,-11.55997 5.0502,3.5705 9.48763,7.83036 16.02355,9.72941 -4.78994,-3.51876 -6.25856,-8.69818 -8.85196,-13.3152 3.44253,4.15295 5.18142,9.58368 10.75741,12.13655 -3.23542,-4.8602 -2.11916,-9.38566 -3.03414,-14.06736 1.46919,4.5051 0.40866,8.84945 4.41329,13.5157 3.90371,-1.50566 2.43015,-9.65384 3.30997,-14.89487 -0.23805,5.60716 1.89781,12.28259 -1.93081,16.27401 4.16661,-1.05172 7.78541,-5.66425 11.58489,-9.1024 -3.47827,3.76046 -4.96269,9.05463 -10.75741,11.03323 3.54355,2.15203 7.68209,-0.75334 11.58489,-1.65499 -4.19532,2.07745 -8.80655,4.47781 -13.56576,2.60798 z"
           id="path4213-889"
           inkscape:connector-curvature="0"
           sodipodi:nodetypes="ccccccccccccccc"
           inkscape:transform-center-x="3.6275855"
           inkscape:transform-center-y="-8.5382376" />
        <path
           style="fill:#008000;fill-opacity:1;fill-rule:evenodd;stroke:#677821;stroke-width:0.50190169;stroke-linecap:butt;stroke-linejoin:miter;stroke-miterlimit:4;stroke-dasharray:none;stroke-opacity:1"
           d="m 141.64647,871.78076 c -7.85056,1.00463 -13.82355,-0.50985 -20.42966,-2.70525 5.35489,0.55059 13.79713,3.95187 18.66419,2.06328 -6.11822,-2.15025 -12.00966,-7.06516 -16.09579,-10.57011 4.61776,3.26477 8.67522,7.15986 14.65149,8.8963 -4.3798,-3.21746 -5.72266,-7.95337 -8.09399,-12.17505 3.14775,3.79735 4.73775,8.76305 9.83627,11.09732 -2.95837,-4.44403 -1.93769,-8.58199 -2.77432,-12.8628 1.34338,4.11934 0.37366,8.09169 4.03538,12.35838 3.56944,-1.37674 2.22206,-8.8272 3.02654,-13.61945 -0.21766,5.12703 1.7353,11.23085 -1.76548,14.8805 3.80984,-0.96166 7.11877,-5.17923 10.5929,-8.32298 -3.18043,3.43846 -4.53774,8.2793 -9.83627,10.08847 3.24012,1.96776 7.02429,-0.68883 10.5929,-1.51327 -3.83609,1.89956 -8.05247,4.09438 -12.40416,2.38466 z"
           id="path4213-25"
           inkscape:connector-curvature="0"
           sodipodi:nodetypes="ccccccccccccccc"
           inkscape:transform-center-x="3.3169626"
           inkscape:transform-center-y="-7.8071244" />
        <path
           style="fill:#008000;fill-opacity:1;fill-rule:evenodd;stroke:#677821;stroke-width:0.37504491;stroke-linecap:butt;stroke-linejoin:miter;stroke-miterlimit:4;stroke-dasharray:none;stroke-opacity:1"
           d="m 173.41489,867.13566 c -5.86632,0.75071 -10.32962,-0.38098 -15.26602,-2.02149 4.00143,0.41143 10.30987,2.95303 13.94677,1.54178 -4.57182,-1.60677 -8.97419,-5.27942 -12.02754,-7.89849 3.45061,2.43959 6.48254,5.35019 10.94829,6.64774 -3.27279,-2.40424 -4.27624,-5.94314 -6.04821,-9.09778 2.35215,2.83756 3.54027,6.54817 7.35013,8.29245 -2.21064,-3.32079 -1.44794,-6.41287 -2.07311,-9.6117 1.00384,3.07817 0.27922,6.0465 3.01543,9.23477 2.66726,-1.02876 1.66043,-6.5961 2.26158,-10.1771 -0.16265,3.83116 1.2967,8.39223 -1.31925,11.11942 2.84689,-0.7186 5.31948,-3.87017 7.91552,-6.21933 -2.37657,2.56938 -3.39082,6.18669 -7.35013,7.53859 2.42117,1.4704 5.24888,-0.51473 7.91552,-1.13079 -2.86651,1.41944 -6.01719,3.05952 -9.26898,1.78193 z"
           id="path4213-53"
           inkscape:connector-curvature="0"
           sodipodi:nodetypes="ccccccccccccccc"
           inkscape:transform-center-x="2.4785912"
           inkscape:transform-center-y="-5.8338562" />
        <path
           style="fill:#008000;fill-opacity:1;fill-rule:evenodd;stroke:#677821;stroke-width:0.46459088;stroke-linecap:butt;stroke-linejoin:miter;stroke-miterlimit:4;stroke-dasharray:none;stroke-opacity:1"
           d="m 170.53113,855.67563 c -7.26696,0.92995 -12.79592,-0.47194 -18.91094,-2.50414 4.95681,0.50966 12.77146,3.6581 17.27671,1.9099 -5.66339,-1.99041 -11.11687,-6.53994 -14.89924,-9.78434 4.27448,3.02207 8.03031,6.6276 13.56231,8.23496 -4.05421,-2.97828 -5.29724,-7.36213 -7.49229,-11.26997 2.91375,3.51505 4.38555,8.11161 9.10505,10.27236 -2.73845,-4.11367 -1.79365,-7.94401 -2.56808,-11.9066 1.24351,3.81312 0.34588,7.49017 3.73539,11.43967 3.3041,-1.27439 2.05688,-8.17099 2.80156,-12.60699 -0.20149,4.74589 1.6063,10.39596 -1.63424,13.7743 3.52662,-0.89017 6.58957,-4.79421 9.80544,-7.70426 -2.944,3.18285 -4.20042,7.66383 -9.10505,9.33851 2.99925,1.82147 6.5021,-0.63763 9.80543,-1.40078 -3.55092,1.75835 -7.45386,3.79001 -11.48205,2.20738 z"
           id="path4213-49"
           inkscape:connector-curvature="0"
           sodipodi:nodetypes="ccccccccccccccc"
           inkscape:transform-center-x="3.0703819"
           inkscape:transform-center-y="-7.2267519" />
        <path
           style="fill:#008000;fill-opacity:1;fill-rule:evenodd;stroke:#677821;stroke-width:0.37504491;stroke-linecap:butt;stroke-linejoin:miter;stroke-miterlimit:4;stroke-dasharray:none;stroke-opacity:1"
           d="m 198.79992,879.94787 c -5.86632,0.75071 -10.32962,-0.38098 -15.26602,-2.02149 4.00143,0.41143 10.30987,2.95303 13.94677,1.54178 -4.57182,-1.60677 -8.97419,-5.27942 -12.02754,-7.89849 3.45061,2.43959 6.48254,5.35019 10.94829,6.64774 -3.27279,-2.40424 -4.27624,-5.94314 -6.04821,-9.09778 2.35215,2.83756 3.54027,6.54817 7.35013,8.29245 -2.21064,-3.32079 -1.44794,-6.41287 -2.07311,-9.6117 1.00384,3.07817 0.27922,6.0465 3.01543,9.23477 2.66726,-1.02876 1.66043,-6.5961 2.26158,-10.1771 -0.16265,3.83116 1.2967,8.39223 -1.31925,11.11942 2.84689,-0.7186 5.31948,-3.87017 7.91552,-6.21933 -2.37657,2.56938 -3.39082,6.18669 -7.35013,7.53859 2.42117,1.4704 5.24888,-0.51473 7.91552,-1.13079 -2.86651,1.41944 -6.01719,3.05952 -9.26898,1.78193 z"
           id="path4213-55"
           inkscape:connector-curvature="0"
           sodipodi:nodetypes="ccccccccccccccc"
           inkscape:transform-center-x="2.4785912"
           inkscape:transform-center-y="-5.8338562" />
        <path
           style="fill:#008000;fill-opacity:1;fill-rule:evenodd;stroke:#677821;stroke-width:0.48203462;stroke-linecap:butt;stroke-linejoin:miter;stroke-miterlimit:4;stroke-dasharray:none;stroke-opacity:1"
           d="m 213.79866,860.95372 c -7.5186,-1.11822 -12.64485,-4.07544 -18.17881,-7.82715 4.80623,1.90511 11.723,7.2502 16.71427,6.77345 -5.09473,-3.58277 -9.25904,-9.66191 -12.12222,-13.96708 3.41721,4.22176 6.15218,8.88008 11.22359,12.04332 -3.20957,-4.11598 -3.21607,-8.84374 -4.3073,-13.36432 1.91955,4.33079 2.09457,9.33538 6.19877,12.82239 -1.57589,-4.87916 0.44644,-8.43796 0.78923,-12.61307 0.16774,4.15797 -1.76432,7.57697 0.50795,12.47559 3.65836,-0.34193 4.35544,-7.58006 6.34853,-11.80002 -1.53795,4.68241 -1.32416,10.83367 -5.51166,13.29447 3.77235,0.10441 7.93058,-2.93137 11.96156,-4.93149 -3.83633,2.34911 -6.35309,6.46985 -11.72247,6.76069 2.48195,2.66368 6.67248,1.1947 10.18608,1.36306 -4.04115,0.75569 -8.51081,1.68515 -12.08752,-1.02984 z"
           id="path4213-36"
           inkscape:connector-curvature="0"
           sodipodi:nodetypes="ccccccccccccccc"
           inkscape:transform-center-x="1.8021038"
           inkscape:transform-center-y="-6.4862172" />
        <path
           style="fill:#008000;fill-opacity:1;fill-rule:evenodd;stroke:#677821;stroke-width:0.46459088;stroke-linecap:butt;stroke-linejoin:miter;stroke-miterlimit:4;stroke-dasharray:none;stroke-opacity:1"
           d="m 198.48541,847.72785 c -7.26696,0.92995 -12.79592,-0.47194 -18.91094,-2.50414 4.95681,0.50966 12.77146,3.6581 17.27671,1.9099 -5.66339,-1.99041 -11.11687,-6.53994 -14.89924,-9.78434 4.27448,3.02207 8.03031,6.6276 13.56231,8.23496 -4.05421,-2.97828 -5.29724,-7.36213 -7.49229,-11.26997 2.91375,3.51505 4.38555,8.11161 9.10505,10.27236 -2.73845,-4.11367 -1.79365,-7.94401 -2.56808,-11.9066 1.24351,3.81312 0.34588,7.49017 3.73539,11.43967 3.3041,-1.27439 2.05688,-8.17099 2.80156,-12.60699 -0.20149,4.74589 1.6063,10.39596 -1.63424,13.7743 3.52662,-0.89017 6.58957,-4.79421 9.80544,-7.70426 -2.944,3.18285 -4.20042,7.66383 -9.10505,9.33851 2.99925,1.82147 6.5021,-0.63763 9.80543,-1.40078 -3.55092,1.75835 -7.45386,3.79001 -11.48205,2.20738 z"
           id="path4213-26"
           inkscape:connector-curvature="0"
           sodipodi:nodetypes="ccccccccccccccc"
           inkscape:transform-center-x="3.0703819"
           inkscape:transform-center-y="-7.2267519" />
        <path
           style="fill:#008000;fill-opacity:1;fill-rule:evenodd;stroke:#677821;stroke-width:0.37504491;stroke-linecap:butt;stroke-linejoin:miter;stroke-miterlimit:4;stroke-dasharray:none;stroke-opacity:1"
           d="m 234.41635,874.91207 c -5.86632,0.75071 -10.32962,-0.38098 -15.26602,-2.02149 4.00143,0.41143 10.30987,2.95303 13.94677,1.54178 -4.57182,-1.60677 -8.97419,-5.27942 -12.02754,-7.89849 3.45061,2.43959 6.48254,5.35019 10.94829,6.64774 -3.27279,-2.40424 -4.27624,-5.94314 -6.04821,-9.09778 2.35215,2.83756 3.54027,6.54817 7.35013,8.29245 -2.21064,-3.32079 -1.44794,-6.41287 -2.07311,-9.6117 1.00384,3.07817 0.27922,6.0465 3.01543,9.23477 2.66726,-1.02876 1.66043,-6.5961 2.26158,-10.1771 -0.16265,3.83116 1.2967,8.39223 -1.31925,11.11942 2.84689,-0.7186 5.31948,-3.87017 7.91552,-6.21933 -2.37657,2.56938 -3.39082,6.18669 -7.35013,7.53859 2.42117,1.4704 5.24888,-0.51473 7.91552,-1.13079 -2.86651,1.41944 -6.01719,3.05952 -9.26898,1.78193 z"
           id="path4213-98"
           inkscape:connector-curvature="0"
           sodipodi:nodetypes="ccccccccccccccc"
           inkscape:transform-center-x="2.4785912"
           inkscape:transform-center-y="-5.8338562" />
      </g>
    </g>
  </g>
</svg>
