<?xml version="1.0" encoding="UTF-8" standalone="no"?>
<!-- Created with Inkscape (http://www.inkscape.org/) -->

<svg
   version="1.1"
   id="svg1"
   width="1486.6667"
   height="833.33331"
   viewBox="0 0 1486.6667 833.33331"
   sodipodi:docname="logo.svg"
   inkscape:version="1.3 (0e150ed, 2023-07-21)"
   xmlns:inkscape="http://www.inkscape.org/namespaces/inkscape"
   xmlns:sodipodi="http://sodipodi.sourceforge.net/DTD/sodipodi-0.dtd"
   xmlns="http://www.w3.org/2000/svg"
   xmlns:svg="http://www.w3.org/2000/svg">
  <defs
     id="defs1" />
  <sodipodi:namedview
     id="namedview1"
     pagecolor="#ffffff"
     bordercolor="#999999"
     borderopacity="1"
     inkscape:showpageshadow="0"
     inkscape:pageopacity="0"
     inkscape:pagecheckerboard="0"
     inkscape:deskcolor="#d1d1d1"
     inkscape:zoom="0.30916102"
     inkscape:cx="682.49225"
     inkscape:cy="399.46821"
     inkscape:current-layer="g1" />
  <g
     inkscape:groupmode="layer"
     inkscape:label="Image"
     id="g1">
    <g
       id="g9"
       transform="matrix(1.2151707,0,0,1.2151707,-200.70048,12.716596)"
       style="stroke:#ffff00">
      <path
         style="opacity:1;fill:none;fill-opacity:1;stroke:#ffff00;stroke-width:20;stroke-linecap:round;stroke-linejoin:round;stroke-miterlimit:4;stroke-dasharray:none;stroke-dashoffset:0;stroke-opacity:1"
         d="m 349.5689,293.04929 c 369.30269,51.43187 828.5722,0.62779 840.3678,-51.58528 5.1614,16.88942 21.2033,37.07332 16.2347,105.09198 -84.9724,74.90438 -845.74798,68.33755 -844.65937,39.33578 C 337.77211,364.9679 349.5689,293.04929 349.5689,293.04929 Z"
         id="path1"
         sodipodi:nodetypes="ccccc" />
      <path
         style="opacity:1;fill:none;fill-opacity:1;stroke:#ffff00;stroke-width:20;stroke-linecap:round;stroke-linejoin:round;stroke-miterlimit:4;stroke-dasharray:none;stroke-dashoffset:0;stroke-opacity:1"
         d="m 350.34629,290.67834 c -0.64159,9.50894 -16.45822,-145.07467 48.57219,-180.655 271.56507,158.24595 280.20664,-19.582841 359.97147,-14.250444 74.88048,5.005874 143.66768,69.154154 354.84825,102.530344 32.8802,5.19658 64.2417,16.79547 75.7693,43.47676 -62.1237,40.81204 -291.90956,103.33467 -839.16121,48.89834 z"
         id="path2"
         sodipodi:nodetypes="ccsscc" />
      <path
         style="opacity:1;fill:none;fill-opacity:1;stroke:#ffff00;stroke-width:20;stroke-linecap:round;stroke-linejoin:round;stroke-miterlimit:4;stroke-dasharray:none;stroke-dashoffset:0;stroke-opacity:1"
         d="m 366.37698,158.54032 c 6.07107,-29.60429 141.95738,133.89613 154.32147,140.60602 8.55617,4.64336 -145.06409,-5.61768 -161.47325,-8.95684 -25.15427,-5.11874 -3.32447,-137.93245 7.15178,-131.64918 z"
         id="path3"
         sodipodi:nodetypes="cssc" />
      <path
         style="opacity:1;fill:none;fill-opacity:1;stroke:#ffff00;stroke-width:20;stroke-linecap:round;stroke-linejoin:round;stroke-miterlimit:4;stroke-dasharray:none;stroke-dashoffset:0;stroke-opacity:1"
         d="M 840.93451,113.66419 C 804.65825,74.132625 705.32115,-15.986073 720.24313,100.31214 764.07322,88.890803 765.85885,85.8939 840.93451,113.66419 Z"
         id="path5"
         sodipodi:nodetypes="ccc" />
      <path
         style="opacity:1;fill:none;fill-opacity:1;stroke:#ffff00;stroke-width:20;stroke-linecap:round;stroke-linejoin:round;stroke-miterlimit:4;stroke-dasharray:none;stroke-dashoffset:0;stroke-opacity:1"
         d="m 836.23605,139.90249 c 6.07099,-52.185951 34.14224,-65.917328 60.32576,-56.991486 22.37572,7.62778 -10.26349,59.865676 11.06987,70.051126 25.77801,12.3075 47.52548,-52.95233 74.23255,-42.81761 19.12837,7.25879 0.52555,50.41317 19.43727,58.21915 22.1303,9.13449 42.335,-42.05396 64.1768,-32.24959 20.9113,9.38671 18.3858,21.24094 17.7641,66.43029"
         id="path6"
         sodipodi:nodetypes="caaaaac" />
    </g>
    <g
       id="g11"
       transform="translate(-14.884206,86)">
      <text
         xml:space="preserve"
         style="font-style:normal;font-variant:normal;font-weight:normal;font-stretch:normal;font-size:249.47px;line-height:1.25;font-family:'Arial Black';-inkscape-font-specification:'Arial Black, ';letter-spacing:0px;word-spacing:0px;fill:#00ff00;stroke-width:7.79596"
         x="130.37247"
         y="600.172"
         id="text1"
         transform="scale(0.9002691,1.110779)"><tspan
           sodipodi:role="line"
           id="tspan1"
           x="130.37247"
           y="600.172"
           style="font-style:normal;font-variant:normal;font-weight:normal;font-stretch:normal;font-family:'Arial Black';-inkscape-font-specification:'Arial Black, ';fill:#00ff00;stroke-width:7.79596">JWC</tspan></text>
      <text
         xml:space="preserve"
         style="font-style:normal;font-variant:normal;font-weight:normal;font-stretch:normal;font-size:209.7px;line-height:1.25;font-family:'Arial Black';-inkscape-font-specification:'Arial Black, ';letter-spacing:0px;word-spacing:0px;fill:#ff00ff;stroke-width:6.55312"
         x="1048.0181"
         y="504.54453"
         id="text1-8"
         transform="scale(0.75674919,1.3214418)"><tspan
           sodipodi:role="line"
           id="tspan1-7"
           x="1048.0181"
           y="504.54453"
           style="font-style:normal;font-variant:normal;font-weight:normal;font-stretch:normal;font-family:'Arial Black';-inkscape-font-specification:'Arial Black, ';fill:#ff00ff;stroke-width:6.55312">SHOES</tspan></text>
    </g>
  </g>
</svg>
